M48
; DRILL file {KiCad (6.0.7)} date Thu Dec 22 14:50:41 2022
; FORMAT={-:-/ absolute / inch / decimal}
; #@! TF.CreationDate,2022-12-22T14:50:41-06:00
; #@! TF.GenerationSoftware,Kicad,Pcbnew,(6.0.7)
; #@! TF.FileFunction,Plated,1,2,PTH
FMAT,2
INCH
; #@! TA.AperFunction,Plated,PTH,ComponentDrill
T1C0.0236
; #@! TA.AperFunction,Plated,PTH,ComponentDrill
T2C0.0276
; #@! TA.AperFunction,Plated,PTH,ComponentDrill
T3C0.0315
; #@! TA.AperFunction,Plated,PTH,ComponentDrill
T4C0.0354
; #@! TA.AperFunction,Plated,PTH,ComponentDrill
T5C0.0433
; #@! TA.AperFunction,Plated,PTH,ComponentDrill
T6C0.0598
%
G90
G05
T1
X5.7857Y-3.6108
X5.8645Y-3.6108
T2
X5.0799Y-3.7516
X5.0799Y-4.0516
X5.2571Y-3.7514
X5.2571Y-4.0514
X5.3839Y-3.6596
X5.4358Y-3.7516
X5.4358Y-4.0516
X5.585Y-4.2602
X5.6839Y-3.6596
X5.885Y-4.2602
T3
X5.5843Y-3.7598
X5.5843Y-4.1598
X5.6843Y-3.7598
X5.6843Y-4.1598
X5.7843Y-3.7598
X5.7843Y-4.1598
X5.8843Y-3.7598
X5.8843Y-4.1598
X6.0051Y-3.7449
X6.0051Y-3.8433
T4
X5.0787Y-4.1352
X5.0787Y-4.2352
X5.2563Y-4.1352
X5.2563Y-4.2352
X5.4339Y-4.135
X5.4339Y-4.235
T5
X6.0035Y-3.9591
X6.0035Y-4.1362
X6.2594Y-3.9591
X6.2594Y-4.1362
T6
X4.8327Y-3.5728
X4.8327Y-3.7728
X4.8327Y-3.9728
X4.8327Y-4.1728
T0
M30
