%TF.GenerationSoftware,KiCad,Pcbnew,(6.0.7)*%
%TF.CreationDate,2022-12-22T14:47:10-06:00*%
%TF.ProjectId,Proyecto_1,50726f79-6563-4746-9f5f-312e6b696361,rev?*%
%TF.SameCoordinates,Original*%
%TF.FileFunction,Legend,Top*%
%TF.FilePolarity,Positive*%
%FSLAX46Y46*%
G04 Gerber Fmt 4.6, Leading zero omitted, Abs format (unit mm)*
G04 Created by KiCad (PCBNEW (6.0.7)) date 2022-12-22 14:47:10*
%MOMM*%
%LPD*%
G01*
G04 APERTURE LIST*
%ADD10C,0.150000*%
%ADD11C,0.010000*%
%ADD12C,0.120000*%
G04 APERTURE END LIST*
D10*
%TO.C,SW1*%
X154406666Y-108404761D02*
X154549523Y-108452380D01*
X154787619Y-108452380D01*
X154882857Y-108404761D01*
X154930476Y-108357142D01*
X154978095Y-108261904D01*
X154978095Y-108166666D01*
X154930476Y-108071428D01*
X154882857Y-108023809D01*
X154787619Y-107976190D01*
X154597142Y-107928571D01*
X154501904Y-107880952D01*
X154454285Y-107833333D01*
X154406666Y-107738095D01*
X154406666Y-107642857D01*
X154454285Y-107547619D01*
X154501904Y-107500000D01*
X154597142Y-107452380D01*
X154835238Y-107452380D01*
X154978095Y-107500000D01*
X155311428Y-107452380D02*
X155549523Y-108452380D01*
X155740000Y-107738095D01*
X155930476Y-108452380D01*
X156168571Y-107452380D01*
X157073333Y-108452380D02*
X156501904Y-108452380D01*
X156787619Y-108452380D02*
X156787619Y-107452380D01*
X156692380Y-107595238D01*
X156597142Y-107690476D01*
X156501904Y-107738095D01*
%TO.C,C1*%
X155187142Y-96536666D02*
X155234761Y-96584285D01*
X155282380Y-96727142D01*
X155282380Y-96822380D01*
X155234761Y-96965238D01*
X155139523Y-97060476D01*
X155044285Y-97108095D01*
X154853809Y-97155714D01*
X154710952Y-97155714D01*
X154520476Y-97108095D01*
X154425238Y-97060476D01*
X154330000Y-96965238D01*
X154282380Y-96822380D01*
X154282380Y-96727142D01*
X154330000Y-96584285D01*
X154377619Y-96536666D01*
X155282380Y-95584285D02*
X155282380Y-96155714D01*
X155282380Y-95870000D02*
X154282380Y-95870000D01*
X154425238Y-95965238D01*
X154520476Y-96060476D01*
X154568095Y-96155714D01*
%TO.C,R1*%
X131542380Y-98916666D02*
X131066190Y-99250000D01*
X131542380Y-99488095D02*
X130542380Y-99488095D01*
X130542380Y-99107142D01*
X130590000Y-99011904D01*
X130637619Y-98964285D01*
X130732857Y-98916666D01*
X130875714Y-98916666D01*
X130970952Y-98964285D01*
X131018571Y-99011904D01*
X131066190Y-99107142D01*
X131066190Y-99488095D01*
X131542380Y-97964285D02*
X131542380Y-98535714D01*
X131542380Y-98250000D02*
X130542380Y-98250000D01*
X130685238Y-98345238D01*
X130780476Y-98440476D01*
X130828095Y-98535714D01*
%TO.C,R4*%
X140342380Y-96446666D02*
X139866190Y-96780000D01*
X140342380Y-97018095D02*
X139342380Y-97018095D01*
X139342380Y-96637142D01*
X139390000Y-96541904D01*
X139437619Y-96494285D01*
X139532857Y-96446666D01*
X139675714Y-96446666D01*
X139770952Y-96494285D01*
X139818571Y-96541904D01*
X139866190Y-96637142D01*
X139866190Y-97018095D01*
X139675714Y-95589523D02*
X140342380Y-95589523D01*
X139294761Y-95827619D02*
X140009047Y-96065714D01*
X140009047Y-95446666D01*
%TO.C,D3*%
X133992380Y-110738095D02*
X132992380Y-110738095D01*
X132992380Y-110500000D01*
X133040000Y-110357142D01*
X133135238Y-110261904D01*
X133230476Y-110214285D01*
X133420952Y-110166666D01*
X133563809Y-110166666D01*
X133754285Y-110214285D01*
X133849523Y-110261904D01*
X133944761Y-110357142D01*
X133992380Y-110500000D01*
X133992380Y-110738095D01*
X132992380Y-109833333D02*
X132992380Y-109214285D01*
X133373333Y-109547619D01*
X133373333Y-109404761D01*
X133420952Y-109309523D01*
X133468571Y-109261904D01*
X133563809Y-109214285D01*
X133801904Y-109214285D01*
X133897142Y-109261904D01*
X133944761Y-109309523D01*
X133992380Y-109404761D01*
X133992380Y-109690476D01*
X133944761Y-109785714D01*
X133897142Y-109833333D01*
%TO.C,J1*%
X122226666Y-109342380D02*
X122226666Y-110056666D01*
X122179047Y-110199523D01*
X122083809Y-110294761D01*
X121940952Y-110342380D01*
X121845714Y-110342380D01*
X123226666Y-110342380D02*
X122655238Y-110342380D01*
X122940952Y-110342380D02*
X122940952Y-109342380D01*
X122845714Y-109485238D01*
X122750476Y-109580476D01*
X122655238Y-109628095D01*
%TO.C,U1*%
X139142380Y-103731904D02*
X139951904Y-103731904D01*
X140047142Y-103684285D01*
X140094761Y-103636666D01*
X140142380Y-103541428D01*
X140142380Y-103350952D01*
X140094761Y-103255714D01*
X140047142Y-103208095D01*
X139951904Y-103160476D01*
X139142380Y-103160476D01*
X140142380Y-102160476D02*
X140142380Y-102731904D01*
X140142380Y-102446190D02*
X139142380Y-102446190D01*
X139285238Y-102541428D01*
X139380476Y-102636666D01*
X139428095Y-102731904D01*
%TO.C,R3*%
X140393333Y-91487380D02*
X140060000Y-91011190D01*
X139821904Y-91487380D02*
X139821904Y-90487380D01*
X140202857Y-90487380D01*
X140298095Y-90535000D01*
X140345714Y-90582619D01*
X140393333Y-90677857D01*
X140393333Y-90820714D01*
X140345714Y-90915952D01*
X140298095Y-90963571D01*
X140202857Y-91011190D01*
X139821904Y-91011190D01*
X140726666Y-90487380D02*
X141345714Y-90487380D01*
X141012380Y-90868333D01*
X141155238Y-90868333D01*
X141250476Y-90915952D01*
X141298095Y-90963571D01*
X141345714Y-91058809D01*
X141345714Y-91296904D01*
X141298095Y-91392142D01*
X141250476Y-91439761D01*
X141155238Y-91487380D01*
X140869523Y-91487380D01*
X140774285Y-91439761D01*
X140726666Y-91392142D01*
%TO.C,D1*%
X129452380Y-110678095D02*
X128452380Y-110678095D01*
X128452380Y-110440000D01*
X128500000Y-110297142D01*
X128595238Y-110201904D01*
X128690476Y-110154285D01*
X128880952Y-110106666D01*
X129023809Y-110106666D01*
X129214285Y-110154285D01*
X129309523Y-110201904D01*
X129404761Y-110297142D01*
X129452380Y-110440000D01*
X129452380Y-110678095D01*
X129452380Y-109154285D02*
X129452380Y-109725714D01*
X129452380Y-109440000D02*
X128452380Y-109440000D01*
X128595238Y-109535238D01*
X128690476Y-109630476D01*
X128738095Y-109725714D01*
%TO.C,C2*%
X147790734Y-88822142D02*
X147743115Y-88869761D01*
X147600258Y-88917380D01*
X147505020Y-88917380D01*
X147362162Y-88869761D01*
X147266924Y-88774523D01*
X147219305Y-88679285D01*
X147171686Y-88488809D01*
X147171686Y-88345952D01*
X147219305Y-88155476D01*
X147266924Y-88060238D01*
X147362162Y-87965000D01*
X147505020Y-87917380D01*
X147600258Y-87917380D01*
X147743115Y-87965000D01*
X147790734Y-88012619D01*
X148171686Y-88012619D02*
X148219305Y-87965000D01*
X148314543Y-87917380D01*
X148552639Y-87917380D01*
X148647877Y-87965000D01*
X148695496Y-88012619D01*
X148743115Y-88107857D01*
X148743115Y-88203095D01*
X148695496Y-88345952D01*
X148124067Y-88917380D01*
X148743115Y-88917380D01*
%TO.C,R5*%
X136052380Y-98946666D02*
X135576190Y-99280000D01*
X136052380Y-99518095D02*
X135052380Y-99518095D01*
X135052380Y-99137142D01*
X135100000Y-99041904D01*
X135147619Y-98994285D01*
X135242857Y-98946666D01*
X135385714Y-98946666D01*
X135480952Y-98994285D01*
X135528571Y-99041904D01*
X135576190Y-99137142D01*
X135576190Y-99518095D01*
X135052380Y-98041904D02*
X135052380Y-98518095D01*
X135528571Y-98565714D01*
X135480952Y-98518095D01*
X135433333Y-98422857D01*
X135433333Y-98184761D01*
X135480952Y-98089523D01*
X135528571Y-98041904D01*
X135623809Y-97994285D01*
X135861904Y-97994285D01*
X135957142Y-98041904D01*
X136004761Y-98089523D01*
X136052380Y-98184761D01*
X136052380Y-98422857D01*
X136004761Y-98518095D01*
X135957142Y-98565714D01*
%TO.C,D2*%
X138592380Y-110738095D02*
X137592380Y-110738095D01*
X137592380Y-110500000D01*
X137640000Y-110357142D01*
X137735238Y-110261904D01*
X137830476Y-110214285D01*
X138020952Y-110166666D01*
X138163809Y-110166666D01*
X138354285Y-110214285D01*
X138449523Y-110261904D01*
X138544761Y-110357142D01*
X138592380Y-110500000D01*
X138592380Y-110738095D01*
X137687619Y-109785714D02*
X137640000Y-109738095D01*
X137592380Y-109642857D01*
X137592380Y-109404761D01*
X137640000Y-109309523D01*
X137687619Y-109261904D01*
X137782857Y-109214285D01*
X137878095Y-109214285D01*
X138020952Y-109261904D01*
X138592380Y-109833333D01*
X138592380Y-109214285D01*
%TO.C,R2*%
X145503333Y-110582380D02*
X145170000Y-110106190D01*
X144931904Y-110582380D02*
X144931904Y-109582380D01*
X145312857Y-109582380D01*
X145408095Y-109630000D01*
X145455714Y-109677619D01*
X145503333Y-109772857D01*
X145503333Y-109915714D01*
X145455714Y-110010952D01*
X145408095Y-110058571D01*
X145312857Y-110106190D01*
X144931904Y-110106190D01*
X145884285Y-109677619D02*
X145931904Y-109630000D01*
X146027142Y-109582380D01*
X146265238Y-109582380D01*
X146360476Y-109630000D01*
X146408095Y-109677619D01*
X146455714Y-109772857D01*
X146455714Y-109868095D01*
X146408095Y-110010952D01*
X145836666Y-110582380D01*
X146455714Y-110582380D01*
%TO.C,REF\u002A\u002A*%
G36*
X160259926Y-95639755D02*
G01*
X160325858Y-95664084D01*
X160379273Y-95707117D01*
X160400164Y-95737409D01*
X160422939Y-95792994D01*
X160422466Y-95833186D01*
X160398562Y-95860217D01*
X160389717Y-95864813D01*
X160351530Y-95879144D01*
X160332028Y-95875472D01*
X160325422Y-95851407D01*
X160325086Y-95838114D01*
X160312992Y-95789210D01*
X160281471Y-95754999D01*
X160237659Y-95738476D01*
X160188695Y-95742634D01*
X160148894Y-95764227D01*
X160135450Y-95776544D01*
X160125921Y-95791487D01*
X160119485Y-95814075D01*
X160115317Y-95849328D01*
X160112597Y-95902266D01*
X160110502Y-95977907D01*
X160109960Y-96001857D01*
X160107981Y-96083790D01*
X160105731Y-96141455D01*
X160102357Y-96179608D01*
X160097006Y-96203004D01*
X160088824Y-96216398D01*
X160076959Y-96224545D01*
X160069362Y-96228144D01*
X160037102Y-96240452D01*
X160018111Y-96244514D01*
X160011836Y-96230948D01*
X160008006Y-96189934D01*
X160006600Y-96120999D01*
X160007598Y-96023669D01*
X160007908Y-96008657D01*
X160010101Y-95919859D01*
X160012693Y-95855019D01*
X160016382Y-95809067D01*
X160021864Y-95776935D01*
X160029835Y-95753553D01*
X160040993Y-95733852D01*
X160046830Y-95725410D01*
X160080296Y-95688057D01*
X160117727Y-95659003D01*
X160122309Y-95656467D01*
X160189426Y-95636443D01*
X160259926Y-95639755D01*
G37*
D11*
X160259926Y-95639755D02*
X160325858Y-95664084D01*
X160379273Y-95707117D01*
X160400164Y-95737409D01*
X160422939Y-95792994D01*
X160422466Y-95833186D01*
X160398562Y-95860217D01*
X160389717Y-95864813D01*
X160351530Y-95879144D01*
X160332028Y-95875472D01*
X160325422Y-95851407D01*
X160325086Y-95838114D01*
X160312992Y-95789210D01*
X160281471Y-95754999D01*
X160237659Y-95738476D01*
X160188695Y-95742634D01*
X160148894Y-95764227D01*
X160135450Y-95776544D01*
X160125921Y-95791487D01*
X160119485Y-95814075D01*
X160115317Y-95849328D01*
X160112597Y-95902266D01*
X160110502Y-95977907D01*
X160109960Y-96001857D01*
X160107981Y-96083790D01*
X160105731Y-96141455D01*
X160102357Y-96179608D01*
X160097006Y-96203004D01*
X160088824Y-96216398D01*
X160076959Y-96224545D01*
X160069362Y-96228144D01*
X160037102Y-96240452D01*
X160018111Y-96244514D01*
X160011836Y-96230948D01*
X160008006Y-96189934D01*
X160006600Y-96120999D01*
X160007598Y-96023669D01*
X160007908Y-96008657D01*
X160010101Y-95919859D01*
X160012693Y-95855019D01*
X160016382Y-95809067D01*
X160021864Y-95776935D01*
X160029835Y-95753553D01*
X160040993Y-95733852D01*
X160046830Y-95725410D01*
X160080296Y-95688057D01*
X160117727Y-95659003D01*
X160122309Y-95656467D01*
X160189426Y-95636443D01*
X160259926Y-95639755D01*
G36*
X156467096Y-95798159D02*
G01*
X156472068Y-95761949D01*
X156480713Y-95735299D01*
X156494005Y-95711722D01*
X156496943Y-95707338D01*
X156546313Y-95648249D01*
X156600109Y-95613947D01*
X156665602Y-95600331D01*
X156687842Y-95599665D01*
X156771115Y-95611962D01*
X156839145Y-95647733D01*
X156889351Y-95705301D01*
X156907185Y-95742312D01*
X156921063Y-95797882D01*
X156928167Y-95868096D01*
X156928840Y-95944727D01*
X156923427Y-96019552D01*
X156912270Y-96084342D01*
X156895714Y-96130873D01*
X156890626Y-96138887D01*
X156830355Y-96198707D01*
X156758769Y-96234535D01*
X156681092Y-96245020D01*
X156602548Y-96228810D01*
X156580689Y-96219092D01*
X156538122Y-96189143D01*
X156500763Y-96149433D01*
X156497232Y-96144397D01*
X156482881Y-96120124D01*
X156473394Y-96094178D01*
X156467790Y-96060022D01*
X156465086Y-96011119D01*
X156464299Y-95940935D01*
X156464286Y-95925200D01*
X156464322Y-95920192D01*
X156609429Y-95920192D01*
X156610273Y-95986430D01*
X156613596Y-96030386D01*
X156620583Y-96058779D01*
X156632416Y-96078325D01*
X156638457Y-96084857D01*
X156673186Y-96109680D01*
X156706903Y-96108548D01*
X156740995Y-96087016D01*
X156761329Y-96064029D01*
X156773371Y-96030478D01*
X156780134Y-95977569D01*
X156780598Y-95971399D01*
X156781752Y-95875513D01*
X156769688Y-95804299D01*
X156744570Y-95758194D01*
X156706560Y-95737635D01*
X156692992Y-95736514D01*
X156657364Y-95742152D01*
X156632994Y-95761686D01*
X156618093Y-95799042D01*
X156610875Y-95858150D01*
X156609429Y-95920192D01*
X156464322Y-95920192D01*
X156464826Y-95850413D01*
X156467096Y-95798159D01*
G37*
X156467096Y-95798159D02*
X156472068Y-95761949D01*
X156480713Y-95735299D01*
X156494005Y-95711722D01*
X156496943Y-95707338D01*
X156546313Y-95648249D01*
X156600109Y-95613947D01*
X156665602Y-95600331D01*
X156687842Y-95599665D01*
X156771115Y-95611962D01*
X156839145Y-95647733D01*
X156889351Y-95705301D01*
X156907185Y-95742312D01*
X156921063Y-95797882D01*
X156928167Y-95868096D01*
X156928840Y-95944727D01*
X156923427Y-96019552D01*
X156912270Y-96084342D01*
X156895714Y-96130873D01*
X156890626Y-96138887D01*
X156830355Y-96198707D01*
X156758769Y-96234535D01*
X156681092Y-96245020D01*
X156602548Y-96228810D01*
X156580689Y-96219092D01*
X156538122Y-96189143D01*
X156500763Y-96149433D01*
X156497232Y-96144397D01*
X156482881Y-96120124D01*
X156473394Y-96094178D01*
X156467790Y-96060022D01*
X156465086Y-96011119D01*
X156464299Y-95940935D01*
X156464286Y-95925200D01*
X156464322Y-95920192D01*
X156609429Y-95920192D01*
X156610273Y-95986430D01*
X156613596Y-96030386D01*
X156620583Y-96058779D01*
X156632416Y-96078325D01*
X156638457Y-96084857D01*
X156673186Y-96109680D01*
X156706903Y-96108548D01*
X156740995Y-96087016D01*
X156761329Y-96064029D01*
X156773371Y-96030478D01*
X156780134Y-95977569D01*
X156780598Y-95971399D01*
X156781752Y-95875513D01*
X156769688Y-95804299D01*
X156744570Y-95758194D01*
X156706560Y-95737635D01*
X156692992Y-95736514D01*
X156657364Y-95742152D01*
X156632994Y-95761686D01*
X156618093Y-95799042D01*
X156610875Y-95858150D01*
X156609429Y-95920192D01*
X156464322Y-95920192D01*
X156464826Y-95850413D01*
X156467096Y-95798159D01*
G36*
X160514726Y-95780086D02*
G01*
X160537135Y-95728600D01*
X160572124Y-95688443D01*
X160599375Y-95667861D01*
X160648907Y-95645625D01*
X160706316Y-95635304D01*
X160759682Y-95638067D01*
X160789543Y-95649212D01*
X160801261Y-95652383D01*
X160809037Y-95640557D01*
X160814465Y-95608866D01*
X160818571Y-95560593D01*
X160823067Y-95506829D01*
X160829313Y-95474482D01*
X160840676Y-95455985D01*
X160860528Y-95443770D01*
X160873000Y-95438362D01*
X160920171Y-95418601D01*
X160920117Y-95755358D01*
X160919933Y-95863837D01*
X160919219Y-95947287D01*
X160917675Y-96009704D01*
X160915001Y-96055085D01*
X160910894Y-96087429D01*
X160905055Y-96110733D01*
X160897182Y-96128995D01*
X160891221Y-96139418D01*
X160841855Y-96195945D01*
X160779264Y-96231377D01*
X160710013Y-96244090D01*
X160640668Y-96232463D01*
X160599375Y-96211568D01*
X160556025Y-96175422D01*
X160526481Y-96131276D01*
X160508655Y-96073462D01*
X160500463Y-95996313D01*
X160499302Y-95939714D01*
X160499458Y-95935647D01*
X160600857Y-95935647D01*
X160601476Y-96000550D01*
X160604314Y-96043514D01*
X160610840Y-96071622D01*
X160622523Y-96091953D01*
X160636483Y-96107288D01*
X160683365Y-96136890D01*
X160733701Y-96139419D01*
X160781276Y-96114705D01*
X160784979Y-96111356D01*
X160800783Y-96093935D01*
X160810693Y-96073209D01*
X160816058Y-96042362D01*
X160818228Y-95994577D01*
X160818571Y-95941748D01*
X160817827Y-95875381D01*
X160814748Y-95831106D01*
X160808061Y-95802009D01*
X160796496Y-95781173D01*
X160787013Y-95770107D01*
X160742960Y-95742198D01*
X160692224Y-95738843D01*
X160643796Y-95760159D01*
X160634450Y-95768073D01*
X160618540Y-95785647D01*
X160608610Y-95806587D01*
X160603278Y-95837782D01*
X160601163Y-95886122D01*
X160600857Y-95935647D01*
X160499458Y-95935647D01*
X160502810Y-95848568D01*
X160514726Y-95780086D01*
G37*
X160514726Y-95780086D02*
X160537135Y-95728600D01*
X160572124Y-95688443D01*
X160599375Y-95667861D01*
X160648907Y-95645625D01*
X160706316Y-95635304D01*
X160759682Y-95638067D01*
X160789543Y-95649212D01*
X160801261Y-95652383D01*
X160809037Y-95640557D01*
X160814465Y-95608866D01*
X160818571Y-95560593D01*
X160823067Y-95506829D01*
X160829313Y-95474482D01*
X160840676Y-95455985D01*
X160860528Y-95443770D01*
X160873000Y-95438362D01*
X160920171Y-95418601D01*
X160920117Y-95755358D01*
X160919933Y-95863837D01*
X160919219Y-95947287D01*
X160917675Y-96009704D01*
X160915001Y-96055085D01*
X160910894Y-96087429D01*
X160905055Y-96110733D01*
X160897182Y-96128995D01*
X160891221Y-96139418D01*
X160841855Y-96195945D01*
X160779264Y-96231377D01*
X160710013Y-96244090D01*
X160640668Y-96232463D01*
X160599375Y-96211568D01*
X160556025Y-96175422D01*
X160526481Y-96131276D01*
X160508655Y-96073462D01*
X160500463Y-95996313D01*
X160499302Y-95939714D01*
X160499458Y-95935647D01*
X160600857Y-95935647D01*
X160601476Y-96000550D01*
X160604314Y-96043514D01*
X160610840Y-96071622D01*
X160622523Y-96091953D01*
X160636483Y-96107288D01*
X160683365Y-96136890D01*
X160733701Y-96139419D01*
X160781276Y-96114705D01*
X160784979Y-96111356D01*
X160800783Y-96093935D01*
X160810693Y-96073209D01*
X160816058Y-96042362D01*
X160818228Y-95994577D01*
X160818571Y-95941748D01*
X160817827Y-95875381D01*
X160814748Y-95831106D01*
X160808061Y-95802009D01*
X160796496Y-95781173D01*
X160787013Y-95770107D01*
X160742960Y-95742198D01*
X160692224Y-95738843D01*
X160643796Y-95760159D01*
X160634450Y-95768073D01*
X160618540Y-95785647D01*
X160608610Y-95806587D01*
X160603278Y-95837782D01*
X160601163Y-95886122D01*
X160600857Y-95935647D01*
X160499458Y-95935647D01*
X160502810Y-95848568D01*
X160514726Y-95780086D01*
G36*
X159769744Y-95640968D02*
G01*
X159826616Y-95662087D01*
X159827267Y-95662493D01*
X159862440Y-95688380D01*
X159888407Y-95718633D01*
X159906670Y-95758058D01*
X159918732Y-95811462D01*
X159926096Y-95883651D01*
X159930264Y-95979432D01*
X159930629Y-95993078D01*
X159935876Y-96198842D01*
X159891716Y-96221678D01*
X159859763Y-96237110D01*
X159840470Y-96244423D01*
X159839578Y-96244514D01*
X159836239Y-96231022D01*
X159833587Y-96194626D01*
X159831956Y-96141452D01*
X159831600Y-96098393D01*
X159831592Y-96028641D01*
X159828403Y-95984837D01*
X159817288Y-95963944D01*
X159793501Y-95962925D01*
X159752296Y-95978741D01*
X159690086Y-96007815D01*
X159644341Y-96031963D01*
X159620813Y-96052913D01*
X159613896Y-96075747D01*
X159613886Y-96076877D01*
X159625299Y-96116212D01*
X159659092Y-96137462D01*
X159710809Y-96140539D01*
X159748061Y-96140006D01*
X159767703Y-96150735D01*
X159779952Y-96176505D01*
X159787002Y-96209337D01*
X159776842Y-96227966D01*
X159773017Y-96230632D01*
X159737001Y-96241340D01*
X159686566Y-96242856D01*
X159634626Y-96235759D01*
X159597822Y-96222788D01*
X159546938Y-96179585D01*
X159518014Y-96119446D01*
X159512286Y-96072462D01*
X159516657Y-96030082D01*
X159532475Y-95995488D01*
X159563797Y-95964763D01*
X159614678Y-95933990D01*
X159689176Y-95899252D01*
X159693714Y-95897288D01*
X159760821Y-95866287D01*
X159802232Y-95840862D01*
X159819981Y-95818014D01*
X159816107Y-95794745D01*
X159792643Y-95768056D01*
X159785627Y-95761914D01*
X159738630Y-95738100D01*
X159689933Y-95739103D01*
X159647522Y-95762451D01*
X159619384Y-95805675D01*
X159616769Y-95814160D01*
X159591308Y-95855308D01*
X159559001Y-95875128D01*
X159512286Y-95894770D01*
X159512286Y-95843950D01*
X159526496Y-95770082D01*
X159568675Y-95702327D01*
X159590624Y-95679661D01*
X159640517Y-95650569D01*
X159703967Y-95637400D01*
X159769744Y-95640968D01*
G37*
X159769744Y-95640968D02*
X159826616Y-95662087D01*
X159827267Y-95662493D01*
X159862440Y-95688380D01*
X159888407Y-95718633D01*
X159906670Y-95758058D01*
X159918732Y-95811462D01*
X159926096Y-95883651D01*
X159930264Y-95979432D01*
X159930629Y-95993078D01*
X159935876Y-96198842D01*
X159891716Y-96221678D01*
X159859763Y-96237110D01*
X159840470Y-96244423D01*
X159839578Y-96244514D01*
X159836239Y-96231022D01*
X159833587Y-96194626D01*
X159831956Y-96141452D01*
X159831600Y-96098393D01*
X159831592Y-96028641D01*
X159828403Y-95984837D01*
X159817288Y-95963944D01*
X159793501Y-95962925D01*
X159752296Y-95978741D01*
X159690086Y-96007815D01*
X159644341Y-96031963D01*
X159620813Y-96052913D01*
X159613896Y-96075747D01*
X159613886Y-96076877D01*
X159625299Y-96116212D01*
X159659092Y-96137462D01*
X159710809Y-96140539D01*
X159748061Y-96140006D01*
X159767703Y-96150735D01*
X159779952Y-96176505D01*
X159787002Y-96209337D01*
X159776842Y-96227966D01*
X159773017Y-96230632D01*
X159737001Y-96241340D01*
X159686566Y-96242856D01*
X159634626Y-96235759D01*
X159597822Y-96222788D01*
X159546938Y-96179585D01*
X159518014Y-96119446D01*
X159512286Y-96072462D01*
X159516657Y-96030082D01*
X159532475Y-95995488D01*
X159563797Y-95964763D01*
X159614678Y-95933990D01*
X159689176Y-95899252D01*
X159693714Y-95897288D01*
X159760821Y-95866287D01*
X159802232Y-95840862D01*
X159819981Y-95818014D01*
X159816107Y-95794745D01*
X159792643Y-95768056D01*
X159785627Y-95761914D01*
X159738630Y-95738100D01*
X159689933Y-95739103D01*
X159647522Y-95762451D01*
X159619384Y-95805675D01*
X159616769Y-95814160D01*
X159591308Y-95855308D01*
X159559001Y-95875128D01*
X159512286Y-95894770D01*
X159512286Y-95843950D01*
X159526496Y-95770082D01*
X159568675Y-95702327D01*
X159590624Y-95679661D01*
X159640517Y-95650569D01*
X159703967Y-95637400D01*
X159769744Y-95640968D01*
G36*
X157601550Y-95726212D02*
G01*
X157635456Y-95677302D01*
X157696653Y-95627878D01*
X157764063Y-95603359D01*
X157832880Y-95601797D01*
X157898303Y-95621239D01*
X157955527Y-95659735D01*
X157999749Y-95715335D01*
X158026167Y-95786086D01*
X158031510Y-95838162D01*
X158030903Y-95859893D01*
X158025822Y-95876531D01*
X158011855Y-95891437D01*
X157984589Y-95907973D01*
X157939612Y-95929498D01*
X157872511Y-95959374D01*
X157872171Y-95959524D01*
X157810407Y-95987813D01*
X157759759Y-96012933D01*
X157725404Y-96032179D01*
X157712518Y-96042848D01*
X157712514Y-96042934D01*
X157723872Y-96066166D01*
X157750431Y-96091774D01*
X157780923Y-96110221D01*
X157796370Y-96113886D01*
X157838515Y-96101212D01*
X157874808Y-96069471D01*
X157892517Y-96034572D01*
X157909552Y-96008845D01*
X157942922Y-95979546D01*
X157982149Y-95954235D01*
X158016756Y-95940471D01*
X158023993Y-95939714D01*
X158032139Y-95952160D01*
X158032630Y-95983972D01*
X158026643Y-96026866D01*
X158015357Y-96072558D01*
X157999950Y-96112761D01*
X157999171Y-96114322D01*
X157952804Y-96179062D01*
X157892711Y-96223097D01*
X157824465Y-96244711D01*
X157753638Y-96242185D01*
X157685804Y-96213804D01*
X157682788Y-96211808D01*
X157629427Y-96163448D01*
X157594340Y-96100352D01*
X157574922Y-96017387D01*
X157572316Y-95994078D01*
X157567701Y-95884055D01*
X157573233Y-95832748D01*
X157712514Y-95832748D01*
X157714324Y-95864753D01*
X157724222Y-95874093D01*
X157748898Y-95867105D01*
X157787795Y-95850587D01*
X157831275Y-95829881D01*
X157832356Y-95829333D01*
X157869209Y-95809949D01*
X157884000Y-95797013D01*
X157880353Y-95783451D01*
X157864995Y-95765632D01*
X157825923Y-95739845D01*
X157783846Y-95737950D01*
X157746103Y-95756717D01*
X157720034Y-95792915D01*
X157712514Y-95832748D01*
X157573233Y-95832748D01*
X157577194Y-95796027D01*
X157601550Y-95726212D01*
G37*
X157601550Y-95726212D02*
X157635456Y-95677302D01*
X157696653Y-95627878D01*
X157764063Y-95603359D01*
X157832880Y-95601797D01*
X157898303Y-95621239D01*
X157955527Y-95659735D01*
X157999749Y-95715335D01*
X158026167Y-95786086D01*
X158031510Y-95838162D01*
X158030903Y-95859893D01*
X158025822Y-95876531D01*
X158011855Y-95891437D01*
X157984589Y-95907973D01*
X157939612Y-95929498D01*
X157872511Y-95959374D01*
X157872171Y-95959524D01*
X157810407Y-95987813D01*
X157759759Y-96012933D01*
X157725404Y-96032179D01*
X157712518Y-96042848D01*
X157712514Y-96042934D01*
X157723872Y-96066166D01*
X157750431Y-96091774D01*
X157780923Y-96110221D01*
X157796370Y-96113886D01*
X157838515Y-96101212D01*
X157874808Y-96069471D01*
X157892517Y-96034572D01*
X157909552Y-96008845D01*
X157942922Y-95979546D01*
X157982149Y-95954235D01*
X158016756Y-95940471D01*
X158023993Y-95939714D01*
X158032139Y-95952160D01*
X158032630Y-95983972D01*
X158026643Y-96026866D01*
X158015357Y-96072558D01*
X157999950Y-96112761D01*
X157999171Y-96114322D01*
X157952804Y-96179062D01*
X157892711Y-96223097D01*
X157824465Y-96244711D01*
X157753638Y-96242185D01*
X157685804Y-96213804D01*
X157682788Y-96211808D01*
X157629427Y-96163448D01*
X157594340Y-96100352D01*
X157574922Y-96017387D01*
X157572316Y-95994078D01*
X157567701Y-95884055D01*
X157573233Y-95832748D01*
X157712514Y-95832748D01*
X157714324Y-95864753D01*
X157724222Y-95874093D01*
X157748898Y-95867105D01*
X157787795Y-95850587D01*
X157831275Y-95829881D01*
X157832356Y-95829333D01*
X157869209Y-95809949D01*
X157884000Y-95797013D01*
X157880353Y-95783451D01*
X157864995Y-95765632D01*
X157825923Y-95739845D01*
X157783846Y-95737950D01*
X157746103Y-95756717D01*
X157720034Y-95792915D01*
X157712514Y-95832748D01*
X157573233Y-95832748D01*
X157577194Y-95796027D01*
X157601550Y-95726212D01*
G36*
X159105886Y-95541289D02*
G01*
X159110139Y-95600613D01*
X159115025Y-95635572D01*
X159121795Y-95650820D01*
X159131702Y-95651015D01*
X159134914Y-95649195D01*
X159177644Y-95636015D01*
X159233227Y-95636785D01*
X159289737Y-95650333D01*
X159325082Y-95667861D01*
X159361321Y-95695861D01*
X159387813Y-95727549D01*
X159405999Y-95767813D01*
X159417322Y-95821543D01*
X159423222Y-95893626D01*
X159425143Y-95988951D01*
X159425177Y-96007237D01*
X159425200Y-96212646D01*
X159379491Y-96228580D01*
X159347027Y-96239420D01*
X159329215Y-96244468D01*
X159328691Y-96244514D01*
X159326937Y-96230828D01*
X159325444Y-96193076D01*
X159324326Y-96136224D01*
X159323697Y-96065234D01*
X159323600Y-96022073D01*
X159323398Y-95936973D01*
X159322358Y-95875981D01*
X159319831Y-95834177D01*
X159315164Y-95806642D01*
X159307707Y-95788456D01*
X159296811Y-95774698D01*
X159290007Y-95768073D01*
X159243272Y-95741375D01*
X159192272Y-95739375D01*
X159146001Y-95761955D01*
X159137444Y-95770107D01*
X159124893Y-95785436D01*
X159116188Y-95803618D01*
X159110631Y-95829909D01*
X159107526Y-95869562D01*
X159106176Y-95927832D01*
X159105886Y-96008173D01*
X159105886Y-96212646D01*
X159060177Y-96228580D01*
X159027713Y-96239420D01*
X159009901Y-96244468D01*
X159009377Y-96244514D01*
X159008037Y-96230623D01*
X159006828Y-96191439D01*
X159005801Y-96130700D01*
X159005002Y-96052141D01*
X159004481Y-95959498D01*
X159004286Y-95856509D01*
X159004286Y-95459342D01*
X159051457Y-95439444D01*
X159098629Y-95419547D01*
X159105886Y-95541289D01*
G37*
X159105886Y-95541289D02*
X159110139Y-95600613D01*
X159115025Y-95635572D01*
X159121795Y-95650820D01*
X159131702Y-95651015D01*
X159134914Y-95649195D01*
X159177644Y-95636015D01*
X159233227Y-95636785D01*
X159289737Y-95650333D01*
X159325082Y-95667861D01*
X159361321Y-95695861D01*
X159387813Y-95727549D01*
X159405999Y-95767813D01*
X159417322Y-95821543D01*
X159423222Y-95893626D01*
X159425143Y-95988951D01*
X159425177Y-96007237D01*
X159425200Y-96212646D01*
X159379491Y-96228580D01*
X159347027Y-96239420D01*
X159329215Y-96244468D01*
X159328691Y-96244514D01*
X159326937Y-96230828D01*
X159325444Y-96193076D01*
X159324326Y-96136224D01*
X159323697Y-96065234D01*
X159323600Y-96022073D01*
X159323398Y-95936973D01*
X159322358Y-95875981D01*
X159319831Y-95834177D01*
X159315164Y-95806642D01*
X159307707Y-95788456D01*
X159296811Y-95774698D01*
X159290007Y-95768073D01*
X159243272Y-95741375D01*
X159192272Y-95739375D01*
X159146001Y-95761955D01*
X159137444Y-95770107D01*
X159124893Y-95785436D01*
X159116188Y-95803618D01*
X159110631Y-95829909D01*
X159107526Y-95869562D01*
X159106176Y-95927832D01*
X159105886Y-96008173D01*
X159105886Y-96212646D01*
X159060177Y-96228580D01*
X159027713Y-96239420D01*
X159009901Y-96244468D01*
X159009377Y-96244514D01*
X159008037Y-96230623D01*
X159006828Y-96191439D01*
X159005801Y-96130700D01*
X159005002Y-96052141D01*
X159004481Y-95959498D01*
X159004286Y-95856509D01*
X159004286Y-95459342D01*
X159051457Y-95439444D01*
X159098629Y-95419547D01*
X159105886Y-95541289D01*
G36*
X161874876Y-95646335D02*
G01*
X161916667Y-95665344D01*
X161949469Y-95688378D01*
X161973503Y-95714133D01*
X161990097Y-95747358D01*
X162000577Y-95792800D01*
X162006271Y-95855207D01*
X162008507Y-95939327D01*
X162008743Y-95994721D01*
X162008743Y-96210826D01*
X161971774Y-96227670D01*
X161942656Y-96239981D01*
X161928231Y-96244514D01*
X161925472Y-96231025D01*
X161923282Y-96194653D01*
X161921942Y-96141542D01*
X161921657Y-96099372D01*
X161920434Y-96038447D01*
X161917136Y-95990115D01*
X161912321Y-95960518D01*
X161908496Y-95954229D01*
X161882783Y-95960652D01*
X161842418Y-95977125D01*
X161795679Y-95999458D01*
X161750845Y-96023457D01*
X161716193Y-96044930D01*
X161700002Y-96059685D01*
X161699938Y-96059845D01*
X161701330Y-96087152D01*
X161713818Y-96113219D01*
X161735743Y-96134392D01*
X161767743Y-96141474D01*
X161795092Y-96140649D01*
X161833826Y-96140042D01*
X161854158Y-96149116D01*
X161866369Y-96173092D01*
X161867909Y-96177613D01*
X161873203Y-96211806D01*
X161859047Y-96232568D01*
X161822148Y-96242462D01*
X161782289Y-96244292D01*
X161710562Y-96230727D01*
X161673432Y-96211355D01*
X161627576Y-96165845D01*
X161603256Y-96109983D01*
X161601073Y-96050957D01*
X161621629Y-95995953D01*
X161652549Y-95961486D01*
X161683420Y-95942189D01*
X161731942Y-95917759D01*
X161788485Y-95892985D01*
X161797910Y-95889199D01*
X161860019Y-95861791D01*
X161895822Y-95837634D01*
X161907337Y-95813619D01*
X161896580Y-95786635D01*
X161878114Y-95765543D01*
X161834469Y-95739572D01*
X161786446Y-95737624D01*
X161742406Y-95757637D01*
X161710709Y-95797551D01*
X161706549Y-95807848D01*
X161682327Y-95845724D01*
X161646965Y-95873842D01*
X161602343Y-95896917D01*
X161602343Y-95831485D01*
X161604969Y-95791506D01*
X161616230Y-95759997D01*
X161641199Y-95726378D01*
X161665169Y-95700484D01*
X161702441Y-95663817D01*
X161731401Y-95644121D01*
X161762505Y-95636220D01*
X161797713Y-95634914D01*
X161874876Y-95646335D01*
G37*
X161874876Y-95646335D02*
X161916667Y-95665344D01*
X161949469Y-95688378D01*
X161973503Y-95714133D01*
X161990097Y-95747358D01*
X162000577Y-95792800D01*
X162006271Y-95855207D01*
X162008507Y-95939327D01*
X162008743Y-95994721D01*
X162008743Y-96210826D01*
X161971774Y-96227670D01*
X161942656Y-96239981D01*
X161928231Y-96244514D01*
X161925472Y-96231025D01*
X161923282Y-96194653D01*
X161921942Y-96141542D01*
X161921657Y-96099372D01*
X161920434Y-96038447D01*
X161917136Y-95990115D01*
X161912321Y-95960518D01*
X161908496Y-95954229D01*
X161882783Y-95960652D01*
X161842418Y-95977125D01*
X161795679Y-95999458D01*
X161750845Y-96023457D01*
X161716193Y-96044930D01*
X161700002Y-96059685D01*
X161699938Y-96059845D01*
X161701330Y-96087152D01*
X161713818Y-96113219D01*
X161735743Y-96134392D01*
X161767743Y-96141474D01*
X161795092Y-96140649D01*
X161833826Y-96140042D01*
X161854158Y-96149116D01*
X161866369Y-96173092D01*
X161867909Y-96177613D01*
X161873203Y-96211806D01*
X161859047Y-96232568D01*
X161822148Y-96242462D01*
X161782289Y-96244292D01*
X161710562Y-96230727D01*
X161673432Y-96211355D01*
X161627576Y-96165845D01*
X161603256Y-96109983D01*
X161601073Y-96050957D01*
X161621629Y-95995953D01*
X161652549Y-95961486D01*
X161683420Y-95942189D01*
X161731942Y-95917759D01*
X161788485Y-95892985D01*
X161797910Y-95889199D01*
X161860019Y-95861791D01*
X161895822Y-95837634D01*
X161907337Y-95813619D01*
X161896580Y-95786635D01*
X161878114Y-95765543D01*
X161834469Y-95739572D01*
X161786446Y-95737624D01*
X161742406Y-95757637D01*
X161710709Y-95797551D01*
X161706549Y-95807848D01*
X161682327Y-95845724D01*
X161646965Y-95873842D01*
X161602343Y-95896917D01*
X161602343Y-95831485D01*
X161604969Y-95791506D01*
X161616230Y-95759997D01*
X161641199Y-95726378D01*
X161665169Y-95700484D01*
X161702441Y-95663817D01*
X161731401Y-95644121D01*
X161762505Y-95636220D01*
X161797713Y-95634914D01*
X161874876Y-95646335D01*
G36*
X157023677Y-95840333D02*
G01*
X157026450Y-95792958D01*
X157030388Y-95759290D01*
X157035849Y-95735498D01*
X157043192Y-95717753D01*
X157052777Y-95702224D01*
X157056887Y-95696381D01*
X157111405Y-95641185D01*
X157180336Y-95609890D01*
X157260072Y-95601165D01*
X157329744Y-95609918D01*
X157385201Y-95637568D01*
X157434148Y-95688480D01*
X157447629Y-95707338D01*
X157462314Y-95732015D01*
X157471842Y-95758816D01*
X157477293Y-95794587D01*
X157479747Y-95846169D01*
X157480286Y-95914267D01*
X157477852Y-96007588D01*
X157469394Y-96077657D01*
X157453174Y-96129931D01*
X157427454Y-96169869D01*
X157390497Y-96202929D01*
X157387782Y-96204886D01*
X157351360Y-96224908D01*
X157307502Y-96234815D01*
X157251724Y-96237257D01*
X157161048Y-96237257D01*
X157161010Y-96325283D01*
X157160166Y-96374308D01*
X157155024Y-96403065D01*
X157141587Y-96420311D01*
X157115858Y-96434808D01*
X157109679Y-96437769D01*
X157080764Y-96451648D01*
X157058376Y-96460414D01*
X157041729Y-96461171D01*
X157030036Y-96451023D01*
X157022510Y-96427073D01*
X157018366Y-96386426D01*
X157016815Y-96326186D01*
X157017071Y-96243455D01*
X157018349Y-96135339D01*
X157018748Y-96103000D01*
X157020185Y-95991524D01*
X157021472Y-95918603D01*
X157160971Y-95918603D01*
X157161755Y-95980499D01*
X157165240Y-96020997D01*
X157173124Y-96047708D01*
X157187105Y-96068244D01*
X157196597Y-96078260D01*
X157235404Y-96107567D01*
X157269763Y-96109952D01*
X157305216Y-96085750D01*
X157306114Y-96084857D01*
X157320539Y-96066153D01*
X157329313Y-96040732D01*
X157333739Y-96001584D01*
X157335118Y-95941697D01*
X157335143Y-95928430D01*
X157331812Y-95845901D01*
X157320969Y-95788691D01*
X157301340Y-95753766D01*
X157271650Y-95738094D01*
X157254491Y-95736514D01*
X157213766Y-95743926D01*
X157185832Y-95768330D01*
X157169017Y-95812980D01*
X157161650Y-95881130D01*
X157160971Y-95918603D01*
X157021472Y-95918603D01*
X157021708Y-95905245D01*
X157023677Y-95840333D01*
G37*
X157023677Y-95840333D02*
X157026450Y-95792958D01*
X157030388Y-95759290D01*
X157035849Y-95735498D01*
X157043192Y-95717753D01*
X157052777Y-95702224D01*
X157056887Y-95696381D01*
X157111405Y-95641185D01*
X157180336Y-95609890D01*
X157260072Y-95601165D01*
X157329744Y-95609918D01*
X157385201Y-95637568D01*
X157434148Y-95688480D01*
X157447629Y-95707338D01*
X157462314Y-95732015D01*
X157471842Y-95758816D01*
X157477293Y-95794587D01*
X157479747Y-95846169D01*
X157480286Y-95914267D01*
X157477852Y-96007588D01*
X157469394Y-96077657D01*
X157453174Y-96129931D01*
X157427454Y-96169869D01*
X157390497Y-96202929D01*
X157387782Y-96204886D01*
X157351360Y-96224908D01*
X157307502Y-96234815D01*
X157251724Y-96237257D01*
X157161048Y-96237257D01*
X157161010Y-96325283D01*
X157160166Y-96374308D01*
X157155024Y-96403065D01*
X157141587Y-96420311D01*
X157115858Y-96434808D01*
X157109679Y-96437769D01*
X157080764Y-96451648D01*
X157058376Y-96460414D01*
X157041729Y-96461171D01*
X157030036Y-96451023D01*
X157022510Y-96427073D01*
X157018366Y-96386426D01*
X157016815Y-96326186D01*
X157017071Y-96243455D01*
X157018349Y-96135339D01*
X157018748Y-96103000D01*
X157020185Y-95991524D01*
X157021472Y-95918603D01*
X157160971Y-95918603D01*
X157161755Y-95980499D01*
X157165240Y-96020997D01*
X157173124Y-96047708D01*
X157187105Y-96068244D01*
X157196597Y-96078260D01*
X157235404Y-96107567D01*
X157269763Y-96109952D01*
X157305216Y-96085750D01*
X157306114Y-96084857D01*
X157320539Y-96066153D01*
X157329313Y-96040732D01*
X157333739Y-96001584D01*
X157335118Y-95941697D01*
X157335143Y-95928430D01*
X157331812Y-95845901D01*
X157320969Y-95788691D01*
X157301340Y-95753766D01*
X157271650Y-95738094D01*
X157254491Y-95736514D01*
X157213766Y-95743926D01*
X157185832Y-95768330D01*
X157169017Y-95812980D01*
X157161650Y-95881130D01*
X157160971Y-95918603D01*
X157021472Y-95918603D01*
X157021708Y-95905245D01*
X157023677Y-95840333D01*
G36*
X161509833Y-95648663D02*
G01*
X161512048Y-95686850D01*
X161513784Y-95744886D01*
X161514899Y-95818180D01*
X161515257Y-95895055D01*
X161515257Y-96155196D01*
X161469326Y-96201127D01*
X161437675Y-96229429D01*
X161409890Y-96240893D01*
X161371915Y-96240168D01*
X161356840Y-96238321D01*
X161309726Y-96232948D01*
X161270756Y-96229869D01*
X161261257Y-96229585D01*
X161229233Y-96231445D01*
X161183432Y-96236114D01*
X161165674Y-96238321D01*
X161122057Y-96241735D01*
X161092745Y-96234320D01*
X161063680Y-96211427D01*
X161053188Y-96201127D01*
X161007257Y-96155196D01*
X161007257Y-95668602D01*
X161044226Y-95651758D01*
X161076059Y-95639282D01*
X161094683Y-95634914D01*
X161099458Y-95648718D01*
X161103921Y-95687286D01*
X161107775Y-95746356D01*
X161110722Y-95821663D01*
X161112143Y-95885286D01*
X161116114Y-96135657D01*
X161150759Y-96140556D01*
X161182268Y-96137131D01*
X161197708Y-96126041D01*
X161202023Y-96105308D01*
X161205708Y-96061145D01*
X161208469Y-95999146D01*
X161210012Y-95924909D01*
X161210235Y-95886706D01*
X161210457Y-95666783D01*
X161256166Y-95650849D01*
X161288518Y-95640015D01*
X161306115Y-95634962D01*
X161306623Y-95634914D01*
X161308388Y-95648648D01*
X161310329Y-95686730D01*
X161312282Y-95744482D01*
X161314084Y-95817227D01*
X161315343Y-95885286D01*
X161319314Y-96135657D01*
X161406400Y-96135657D01*
X161410396Y-95907240D01*
X161414392Y-95678822D01*
X161456847Y-95656868D01*
X161488192Y-95641793D01*
X161506744Y-95634951D01*
X161507279Y-95634914D01*
X161509833Y-95648663D01*
G37*
X161509833Y-95648663D02*
X161512048Y-95686850D01*
X161513784Y-95744886D01*
X161514899Y-95818180D01*
X161515257Y-95895055D01*
X161515257Y-96155196D01*
X161469326Y-96201127D01*
X161437675Y-96229429D01*
X161409890Y-96240893D01*
X161371915Y-96240168D01*
X161356840Y-96238321D01*
X161309726Y-96232948D01*
X161270756Y-96229869D01*
X161261257Y-96229585D01*
X161229233Y-96231445D01*
X161183432Y-96236114D01*
X161165674Y-96238321D01*
X161122057Y-96241735D01*
X161092745Y-96234320D01*
X161063680Y-96211427D01*
X161053188Y-96201127D01*
X161007257Y-96155196D01*
X161007257Y-95668602D01*
X161044226Y-95651758D01*
X161076059Y-95639282D01*
X161094683Y-95634914D01*
X161099458Y-95648718D01*
X161103921Y-95687286D01*
X161107775Y-95746356D01*
X161110722Y-95821663D01*
X161112143Y-95885286D01*
X161116114Y-96135657D01*
X161150759Y-96140556D01*
X161182268Y-96137131D01*
X161197708Y-96126041D01*
X161202023Y-96105308D01*
X161205708Y-96061145D01*
X161208469Y-95999146D01*
X161210012Y-95924909D01*
X161210235Y-95886706D01*
X161210457Y-95666783D01*
X161256166Y-95650849D01*
X161288518Y-95640015D01*
X161306115Y-95634962D01*
X161306623Y-95634914D01*
X161308388Y-95648648D01*
X161310329Y-95686730D01*
X161312282Y-95744482D01*
X161314084Y-95817227D01*
X161315343Y-95885286D01*
X161319314Y-96135657D01*
X161406400Y-96135657D01*
X161410396Y-95907240D01*
X161414392Y-95678822D01*
X161456847Y-95656868D01*
X161488192Y-95641793D01*
X161506744Y-95634951D01*
X161507279Y-95634914D01*
X161509833Y-95648663D01*
G36*
X162598196Y-95785384D02*
G01*
X162611884Y-95736695D01*
X162634096Y-95700849D01*
X162666574Y-95672513D01*
X162680733Y-95663355D01*
X162745053Y-95639507D01*
X162815473Y-95638006D01*
X162883595Y-95656966D01*
X162941021Y-95694497D01*
X162968719Y-95728096D01*
X162990662Y-95789064D01*
X162992405Y-95837308D01*
X162988457Y-95901816D01*
X162839686Y-95966934D01*
X162767349Y-96000202D01*
X162720084Y-96026964D01*
X162695507Y-96050144D01*
X162691237Y-96072667D01*
X162704889Y-96097455D01*
X162719943Y-96113886D01*
X162763746Y-96140235D01*
X162811389Y-96142081D01*
X162855145Y-96121546D01*
X162887289Y-96080752D01*
X162893038Y-96066347D01*
X162920576Y-96021356D01*
X162952258Y-96002182D01*
X162995714Y-95985779D01*
X162995714Y-96047966D01*
X162991872Y-96090283D01*
X162976823Y-96125969D01*
X162945280Y-96166943D01*
X162940592Y-96172267D01*
X162905506Y-96208720D01*
X162875347Y-96228283D01*
X162837615Y-96237283D01*
X162806335Y-96240230D01*
X162750385Y-96240965D01*
X162710555Y-96231660D01*
X162685708Y-96217846D01*
X162646656Y-96187467D01*
X162619625Y-96154613D01*
X162602517Y-96113294D01*
X162593238Y-96057521D01*
X162589693Y-95981305D01*
X162589410Y-95942622D01*
X162590372Y-95896247D01*
X162678007Y-95896247D01*
X162679023Y-95921126D01*
X162681556Y-95925200D01*
X162698274Y-95919665D01*
X162734249Y-95905017D01*
X162782331Y-95884190D01*
X162792386Y-95879714D01*
X162853152Y-95848814D01*
X162886632Y-95821657D01*
X162893990Y-95796220D01*
X162876391Y-95770481D01*
X162861856Y-95759109D01*
X162809410Y-95736364D01*
X162760322Y-95740122D01*
X162719227Y-95767884D01*
X162690758Y-95817152D01*
X162681631Y-95856257D01*
X162678007Y-95896247D01*
X162590372Y-95896247D01*
X162591285Y-95852249D01*
X162598196Y-95785384D01*
G37*
X162598196Y-95785384D02*
X162611884Y-95736695D01*
X162634096Y-95700849D01*
X162666574Y-95672513D01*
X162680733Y-95663355D01*
X162745053Y-95639507D01*
X162815473Y-95638006D01*
X162883595Y-95656966D01*
X162941021Y-95694497D01*
X162968719Y-95728096D01*
X162990662Y-95789064D01*
X162992405Y-95837308D01*
X162988457Y-95901816D01*
X162839686Y-95966934D01*
X162767349Y-96000202D01*
X162720084Y-96026964D01*
X162695507Y-96050144D01*
X162691237Y-96072667D01*
X162704889Y-96097455D01*
X162719943Y-96113886D01*
X162763746Y-96140235D01*
X162811389Y-96142081D01*
X162855145Y-96121546D01*
X162887289Y-96080752D01*
X162893038Y-96066347D01*
X162920576Y-96021356D01*
X162952258Y-96002182D01*
X162995714Y-95985779D01*
X162995714Y-96047966D01*
X162991872Y-96090283D01*
X162976823Y-96125969D01*
X162945280Y-96166943D01*
X162940592Y-96172267D01*
X162905506Y-96208720D01*
X162875347Y-96228283D01*
X162837615Y-96237283D01*
X162806335Y-96240230D01*
X162750385Y-96240965D01*
X162710555Y-96231660D01*
X162685708Y-96217846D01*
X162646656Y-96187467D01*
X162619625Y-96154613D01*
X162602517Y-96113294D01*
X162593238Y-96057521D01*
X162589693Y-95981305D01*
X162589410Y-95942622D01*
X162590372Y-95896247D01*
X162678007Y-95896247D01*
X162679023Y-95921126D01*
X162681556Y-95925200D01*
X162698274Y-95919665D01*
X162734249Y-95905017D01*
X162782331Y-95884190D01*
X162792386Y-95879714D01*
X162853152Y-95848814D01*
X162886632Y-95821657D01*
X162893990Y-95796220D01*
X162876391Y-95770481D01*
X162861856Y-95759109D01*
X162809410Y-95736364D01*
X162760322Y-95740122D01*
X162719227Y-95767884D01*
X162690758Y-95817152D01*
X162681631Y-95856257D01*
X162678007Y-95896247D01*
X162590372Y-95896247D01*
X162591285Y-95852249D01*
X162598196Y-95785384D01*
G36*
X162382600Y-95648752D02*
G01*
X162399948Y-95656334D01*
X162441356Y-95689128D01*
X162476765Y-95736547D01*
X162498664Y-95787151D01*
X162502229Y-95812098D01*
X162490279Y-95846927D01*
X162464067Y-95865357D01*
X162435964Y-95876516D01*
X162423095Y-95878572D01*
X162416829Y-95863649D01*
X162404456Y-95831175D01*
X162399028Y-95816502D01*
X162368590Y-95765744D01*
X162324520Y-95740427D01*
X162268010Y-95741206D01*
X162263825Y-95742203D01*
X162233655Y-95756507D01*
X162211476Y-95784393D01*
X162196327Y-95829287D01*
X162187250Y-95894615D01*
X162183286Y-95983804D01*
X162182914Y-96031261D01*
X162182730Y-96106071D01*
X162181522Y-96157069D01*
X162178309Y-96189471D01*
X162172109Y-96208495D01*
X162161940Y-96219356D01*
X162146819Y-96227272D01*
X162145946Y-96227670D01*
X162116828Y-96239981D01*
X162102403Y-96244514D01*
X162100186Y-96230809D01*
X162098289Y-96192925D01*
X162096847Y-96135715D01*
X162095998Y-96064027D01*
X162095829Y-96011565D01*
X162096692Y-95910047D01*
X162100070Y-95833032D01*
X162107142Y-95776023D01*
X162119088Y-95734526D01*
X162137090Y-95704043D01*
X162162327Y-95680080D01*
X162187247Y-95663355D01*
X162247171Y-95641097D01*
X162316911Y-95636076D01*
X162382600Y-95648752D01*
G37*
X162382600Y-95648752D02*
X162399948Y-95656334D01*
X162441356Y-95689128D01*
X162476765Y-95736547D01*
X162498664Y-95787151D01*
X162502229Y-95812098D01*
X162490279Y-95846927D01*
X162464067Y-95865357D01*
X162435964Y-95876516D01*
X162423095Y-95878572D01*
X162416829Y-95863649D01*
X162404456Y-95831175D01*
X162399028Y-95816502D01*
X162368590Y-95765744D01*
X162324520Y-95740427D01*
X162268010Y-95741206D01*
X162263825Y-95742203D01*
X162233655Y-95756507D01*
X162211476Y-95784393D01*
X162196327Y-95829287D01*
X162187250Y-95894615D01*
X162183286Y-95983804D01*
X162182914Y-96031261D01*
X162182730Y-96106071D01*
X162181522Y-96157069D01*
X162178309Y-96189471D01*
X162172109Y-96208495D01*
X162161940Y-96219356D01*
X162146819Y-96227272D01*
X162145946Y-96227670D01*
X162116828Y-96239981D01*
X162102403Y-96244514D01*
X162100186Y-96230809D01*
X162098289Y-96192925D01*
X162096847Y-96135715D01*
X162095998Y-96064027D01*
X162095829Y-96011565D01*
X162096692Y-95910047D01*
X162100070Y-95833032D01*
X162107142Y-95776023D01*
X162119088Y-95734526D01*
X162137090Y-95704043D01*
X162162327Y-95680080D01*
X162187247Y-95663355D01*
X162247171Y-95641097D01*
X162316911Y-95636076D01*
X162382600Y-95648752D01*
G36*
X158446093Y-95617780D02*
G01*
X158492672Y-95644723D01*
X158525057Y-95671466D01*
X158548742Y-95699484D01*
X158565059Y-95733748D01*
X158575339Y-95779227D01*
X158580914Y-95840892D01*
X158583116Y-95923711D01*
X158583371Y-95983246D01*
X158583371Y-96202391D01*
X158521686Y-96230044D01*
X158460000Y-96257697D01*
X158452743Y-96017670D01*
X158449744Y-95928028D01*
X158446598Y-95862962D01*
X158442701Y-95818026D01*
X158437447Y-95788770D01*
X158430231Y-95770748D01*
X158420450Y-95759511D01*
X158417312Y-95757079D01*
X158369761Y-95738083D01*
X158321697Y-95745600D01*
X158293086Y-95765543D01*
X158281447Y-95779675D01*
X158273391Y-95798220D01*
X158268271Y-95826334D01*
X158265441Y-95869173D01*
X158264256Y-95931895D01*
X158264057Y-95997261D01*
X158264018Y-96079268D01*
X158262614Y-96137316D01*
X158257914Y-96176465D01*
X158247987Y-96201780D01*
X158230903Y-96218323D01*
X158204732Y-96231156D01*
X158169775Y-96244491D01*
X158131596Y-96259007D01*
X158136141Y-96001389D01*
X158137971Y-95908519D01*
X158140112Y-95839889D01*
X158143181Y-95790711D01*
X158147794Y-95756198D01*
X158154568Y-95731562D01*
X158164119Y-95712016D01*
X158175634Y-95694770D01*
X158231190Y-95639680D01*
X158298980Y-95607822D01*
X158372713Y-95600191D01*
X158446093Y-95617780D01*
G37*
X158446093Y-95617780D02*
X158492672Y-95644723D01*
X158525057Y-95671466D01*
X158548742Y-95699484D01*
X158565059Y-95733748D01*
X158575339Y-95779227D01*
X158580914Y-95840892D01*
X158583116Y-95923711D01*
X158583371Y-95983246D01*
X158583371Y-96202391D01*
X158521686Y-96230044D01*
X158460000Y-96257697D01*
X158452743Y-96017670D01*
X158449744Y-95928028D01*
X158446598Y-95862962D01*
X158442701Y-95818026D01*
X158437447Y-95788770D01*
X158430231Y-95770748D01*
X158420450Y-95759511D01*
X158417312Y-95757079D01*
X158369761Y-95738083D01*
X158321697Y-95745600D01*
X158293086Y-95765543D01*
X158281447Y-95779675D01*
X158273391Y-95798220D01*
X158268271Y-95826334D01*
X158265441Y-95869173D01*
X158264256Y-95931895D01*
X158264057Y-95997261D01*
X158264018Y-96079268D01*
X158262614Y-96137316D01*
X158257914Y-96176465D01*
X158247987Y-96201780D01*
X158230903Y-96218323D01*
X158204732Y-96231156D01*
X158169775Y-96244491D01*
X158131596Y-96259007D01*
X158136141Y-96001389D01*
X158137971Y-95908519D01*
X158140112Y-95839889D01*
X158143181Y-95790711D01*
X158147794Y-95756198D01*
X158154568Y-95731562D01*
X158164119Y-95712016D01*
X158175634Y-95694770D01*
X158231190Y-95639680D01*
X158298980Y-95607822D01*
X158372713Y-95600191D01*
X158446093Y-95617780D01*
G36*
X159833910Y-90932348D02*
G01*
X159912454Y-90932778D01*
X159969298Y-90933942D01*
X160008105Y-90936207D01*
X160032538Y-90939940D01*
X160046262Y-90945506D01*
X160052940Y-90953273D01*
X160056236Y-90963605D01*
X160056556Y-90964943D01*
X160061562Y-90989079D01*
X160070829Y-91036701D01*
X160083392Y-91102741D01*
X160098287Y-91182128D01*
X160114551Y-91269796D01*
X160115119Y-91272875D01*
X160131410Y-91358789D01*
X160146652Y-91434696D01*
X160159861Y-91496045D01*
X160170054Y-91538282D01*
X160176248Y-91556855D01*
X160176543Y-91557184D01*
X160194788Y-91566253D01*
X160232405Y-91581367D01*
X160281271Y-91599262D01*
X160281543Y-91599358D01*
X160343093Y-91622493D01*
X160415657Y-91651965D01*
X160484057Y-91681597D01*
X160487294Y-91683062D01*
X160598702Y-91733626D01*
X160845399Y-91565160D01*
X160921077Y-91513803D01*
X160989631Y-91467889D01*
X161047088Y-91430030D01*
X161089476Y-91402837D01*
X161112825Y-91388921D01*
X161115042Y-91387889D01*
X161132010Y-91392484D01*
X161163701Y-91414655D01*
X161211352Y-91455447D01*
X161276198Y-91515905D01*
X161342397Y-91580227D01*
X161406214Y-91643612D01*
X161463329Y-91701451D01*
X161510305Y-91750175D01*
X161543703Y-91786210D01*
X161560085Y-91805984D01*
X161560694Y-91807002D01*
X161562505Y-91820572D01*
X161555683Y-91842733D01*
X161538540Y-91876478D01*
X161509393Y-91924800D01*
X161466555Y-91990692D01*
X161409448Y-92075517D01*
X161358766Y-92150177D01*
X161313461Y-92217140D01*
X161276150Y-92272516D01*
X161249452Y-92312420D01*
X161235985Y-92332962D01*
X161235137Y-92334356D01*
X161236781Y-92354038D01*
X161249245Y-92392293D01*
X161270048Y-92441889D01*
X161277462Y-92457728D01*
X161309814Y-92528290D01*
X161344328Y-92608353D01*
X161372365Y-92677629D01*
X161392568Y-92729045D01*
X161408615Y-92768119D01*
X161417888Y-92788541D01*
X161419041Y-92790114D01*
X161436096Y-92792721D01*
X161476298Y-92799863D01*
X161534302Y-92810523D01*
X161604763Y-92823685D01*
X161682335Y-92838333D01*
X161761672Y-92853449D01*
X161837431Y-92868018D01*
X161904264Y-92881022D01*
X161956828Y-92891445D01*
X161989776Y-92898270D01*
X161997857Y-92900199D01*
X162006205Y-92904962D01*
X162012506Y-92915718D01*
X162017045Y-92936098D01*
X162020104Y-92969734D01*
X162021967Y-93020255D01*
X162022918Y-93091292D01*
X162023240Y-93186476D01*
X162023257Y-93225492D01*
X162023257Y-93542799D01*
X161947057Y-93557839D01*
X161904663Y-93565995D01*
X161841400Y-93577899D01*
X161764962Y-93592116D01*
X161683043Y-93607210D01*
X161660400Y-93611355D01*
X161584806Y-93626053D01*
X161518953Y-93640505D01*
X161468366Y-93653375D01*
X161438574Y-93663322D01*
X161433612Y-93666287D01*
X161421426Y-93687283D01*
X161403953Y-93727967D01*
X161384577Y-93780322D01*
X161380734Y-93791600D01*
X161355339Y-93861523D01*
X161323817Y-93940418D01*
X161292969Y-94011266D01*
X161292817Y-94011595D01*
X161241447Y-94122733D01*
X161410399Y-94371253D01*
X161579352Y-94619772D01*
X161362429Y-94837058D01*
X161296819Y-94901726D01*
X161236979Y-94958733D01*
X161186267Y-95005033D01*
X161148046Y-95037584D01*
X161125675Y-95053343D01*
X161122466Y-95054343D01*
X161103626Y-95046469D01*
X161065180Y-95024578D01*
X161011330Y-94991267D01*
X160946276Y-94949131D01*
X160875940Y-94901943D01*
X160804555Y-94853810D01*
X160740908Y-94811928D01*
X160689041Y-94778871D01*
X160652995Y-94757218D01*
X160636867Y-94749543D01*
X160617189Y-94756037D01*
X160579875Y-94773150D01*
X160532621Y-94797326D01*
X160527612Y-94800013D01*
X160463977Y-94831927D01*
X160420341Y-94847579D01*
X160393202Y-94847745D01*
X160379057Y-94833204D01*
X160378975Y-94833000D01*
X160371905Y-94815779D01*
X160355042Y-94774899D01*
X160329695Y-94713525D01*
X160297171Y-94634819D01*
X160258778Y-94541947D01*
X160215822Y-94438072D01*
X160174222Y-94337502D01*
X160128504Y-94226516D01*
X160086526Y-94123703D01*
X160049548Y-94032215D01*
X160018827Y-93955201D01*
X159995622Y-93895815D01*
X159981190Y-93857209D01*
X159976743Y-93842800D01*
X159987896Y-93826272D01*
X160017069Y-93799930D01*
X160055971Y-93770887D01*
X160166757Y-93679039D01*
X160253351Y-93573759D01*
X160314716Y-93457266D01*
X160349815Y-93331776D01*
X160357608Y-93199507D01*
X160351943Y-93138457D01*
X160321078Y-93011795D01*
X160267920Y-92899941D01*
X160195767Y-92804001D01*
X160107917Y-92725076D01*
X160007665Y-92664270D01*
X159898310Y-92622687D01*
X159783147Y-92601428D01*
X159665475Y-92601599D01*
X159548590Y-92624301D01*
X159435789Y-92670638D01*
X159330369Y-92741713D01*
X159286368Y-92781911D01*
X159201979Y-92885129D01*
X159143222Y-92997925D01*
X159109704Y-93117010D01*
X159101035Y-93239095D01*
X159116823Y-93360893D01*
X159156678Y-93479116D01*
X159220207Y-93590475D01*
X159307021Y-93691684D01*
X159404029Y-93770887D01*
X159444437Y-93801162D01*
X159472982Y-93827219D01*
X159483257Y-93842825D01*
X159477877Y-93859843D01*
X159462575Y-93900500D01*
X159438612Y-93961642D01*
X159407244Y-94040119D01*
X159369732Y-94132780D01*
X159327333Y-94236472D01*
X159285663Y-94337526D01*
X159239690Y-94448607D01*
X159197107Y-94551541D01*
X159159221Y-94643165D01*
X159127340Y-94720316D01*
X159102771Y-94779831D01*
X159086820Y-94818544D01*
X159080910Y-94833000D01*
X159066948Y-94847685D01*
X159039940Y-94847642D01*
X158996413Y-94832099D01*
X158932890Y-94800284D01*
X158932388Y-94800013D01*
X158884560Y-94775323D01*
X158845897Y-94757338D01*
X158824095Y-94749614D01*
X158823133Y-94749543D01*
X158806721Y-94757378D01*
X158770487Y-94779165D01*
X158718474Y-94812328D01*
X158654725Y-94854291D01*
X158584060Y-94901943D01*
X158512116Y-94950191D01*
X158447274Y-94992151D01*
X158393735Y-95025227D01*
X158355697Y-95046821D01*
X158337533Y-95054343D01*
X158320808Y-95044457D01*
X158287180Y-95016826D01*
X158240010Y-94974495D01*
X158182658Y-94920505D01*
X158118484Y-94857899D01*
X158097497Y-94836983D01*
X157880499Y-94619623D01*
X158045668Y-94377220D01*
X158095864Y-94302781D01*
X158139919Y-94235972D01*
X158175362Y-94180665D01*
X158199719Y-94140729D01*
X158210522Y-94120036D01*
X158210838Y-94118563D01*
X158205143Y-94099058D01*
X158189826Y-94059822D01*
X158167537Y-94007430D01*
X158151893Y-93972355D01*
X158122641Y-93905201D01*
X158095094Y-93837358D01*
X158073737Y-93780034D01*
X158067935Y-93762572D01*
X158051452Y-93715938D01*
X158035340Y-93679905D01*
X158026490Y-93666287D01*
X158006960Y-93657952D01*
X157964334Y-93646137D01*
X157904145Y-93632181D01*
X157831922Y-93617422D01*
X157799600Y-93611355D01*
X157717522Y-93596273D01*
X157638795Y-93581669D01*
X157571109Y-93568980D01*
X157522160Y-93559642D01*
X157512943Y-93557839D01*
X157436743Y-93542799D01*
X157436743Y-93225492D01*
X157436914Y-93121154D01*
X157437616Y-93042213D01*
X157439134Y-92985038D01*
X157441749Y-92945999D01*
X157445746Y-92921465D01*
X157451409Y-92907805D01*
X157459020Y-92901389D01*
X157462143Y-92900199D01*
X157480978Y-92895980D01*
X157522588Y-92887562D01*
X157581630Y-92875961D01*
X157652757Y-92862195D01*
X157730625Y-92847280D01*
X157809887Y-92832232D01*
X157885198Y-92818069D01*
X157951213Y-92805806D01*
X158002587Y-92796461D01*
X158033975Y-92791050D01*
X158040959Y-92790114D01*
X158047285Y-92777596D01*
X158061290Y-92744246D01*
X158080355Y-92696377D01*
X158087634Y-92677629D01*
X158116996Y-92605195D01*
X158151571Y-92525170D01*
X158182537Y-92457728D01*
X158205323Y-92406159D01*
X158220482Y-92363785D01*
X158225542Y-92337834D01*
X158224736Y-92334356D01*
X158214041Y-92317936D01*
X158189620Y-92281417D01*
X158154095Y-92228687D01*
X158110087Y-92163635D01*
X158060217Y-92090151D01*
X158050356Y-92075645D01*
X157992492Y-91989704D01*
X157949956Y-91924261D01*
X157921054Y-91876304D01*
X157904090Y-91842820D01*
X157897367Y-91820795D01*
X157899190Y-91807217D01*
X157899236Y-91807131D01*
X157913586Y-91789297D01*
X157945323Y-91754817D01*
X157991010Y-91707268D01*
X158047204Y-91650222D01*
X158110468Y-91587255D01*
X158117602Y-91580227D01*
X158197330Y-91503020D01*
X158258857Y-91446330D01*
X158303421Y-91409110D01*
X158332257Y-91390315D01*
X158344958Y-91387889D01*
X158363494Y-91398471D01*
X158401961Y-91422916D01*
X158456386Y-91458612D01*
X158522798Y-91502947D01*
X158597225Y-91553311D01*
X158614601Y-91565160D01*
X158861297Y-91733626D01*
X158972706Y-91683062D01*
X159040457Y-91653595D01*
X159113183Y-91623959D01*
X159175703Y-91600330D01*
X159178457Y-91599358D01*
X159227360Y-91581457D01*
X159265057Y-91566320D01*
X159283425Y-91557210D01*
X159283456Y-91557184D01*
X159289285Y-91540717D01*
X159299192Y-91500219D01*
X159312195Y-91440242D01*
X159327309Y-91365340D01*
X159343552Y-91280064D01*
X159344881Y-91272875D01*
X159361175Y-91185014D01*
X159376133Y-91105260D01*
X159388791Y-91038681D01*
X159398186Y-90990347D01*
X159403354Y-90965325D01*
X159403444Y-90964943D01*
X159406589Y-90954299D01*
X159412704Y-90946262D01*
X159425453Y-90940467D01*
X159448500Y-90936547D01*
X159485509Y-90934135D01*
X159540144Y-90932865D01*
X159616067Y-90932371D01*
X159716944Y-90932286D01*
X159730000Y-90932286D01*
X159833910Y-90932348D01*
G37*
X159833910Y-90932348D02*
X159912454Y-90932778D01*
X159969298Y-90933942D01*
X160008105Y-90936207D01*
X160032538Y-90939940D01*
X160046262Y-90945506D01*
X160052940Y-90953273D01*
X160056236Y-90963605D01*
X160056556Y-90964943D01*
X160061562Y-90989079D01*
X160070829Y-91036701D01*
X160083392Y-91102741D01*
X160098287Y-91182128D01*
X160114551Y-91269796D01*
X160115119Y-91272875D01*
X160131410Y-91358789D01*
X160146652Y-91434696D01*
X160159861Y-91496045D01*
X160170054Y-91538282D01*
X160176248Y-91556855D01*
X160176543Y-91557184D01*
X160194788Y-91566253D01*
X160232405Y-91581367D01*
X160281271Y-91599262D01*
X160281543Y-91599358D01*
X160343093Y-91622493D01*
X160415657Y-91651965D01*
X160484057Y-91681597D01*
X160487294Y-91683062D01*
X160598702Y-91733626D01*
X160845399Y-91565160D01*
X160921077Y-91513803D01*
X160989631Y-91467889D01*
X161047088Y-91430030D01*
X161089476Y-91402837D01*
X161112825Y-91388921D01*
X161115042Y-91387889D01*
X161132010Y-91392484D01*
X161163701Y-91414655D01*
X161211352Y-91455447D01*
X161276198Y-91515905D01*
X161342397Y-91580227D01*
X161406214Y-91643612D01*
X161463329Y-91701451D01*
X161510305Y-91750175D01*
X161543703Y-91786210D01*
X161560085Y-91805984D01*
X161560694Y-91807002D01*
X161562505Y-91820572D01*
X161555683Y-91842733D01*
X161538540Y-91876478D01*
X161509393Y-91924800D01*
X161466555Y-91990692D01*
X161409448Y-92075517D01*
X161358766Y-92150177D01*
X161313461Y-92217140D01*
X161276150Y-92272516D01*
X161249452Y-92312420D01*
X161235985Y-92332962D01*
X161235137Y-92334356D01*
X161236781Y-92354038D01*
X161249245Y-92392293D01*
X161270048Y-92441889D01*
X161277462Y-92457728D01*
X161309814Y-92528290D01*
X161344328Y-92608353D01*
X161372365Y-92677629D01*
X161392568Y-92729045D01*
X161408615Y-92768119D01*
X161417888Y-92788541D01*
X161419041Y-92790114D01*
X161436096Y-92792721D01*
X161476298Y-92799863D01*
X161534302Y-92810523D01*
X161604763Y-92823685D01*
X161682335Y-92838333D01*
X161761672Y-92853449D01*
X161837431Y-92868018D01*
X161904264Y-92881022D01*
X161956828Y-92891445D01*
X161989776Y-92898270D01*
X161997857Y-92900199D01*
X162006205Y-92904962D01*
X162012506Y-92915718D01*
X162017045Y-92936098D01*
X162020104Y-92969734D01*
X162021967Y-93020255D01*
X162022918Y-93091292D01*
X162023240Y-93186476D01*
X162023257Y-93225492D01*
X162023257Y-93542799D01*
X161947057Y-93557839D01*
X161904663Y-93565995D01*
X161841400Y-93577899D01*
X161764962Y-93592116D01*
X161683043Y-93607210D01*
X161660400Y-93611355D01*
X161584806Y-93626053D01*
X161518953Y-93640505D01*
X161468366Y-93653375D01*
X161438574Y-93663322D01*
X161433612Y-93666287D01*
X161421426Y-93687283D01*
X161403953Y-93727967D01*
X161384577Y-93780322D01*
X161380734Y-93791600D01*
X161355339Y-93861523D01*
X161323817Y-93940418D01*
X161292969Y-94011266D01*
X161292817Y-94011595D01*
X161241447Y-94122733D01*
X161410399Y-94371253D01*
X161579352Y-94619772D01*
X161362429Y-94837058D01*
X161296819Y-94901726D01*
X161236979Y-94958733D01*
X161186267Y-95005033D01*
X161148046Y-95037584D01*
X161125675Y-95053343D01*
X161122466Y-95054343D01*
X161103626Y-95046469D01*
X161065180Y-95024578D01*
X161011330Y-94991267D01*
X160946276Y-94949131D01*
X160875940Y-94901943D01*
X160804555Y-94853810D01*
X160740908Y-94811928D01*
X160689041Y-94778871D01*
X160652995Y-94757218D01*
X160636867Y-94749543D01*
X160617189Y-94756037D01*
X160579875Y-94773150D01*
X160532621Y-94797326D01*
X160527612Y-94800013D01*
X160463977Y-94831927D01*
X160420341Y-94847579D01*
X160393202Y-94847745D01*
X160379057Y-94833204D01*
X160378975Y-94833000D01*
X160371905Y-94815779D01*
X160355042Y-94774899D01*
X160329695Y-94713525D01*
X160297171Y-94634819D01*
X160258778Y-94541947D01*
X160215822Y-94438072D01*
X160174222Y-94337502D01*
X160128504Y-94226516D01*
X160086526Y-94123703D01*
X160049548Y-94032215D01*
X160018827Y-93955201D01*
X159995622Y-93895815D01*
X159981190Y-93857209D01*
X159976743Y-93842800D01*
X159987896Y-93826272D01*
X160017069Y-93799930D01*
X160055971Y-93770887D01*
X160166757Y-93679039D01*
X160253351Y-93573759D01*
X160314716Y-93457266D01*
X160349815Y-93331776D01*
X160357608Y-93199507D01*
X160351943Y-93138457D01*
X160321078Y-93011795D01*
X160267920Y-92899941D01*
X160195767Y-92804001D01*
X160107917Y-92725076D01*
X160007665Y-92664270D01*
X159898310Y-92622687D01*
X159783147Y-92601428D01*
X159665475Y-92601599D01*
X159548590Y-92624301D01*
X159435789Y-92670638D01*
X159330369Y-92741713D01*
X159286368Y-92781911D01*
X159201979Y-92885129D01*
X159143222Y-92997925D01*
X159109704Y-93117010D01*
X159101035Y-93239095D01*
X159116823Y-93360893D01*
X159156678Y-93479116D01*
X159220207Y-93590475D01*
X159307021Y-93691684D01*
X159404029Y-93770887D01*
X159444437Y-93801162D01*
X159472982Y-93827219D01*
X159483257Y-93842825D01*
X159477877Y-93859843D01*
X159462575Y-93900500D01*
X159438612Y-93961642D01*
X159407244Y-94040119D01*
X159369732Y-94132780D01*
X159327333Y-94236472D01*
X159285663Y-94337526D01*
X159239690Y-94448607D01*
X159197107Y-94551541D01*
X159159221Y-94643165D01*
X159127340Y-94720316D01*
X159102771Y-94779831D01*
X159086820Y-94818544D01*
X159080910Y-94833000D01*
X159066948Y-94847685D01*
X159039940Y-94847642D01*
X158996413Y-94832099D01*
X158932890Y-94800284D01*
X158932388Y-94800013D01*
X158884560Y-94775323D01*
X158845897Y-94757338D01*
X158824095Y-94749614D01*
X158823133Y-94749543D01*
X158806721Y-94757378D01*
X158770487Y-94779165D01*
X158718474Y-94812328D01*
X158654725Y-94854291D01*
X158584060Y-94901943D01*
X158512116Y-94950191D01*
X158447274Y-94992151D01*
X158393735Y-95025227D01*
X158355697Y-95046821D01*
X158337533Y-95054343D01*
X158320808Y-95044457D01*
X158287180Y-95016826D01*
X158240010Y-94974495D01*
X158182658Y-94920505D01*
X158118484Y-94857899D01*
X158097497Y-94836983D01*
X157880499Y-94619623D01*
X158045668Y-94377220D01*
X158095864Y-94302781D01*
X158139919Y-94235972D01*
X158175362Y-94180665D01*
X158199719Y-94140729D01*
X158210522Y-94120036D01*
X158210838Y-94118563D01*
X158205143Y-94099058D01*
X158189826Y-94059822D01*
X158167537Y-94007430D01*
X158151893Y-93972355D01*
X158122641Y-93905201D01*
X158095094Y-93837358D01*
X158073737Y-93780034D01*
X158067935Y-93762572D01*
X158051452Y-93715938D01*
X158035340Y-93679905D01*
X158026490Y-93666287D01*
X158006960Y-93657952D01*
X157964334Y-93646137D01*
X157904145Y-93632181D01*
X157831922Y-93617422D01*
X157799600Y-93611355D01*
X157717522Y-93596273D01*
X157638795Y-93581669D01*
X157571109Y-93568980D01*
X157522160Y-93559642D01*
X157512943Y-93557839D01*
X157436743Y-93542799D01*
X157436743Y-93225492D01*
X157436914Y-93121154D01*
X157437616Y-93042213D01*
X157439134Y-92985038D01*
X157441749Y-92945999D01*
X157445746Y-92921465D01*
X157451409Y-92907805D01*
X157459020Y-92901389D01*
X157462143Y-92900199D01*
X157480978Y-92895980D01*
X157522588Y-92887562D01*
X157581630Y-92875961D01*
X157652757Y-92862195D01*
X157730625Y-92847280D01*
X157809887Y-92832232D01*
X157885198Y-92818069D01*
X157951213Y-92805806D01*
X158002587Y-92796461D01*
X158033975Y-92791050D01*
X158040959Y-92790114D01*
X158047285Y-92777596D01*
X158061290Y-92744246D01*
X158080355Y-92696377D01*
X158087634Y-92677629D01*
X158116996Y-92605195D01*
X158151571Y-92525170D01*
X158182537Y-92457728D01*
X158205323Y-92406159D01*
X158220482Y-92363785D01*
X158225542Y-92337834D01*
X158224736Y-92334356D01*
X158214041Y-92317936D01*
X158189620Y-92281417D01*
X158154095Y-92228687D01*
X158110087Y-92163635D01*
X158060217Y-92090151D01*
X158050356Y-92075645D01*
X157992492Y-91989704D01*
X157949956Y-91924261D01*
X157921054Y-91876304D01*
X157904090Y-91842820D01*
X157897367Y-91820795D01*
X157899190Y-91807217D01*
X157899236Y-91807131D01*
X157913586Y-91789297D01*
X157945323Y-91754817D01*
X157991010Y-91707268D01*
X158047204Y-91650222D01*
X158110468Y-91587255D01*
X158117602Y-91580227D01*
X158197330Y-91503020D01*
X158258857Y-91446330D01*
X158303421Y-91409110D01*
X158332257Y-91390315D01*
X158344958Y-91387889D01*
X158363494Y-91398471D01*
X158401961Y-91422916D01*
X158456386Y-91458612D01*
X158522798Y-91502947D01*
X158597225Y-91553311D01*
X158614601Y-91565160D01*
X158861297Y-91733626D01*
X158972706Y-91683062D01*
X159040457Y-91653595D01*
X159113183Y-91623959D01*
X159175703Y-91600330D01*
X159178457Y-91599358D01*
X159227360Y-91581457D01*
X159265057Y-91566320D01*
X159283425Y-91557210D01*
X159283456Y-91557184D01*
X159289285Y-91540717D01*
X159299192Y-91500219D01*
X159312195Y-91440242D01*
X159327309Y-91365340D01*
X159343552Y-91280064D01*
X159344881Y-91272875D01*
X159361175Y-91185014D01*
X159376133Y-91105260D01*
X159388791Y-91038681D01*
X159398186Y-90990347D01*
X159403354Y-90965325D01*
X159403444Y-90964943D01*
X159406589Y-90954299D01*
X159412704Y-90946262D01*
X159425453Y-90940467D01*
X159448500Y-90936547D01*
X159485509Y-90934135D01*
X159540144Y-90932865D01*
X159616067Y-90932371D01*
X159716944Y-90932286D01*
X159730000Y-90932286D01*
X159833910Y-90932348D01*
D12*
%TO.C,SW1*%
X157990000Y-99560000D02*
X153490000Y-99560000D01*
X152240000Y-102060000D02*
X152240000Y-103560000D01*
X159240000Y-103560000D02*
X159240000Y-102060000D01*
X153490000Y-106060000D02*
X157990000Y-106060000D01*
%TO.C,C1*%
X151605000Y-94550000D02*
X151360000Y-94550000D01*
X151605000Y-98190000D02*
X151360000Y-98190000D01*
X151360000Y-94550000D02*
X151360000Y-98190000D01*
X153700000Y-94550000D02*
X153455000Y-94550000D01*
X153700000Y-98190000D02*
X153455000Y-98190000D01*
X153700000Y-94550000D02*
X153700000Y-98190000D01*
%TO.C,R1*%
X129030000Y-101970000D02*
X129030000Y-101020000D01*
X129950000Y-101020000D02*
X129950000Y-97180000D01*
X129030000Y-96230000D02*
X129030000Y-97180000D01*
X128110000Y-97180000D02*
X128110000Y-101020000D01*
X129950000Y-97180000D02*
X128110000Y-97180000D01*
X128110000Y-101020000D02*
X129950000Y-101020000D01*
%TO.C,R4*%
X138990000Y-101020000D02*
X138990000Y-97180000D01*
X137150000Y-97180000D02*
X137150000Y-101020000D01*
X138070000Y-101970000D02*
X138070000Y-101020000D01*
X138990000Y-97180000D02*
X137150000Y-97180000D01*
X138070000Y-96230000D02*
X138070000Y-97180000D01*
X137150000Y-101020000D02*
X138990000Y-101020000D01*
%TO.C,D3*%
X132274000Y-107865000D02*
X132430000Y-107865000D01*
X134590000Y-107865000D02*
X134746000Y-107865000D01*
X132431392Y-104632665D02*
G75*
G03*
X132274484Y-107865000I1078608J-1672335D01*
G01*
X132430163Y-105263870D02*
G75*
G03*
X132430000Y-107345961I1079837J-1041130D01*
G01*
X134590000Y-107345961D02*
G75*
G03*
X134589837Y-105263870I-1080000J1040961D01*
G01*
X134745516Y-107865000D02*
G75*
G03*
X134588608Y-104632665I-1235516J1560000D01*
G01*
%TO.C,J1*%
X126560000Y-88210000D02*
X118940000Y-88210000D01*
X120210000Y-108530000D02*
X120210000Y-88210000D01*
X126560000Y-88210000D02*
X126560000Y-108530000D01*
X118940000Y-88210000D02*
X118940000Y-108530000D01*
X118940000Y-108530000D02*
X126560000Y-108530000D01*
%TO.C,U1*%
X150790000Y-103815000D02*
X150790000Y-97345000D01*
X140510000Y-97345000D02*
X140510000Y-99580000D01*
X140510000Y-103815000D02*
X150790000Y-103815000D01*
X140510000Y-101580000D02*
X140510000Y-103815000D01*
X150790000Y-97345000D02*
X140510000Y-97345000D01*
X140510000Y-101580000D02*
G75*
G03*
X140510000Y-99580000I0J1000000D01*
G01*
%TO.C,R3*%
X138640000Y-93875000D02*
X142480000Y-93875000D01*
X138640000Y-92035000D02*
X138640000Y-93875000D01*
X142480000Y-92035000D02*
X138640000Y-92035000D01*
X143430000Y-92955000D02*
X142480000Y-92955000D01*
X142480000Y-93875000D02*
X142480000Y-92035000D01*
X137690000Y-92955000D02*
X138640000Y-92955000D01*
%TO.C,D1*%
X130080000Y-107865000D02*
X130236000Y-107865000D01*
X127764000Y-107865000D02*
X127920000Y-107865000D01*
X130235516Y-107865000D02*
G75*
G03*
X130078608Y-104632665I-1235516J1560000D01*
G01*
X130080000Y-107345961D02*
G75*
G03*
X130079837Y-105263870I-1080000J1040961D01*
G01*
X127921392Y-104632665D02*
G75*
G03*
X127764484Y-107865000I1078608J-1672335D01*
G01*
X127920163Y-105263870D02*
G75*
G03*
X127920000Y-107345961I1079837J-1041130D01*
G01*
%TO.C,C2*%
X148878401Y-89845000D02*
X148878401Y-90875000D01*
X149158401Y-90007000D02*
X149158401Y-90875000D01*
X148718401Y-89775000D02*
X148718401Y-90875000D01*
X145687600Y-90520000D02*
X146087600Y-90520000D01*
X148918401Y-92555000D02*
X148918401Y-93566000D01*
X149278401Y-92555000D02*
X149278401Y-93334000D01*
X149638401Y-92555000D02*
X149638401Y-92969000D01*
X149958401Y-91051000D02*
X149958401Y-92379000D01*
X147957401Y-89635000D02*
X147957401Y-93795000D01*
X148918401Y-89864000D02*
X148918401Y-90875000D01*
X148197401Y-89648000D02*
X148197401Y-90875000D01*
X149918401Y-90947000D02*
X149918401Y-92483000D01*
X148958401Y-92555000D02*
X148958401Y-93545000D01*
X149078401Y-89955000D02*
X149078401Y-90875000D01*
X149318401Y-92555000D02*
X149318401Y-93302000D01*
X149118401Y-92555000D02*
X149118401Y-93450000D01*
X149758401Y-92555000D02*
X149758401Y-92795000D01*
X149598401Y-90411000D02*
X149598401Y-90875000D01*
X148678401Y-89761000D02*
X148678401Y-90875000D01*
X149238401Y-90065000D02*
X149238401Y-90875000D01*
X149718401Y-90573000D02*
X149718401Y-90875000D01*
X149478401Y-92555000D02*
X149478401Y-93153000D01*
X149518401Y-90319000D02*
X149518401Y-90875000D01*
X148838401Y-89826000D02*
X148838401Y-90875000D01*
X150038401Y-91345000D02*
X150038401Y-92085000D01*
X148557401Y-89721000D02*
X148557401Y-90875000D01*
X148237401Y-89653000D02*
X148237401Y-90875000D01*
X148758401Y-92555000D02*
X148758401Y-93639000D01*
X148557401Y-92555000D02*
X148557401Y-93709000D01*
X149238401Y-92555000D02*
X149238401Y-93365000D01*
X149638401Y-90461000D02*
X149638401Y-90875000D01*
X149038401Y-92555000D02*
X149038401Y-93500000D01*
X149678401Y-92555000D02*
X149678401Y-92915000D01*
X149438401Y-90237000D02*
X149438401Y-90875000D01*
X148317401Y-89665000D02*
X148317401Y-90875000D01*
X149158401Y-92555000D02*
X149158401Y-93423000D01*
X149198401Y-90035000D02*
X149198401Y-90875000D01*
X148197401Y-92555000D02*
X148197401Y-93782000D01*
X149038401Y-89930000D02*
X149038401Y-90875000D01*
X149438401Y-92555000D02*
X149438401Y-93193000D01*
X148798401Y-89808000D02*
X148798401Y-90875000D01*
X148117401Y-89641000D02*
X148117401Y-93789000D01*
X149398401Y-92555000D02*
X149398401Y-93231000D01*
X149518401Y-92555000D02*
X149518401Y-93111000D01*
X148998401Y-89907000D02*
X148998401Y-90875000D01*
X149678401Y-90515000D02*
X149678401Y-90875000D01*
X148037401Y-89636000D02*
X148037401Y-93794000D01*
X149198401Y-92555000D02*
X149198401Y-93395000D01*
X149598401Y-92555000D02*
X149598401Y-93019000D01*
X148597401Y-89733000D02*
X148597401Y-90875000D01*
X148878401Y-92555000D02*
X148878401Y-93585000D01*
X149878401Y-90856000D02*
X149878401Y-92574000D01*
X149998401Y-91178000D02*
X149998401Y-92252000D01*
X148517401Y-89710000D02*
X148517401Y-90875000D01*
X148357401Y-89673000D02*
X148357401Y-90875000D01*
X149358401Y-90163000D02*
X149358401Y-90875000D01*
X148517401Y-92555000D02*
X148517401Y-93720000D01*
X148437401Y-89690000D02*
X148437401Y-90875000D01*
X149758401Y-90635000D02*
X149758401Y-90875000D01*
X148437401Y-92555000D02*
X148437401Y-93740000D01*
X149278401Y-90096000D02*
X149278401Y-90875000D01*
X148637401Y-89747000D02*
X148637401Y-90875000D01*
X149358401Y-92555000D02*
X149358401Y-93267000D01*
X148838401Y-92555000D02*
X148838401Y-93604000D01*
X148157401Y-92555000D02*
X148157401Y-93786000D01*
X148758401Y-89791000D02*
X148758401Y-90875000D01*
X148597401Y-92555000D02*
X148597401Y-93697000D01*
X147997401Y-89635000D02*
X147997401Y-93795000D01*
X149078401Y-92555000D02*
X149078401Y-93475000D01*
X148277401Y-92555000D02*
X148277401Y-93771000D01*
X149558401Y-90364000D02*
X149558401Y-90875000D01*
X149798401Y-90702000D02*
X149798401Y-92728000D01*
X148477401Y-92555000D02*
X148477401Y-93731000D01*
X148798401Y-92555000D02*
X148798401Y-93622000D01*
X148277401Y-89659000D02*
X148277401Y-90875000D01*
X148237401Y-92555000D02*
X148237401Y-93777000D01*
X148477401Y-89699000D02*
X148477401Y-90875000D01*
X148678401Y-92555000D02*
X148678401Y-93669000D01*
X149718401Y-92555000D02*
X149718401Y-92857000D01*
X148637401Y-92555000D02*
X148637401Y-93683000D01*
X149118401Y-89980000D02*
X149118401Y-90875000D01*
X149318401Y-90128000D02*
X149318401Y-90875000D01*
X149838401Y-90775000D02*
X149838401Y-92655000D01*
X148317401Y-92555000D02*
X148317401Y-93765000D01*
X149398401Y-90199000D02*
X149398401Y-90875000D01*
X148397401Y-92555000D02*
X148397401Y-93749000D01*
X148397401Y-89681000D02*
X148397401Y-90875000D01*
X145887600Y-90320000D02*
X145887600Y-90720000D01*
X148157401Y-89644000D02*
X148157401Y-90875000D01*
X148718401Y-92555000D02*
X148718401Y-93655000D01*
X148958401Y-89885000D02*
X148958401Y-90875000D01*
X149558401Y-92555000D02*
X149558401Y-93066000D01*
X148357401Y-92555000D02*
X148357401Y-93757000D01*
X149478401Y-90277000D02*
X149478401Y-90875000D01*
X148998401Y-92555000D02*
X148998401Y-93523000D01*
X148077401Y-89638000D02*
X148077401Y-93792000D01*
X150077401Y-91715000D02*
G75*
G03*
X150077401Y-91715000I-2120000J0D01*
G01*
%TO.C,R5*%
X132610000Y-97175000D02*
X132610000Y-101015000D01*
X133530000Y-101965000D02*
X133530000Y-101015000D01*
X134450000Y-97175000D02*
X132610000Y-97175000D01*
X133530000Y-96225000D02*
X133530000Y-97175000D01*
X132610000Y-101015000D02*
X134450000Y-101015000D01*
X134450000Y-101015000D02*
X134450000Y-97175000D01*
%TO.C,D2*%
X139100000Y-107860000D02*
X139256000Y-107860000D01*
X136784000Y-107860000D02*
X136940000Y-107860000D01*
X139255516Y-107860000D02*
G75*
G03*
X139098608Y-104627665I-1235516J1560000D01*
G01*
X136941392Y-104627665D02*
G75*
G03*
X136784484Y-107860000I1078608J-1672335D01*
G01*
X139100000Y-107340961D02*
G75*
G03*
X139099837Y-105258870I-1080000J1040961D01*
G01*
X136940163Y-105258870D02*
G75*
G03*
X136940000Y-107340961I1079837J-1041130D01*
G01*
%TO.C,R2*%
X142800000Y-108210000D02*
X143750000Y-108210000D01*
X147590000Y-107290000D02*
X143750000Y-107290000D01*
X148540000Y-108210000D02*
X147590000Y-108210000D01*
X143750000Y-109130000D02*
X147590000Y-109130000D01*
X147590000Y-109130000D02*
X147590000Y-107290000D01*
X143750000Y-107290000D02*
X143750000Y-109130000D01*
%TD*%
M02*
