%TF.GenerationSoftware,KiCad,Pcbnew,(6.0.7)*%
%TF.CreationDate,2022-12-22T14:47:10-06:00*%
%TF.ProjectId,Proyecto_1,50726f79-6563-4746-9f5f-312e6b696361,rev?*%
%TF.SameCoordinates,Original*%
%TF.FileFunction,Copper,L2,Bot*%
%TF.FilePolarity,Positive*%
%FSLAX46Y46*%
G04 Gerber Fmt 4.6, Leading zero omitted, Abs format (unit mm)*
G04 Created by KiCad (PCBNEW (6.0.7)) date 2022-12-22 14:47:10*
%MOMM*%
%LPD*%
G01*
G04 APERTURE LIST*
%TA.AperFunction,ComponentPad*%
%ADD10C,2.000000*%
%TD*%
%TA.AperFunction,ComponentPad*%
%ADD11C,1.600000*%
%TD*%
%TA.AperFunction,ComponentPad*%
%ADD12C,1.400000*%
%TD*%
%TA.AperFunction,ComponentPad*%
%ADD13O,1.400000X1.400000*%
%TD*%
%TA.AperFunction,ComponentPad*%
%ADD14R,1.800000X1.800000*%
%TD*%
%TA.AperFunction,ComponentPad*%
%ADD15C,1.800000*%
%TD*%
%TA.AperFunction,ComponentPad*%
%ADD16R,3.000000X3.000000*%
%TD*%
%TA.AperFunction,ComponentPad*%
%ADD17C,3.000000*%
%TD*%
%TA.AperFunction,ComponentPad*%
%ADD18R,1.600000X2.400000*%
%TD*%
%TA.AperFunction,ComponentPad*%
%ADD19O,1.600000X2.400000*%
%TD*%
%TA.AperFunction,ComponentPad*%
%ADD20R,1.200000X1.200000*%
%TD*%
%TA.AperFunction,ComponentPad*%
%ADD21C,1.200000*%
%TD*%
G04 APERTURE END LIST*
D10*
%TO.P,SW1,1,1*%
%TO.N,GND*%
X158990000Y-100560000D03*
X152490000Y-100560000D03*
%TO.P,SW1,2,2*%
%TO.N,Net-(R2-Pad2)*%
X152490000Y-105060000D03*
X158990000Y-105060000D03*
%TD*%
D11*
%TO.P,C1,1*%
%TO.N,Net-(U1-Pad5)*%
X152530000Y-95120000D03*
%TO.P,C1,2*%
%TO.N,GND*%
X152530000Y-97620000D03*
%TD*%
D12*
%TO.P,R1,1*%
%TO.N,+3.3V*%
X129030000Y-95290000D03*
D13*
%TO.P,R1,2*%
%TO.N,Net-(D1-Pad2)*%
X129030000Y-102910000D03*
%TD*%
D12*
%TO.P,R4,1*%
%TO.N,Net-(D2-Pad2)*%
X138070000Y-102910000D03*
D13*
%TO.P,R4,2*%
%TO.N,/OUT*%
X138070000Y-95290000D03*
%TD*%
D14*
%TO.P,D3,1,K*%
%TO.N,GND*%
X133510000Y-107575000D03*
D15*
%TO.P,D3,2,A*%
%TO.N,Net-(D3-Pad2)*%
X133510000Y-105035000D03*
%TD*%
D16*
%TO.P,J1,1,Pin_1*%
%TO.N,+5V*%
X122750000Y-90750000D03*
D17*
%TO.P,J1,2,Pin_2*%
%TO.N,+3.3V*%
X122750000Y-95830000D03*
%TO.P,J1,3,Pin_3*%
%TO.N,GNDA*%
X122750000Y-100910000D03*
%TO.P,J1,4,Pin_4*%
%TO.N,GND*%
X122750000Y-105990000D03*
%TD*%
D18*
%TO.P,U1,1,GND*%
%TO.N,GND*%
X141840000Y-105660000D03*
D19*
%TO.P,U1,2,TR*%
%TO.N,Net-(R2-Pad2)*%
X144380000Y-105660000D03*
%TO.P,U1,3,Q*%
%TO.N,/OUT*%
X146920000Y-105660000D03*
%TO.P,U1,4,R*%
%TO.N,+5V*%
X149460000Y-105660000D03*
%TO.P,U1,5,CV*%
%TO.N,Net-(U1-Pad5)*%
X149460000Y-95500000D03*
%TO.P,U1,6,THR*%
%TO.N,Net-(C2-Pad1)*%
X146920000Y-95500000D03*
%TO.P,U1,7,DIS*%
X144380000Y-95500000D03*
%TO.P,U1,8,VCC*%
%TO.N,+5V*%
X141840000Y-95500000D03*
%TD*%
D12*
%TO.P,R3,1*%
%TO.N,+5V*%
X136750000Y-92955000D03*
D13*
%TO.P,R3,2*%
%TO.N,Net-(C2-Pad1)*%
X144370000Y-92955000D03*
%TD*%
D14*
%TO.P,D1,1,K*%
%TO.N,GNDA*%
X129000000Y-107575000D03*
D15*
%TO.P,D1,2,A*%
%TO.N,Net-(D1-Pad2)*%
X129000000Y-105035000D03*
%TD*%
D20*
%TO.P,C2,1*%
%TO.N,Net-(C2-Pad1)*%
X146957401Y-91715000D03*
D21*
%TO.P,C2,2*%
%TO.N,GND*%
X148957401Y-91715000D03*
%TD*%
D12*
%TO.P,R5,1*%
%TO.N,+5V*%
X133530000Y-95285000D03*
D13*
%TO.P,R5,2*%
%TO.N,Net-(D3-Pad2)*%
X133530000Y-102905000D03*
%TD*%
D14*
%TO.P,D2,1,K*%
%TO.N,GND*%
X138020000Y-107570000D03*
D15*
%TO.P,D2,2,A*%
%TO.N,Net-(D2-Pad2)*%
X138020000Y-105030000D03*
%TD*%
D12*
%TO.P,R2,1*%
%TO.N,+5V*%
X149480000Y-108210000D03*
D13*
%TO.P,R2,2*%
%TO.N,Net-(R2-Pad2)*%
X141860000Y-108210000D03*
%TD*%
%TA.AperFunction,Conductor*%
%TO.N,GND*%
G36*
X163433621Y-87528502D02*
G01*
X163480114Y-87582158D01*
X163491500Y-87634500D01*
X163491500Y-111365500D01*
X163471498Y-111433621D01*
X163417842Y-111480114D01*
X163365500Y-111491500D01*
X118634500Y-111491500D01*
X118566379Y-111471498D01*
X118519886Y-111417842D01*
X118508500Y-111365500D01*
X118508500Y-107579654D01*
X121525618Y-107579654D01*
X121532673Y-107589627D01*
X121563679Y-107615551D01*
X121570598Y-107620579D01*
X121795272Y-107761515D01*
X121802807Y-107765556D01*
X122044520Y-107874694D01*
X122052551Y-107877680D01*
X122306832Y-107953002D01*
X122315184Y-107954869D01*
X122577340Y-107994984D01*
X122585874Y-107995700D01*
X122851045Y-107999867D01*
X122859596Y-107999418D01*
X123122883Y-107967557D01*
X123131284Y-107965955D01*
X123387824Y-107898653D01*
X123395926Y-107895926D01*
X123640949Y-107794434D01*
X123648617Y-107790628D01*
X123877598Y-107656822D01*
X123884679Y-107652009D01*
X123964655Y-107589301D01*
X123973125Y-107577442D01*
X123966608Y-107565818D01*
X122762812Y-106362022D01*
X122748868Y-106354408D01*
X122747035Y-106354539D01*
X122740420Y-106358790D01*
X121532910Y-107566300D01*
X121525618Y-107579654D01*
X118508500Y-107579654D01*
X118508500Y-105973204D01*
X120737665Y-105973204D01*
X120752932Y-106237969D01*
X120754005Y-106246470D01*
X120805065Y-106506722D01*
X120807276Y-106514974D01*
X120893184Y-106765894D01*
X120896499Y-106773779D01*
X121015664Y-107010713D01*
X121020020Y-107018079D01*
X121149347Y-107206250D01*
X121159601Y-107214594D01*
X121173342Y-107207448D01*
X122377978Y-106002812D01*
X122384356Y-105991132D01*
X123114408Y-105991132D01*
X123114539Y-105992965D01*
X123118790Y-105999580D01*
X124325730Y-107206520D01*
X124337939Y-107213187D01*
X124349439Y-107204497D01*
X124446831Y-107071913D01*
X124451418Y-107064685D01*
X124577962Y-106831621D01*
X124581530Y-106823827D01*
X124675271Y-106575750D01*
X124677748Y-106567544D01*
X124736954Y-106309038D01*
X124738294Y-106300577D01*
X124762031Y-106034616D01*
X124762277Y-106029677D01*
X124762666Y-105992485D01*
X124762523Y-105987519D01*
X124744362Y-105721123D01*
X124743201Y-105712649D01*
X124689419Y-105452944D01*
X124687120Y-105444709D01*
X124598588Y-105194705D01*
X124595191Y-105186854D01*
X124498991Y-105000469D01*
X127587095Y-105000469D01*
X127587392Y-105005622D01*
X127587392Y-105005625D01*
X127592970Y-105102359D01*
X127600427Y-105231697D01*
X127601564Y-105236743D01*
X127601565Y-105236749D01*
X127626588Y-105347783D01*
X127651346Y-105457642D01*
X127653288Y-105462424D01*
X127653289Y-105462428D01*
X127717764Y-105621210D01*
X127738484Y-105672237D01*
X127859501Y-105869719D01*
X127862882Y-105873622D01*
X127971304Y-105998788D01*
X128000786Y-106063373D01*
X127990671Y-106133646D01*
X127944170Y-106187294D01*
X127920296Y-106199267D01*
X127873861Y-106216675D01*
X127853295Y-106224385D01*
X127736739Y-106311739D01*
X127649385Y-106428295D01*
X127598255Y-106564684D01*
X127591500Y-106626866D01*
X127591500Y-108523134D01*
X127598255Y-108585316D01*
X127649385Y-108721705D01*
X127736739Y-108838261D01*
X127853295Y-108925615D01*
X127989684Y-108976745D01*
X128051866Y-108983500D01*
X129948134Y-108983500D01*
X130010316Y-108976745D01*
X130146705Y-108925615D01*
X130263261Y-108838261D01*
X130350615Y-108721705D01*
X130401745Y-108585316D01*
X130408500Y-108523134D01*
X130408500Y-108519669D01*
X132102001Y-108519669D01*
X132102371Y-108526490D01*
X132107895Y-108577352D01*
X132111521Y-108592604D01*
X132156676Y-108713054D01*
X132165214Y-108728649D01*
X132241715Y-108830724D01*
X132254276Y-108843285D01*
X132356351Y-108919786D01*
X132371946Y-108928324D01*
X132492394Y-108973478D01*
X132507649Y-108977105D01*
X132558514Y-108982631D01*
X132565328Y-108983000D01*
X133237885Y-108983000D01*
X133253124Y-108978525D01*
X133254329Y-108977135D01*
X133256000Y-108969452D01*
X133256000Y-108964884D01*
X133764000Y-108964884D01*
X133768475Y-108980123D01*
X133769865Y-108981328D01*
X133777548Y-108982999D01*
X134454669Y-108982999D01*
X134461490Y-108982629D01*
X134512352Y-108977105D01*
X134527604Y-108973479D01*
X134648054Y-108928324D01*
X134663649Y-108919786D01*
X134765724Y-108843285D01*
X134778285Y-108830724D01*
X134854786Y-108728649D01*
X134863324Y-108713054D01*
X134908478Y-108592606D01*
X134912105Y-108577351D01*
X134917631Y-108526486D01*
X134918000Y-108519672D01*
X134918000Y-108514669D01*
X136612001Y-108514669D01*
X136612371Y-108521490D01*
X136617895Y-108572352D01*
X136621521Y-108587604D01*
X136666676Y-108708054D01*
X136675214Y-108723649D01*
X136751715Y-108825724D01*
X136764276Y-108838285D01*
X136866351Y-108914786D01*
X136881946Y-108923324D01*
X137002394Y-108968478D01*
X137017649Y-108972105D01*
X137068514Y-108977631D01*
X137075328Y-108978000D01*
X137747885Y-108978000D01*
X137763124Y-108973525D01*
X137764329Y-108972135D01*
X137766000Y-108964452D01*
X137766000Y-108959884D01*
X138274000Y-108959884D01*
X138278475Y-108975123D01*
X138279865Y-108976328D01*
X138287548Y-108977999D01*
X138964669Y-108977999D01*
X138971490Y-108977629D01*
X139022352Y-108972105D01*
X139037604Y-108968479D01*
X139158054Y-108923324D01*
X139173649Y-108914786D01*
X139275724Y-108838285D01*
X139288285Y-108825724D01*
X139364786Y-108723649D01*
X139373324Y-108708054D01*
X139418478Y-108587606D01*
X139422105Y-108572351D01*
X139427631Y-108521486D01*
X139428000Y-108514672D01*
X139428000Y-107842115D01*
X139423525Y-107826876D01*
X139422135Y-107825671D01*
X139414452Y-107824000D01*
X138292115Y-107824000D01*
X138276876Y-107828475D01*
X138275671Y-107829865D01*
X138274000Y-107837548D01*
X138274000Y-108959884D01*
X137766000Y-108959884D01*
X137766000Y-107842115D01*
X137761525Y-107826876D01*
X137760135Y-107825671D01*
X137752452Y-107824000D01*
X136630116Y-107824000D01*
X136614877Y-107828475D01*
X136613672Y-107829865D01*
X136612001Y-107837548D01*
X136612001Y-108514669D01*
X134918000Y-108514669D01*
X134918000Y-107847115D01*
X134913525Y-107831876D01*
X134912135Y-107830671D01*
X134904452Y-107829000D01*
X133782115Y-107829000D01*
X133766876Y-107833475D01*
X133765671Y-107834865D01*
X133764000Y-107842548D01*
X133764000Y-108964884D01*
X133256000Y-108964884D01*
X133256000Y-107847115D01*
X133251525Y-107831876D01*
X133250135Y-107830671D01*
X133242452Y-107829000D01*
X132120116Y-107829000D01*
X132104877Y-107833475D01*
X132103672Y-107834865D01*
X132102001Y-107842548D01*
X132102001Y-108519669D01*
X130408500Y-108519669D01*
X130408500Y-106626866D01*
X130401745Y-106564684D01*
X130350615Y-106428295D01*
X130263261Y-106311739D01*
X130146705Y-106224385D01*
X130138296Y-106221233D01*
X130138295Y-106221232D01*
X130079804Y-106199305D01*
X130023039Y-106156664D01*
X129998339Y-106090103D01*
X130013546Y-106020754D01*
X130035093Y-105992073D01*
X130072636Y-105954660D01*
X130072641Y-105954654D01*
X130076303Y-105951005D01*
X130211458Y-105762917D01*
X130217258Y-105751183D01*
X130311784Y-105559922D01*
X130311785Y-105559920D01*
X130314078Y-105555280D01*
X130381408Y-105333671D01*
X130411640Y-105104041D01*
X130412596Y-105064930D01*
X130413245Y-105038365D01*
X130413245Y-105038361D01*
X130413327Y-105035000D01*
X130410488Y-105000469D01*
X132097095Y-105000469D01*
X132097392Y-105005622D01*
X132097392Y-105005625D01*
X132102970Y-105102359D01*
X132110427Y-105231697D01*
X132111564Y-105236743D01*
X132111565Y-105236749D01*
X132136588Y-105347783D01*
X132161346Y-105457642D01*
X132163288Y-105462424D01*
X132163289Y-105462428D01*
X132227764Y-105621210D01*
X132248484Y-105672237D01*
X132369501Y-105869719D01*
X132372882Y-105873622D01*
X132481653Y-105999191D01*
X132511135Y-106063776D01*
X132501020Y-106134049D01*
X132454519Y-106187697D01*
X132430646Y-106199670D01*
X132371944Y-106221677D01*
X132356351Y-106230214D01*
X132254276Y-106306715D01*
X132241715Y-106319276D01*
X132165214Y-106421351D01*
X132156676Y-106436946D01*
X132111522Y-106557394D01*
X132107895Y-106572649D01*
X132102369Y-106623514D01*
X132102000Y-106630328D01*
X132102000Y-107302885D01*
X132106475Y-107318124D01*
X132107865Y-107319329D01*
X132115548Y-107321000D01*
X134899884Y-107321000D01*
X134915123Y-107316525D01*
X134916328Y-107315135D01*
X134917999Y-107307452D01*
X134917999Y-106630331D01*
X134917629Y-106623510D01*
X134912105Y-106572648D01*
X134908479Y-106557396D01*
X134863324Y-106436946D01*
X134854786Y-106421351D01*
X134778285Y-106319276D01*
X134765724Y-106306715D01*
X134663649Y-106230214D01*
X134648052Y-106221675D01*
X134589415Y-106199693D01*
X134532650Y-106157052D01*
X134507950Y-106090490D01*
X134523157Y-106021141D01*
X134544703Y-105992461D01*
X134582641Y-105954654D01*
X134586303Y-105951005D01*
X134721458Y-105762917D01*
X134727258Y-105751183D01*
X134821784Y-105559922D01*
X134821785Y-105559920D01*
X134824078Y-105555280D01*
X134891408Y-105333671D01*
X134921640Y-105104041D01*
X134922596Y-105064930D01*
X134923245Y-105038365D01*
X134923245Y-105038361D01*
X134923327Y-105035000D01*
X134920077Y-104995469D01*
X136607095Y-104995469D01*
X136607392Y-105000622D01*
X136607392Y-105000625D01*
X136613067Y-105099041D01*
X136620427Y-105226697D01*
X136621564Y-105231743D01*
X136621565Y-105231749D01*
X136644535Y-105333671D01*
X136671346Y-105452642D01*
X136673288Y-105457424D01*
X136673289Y-105457428D01*
X136756540Y-105662450D01*
X136758484Y-105667237D01*
X136879501Y-105864719D01*
X136882882Y-105868622D01*
X136991653Y-105994191D01*
X137021135Y-106058776D01*
X137011020Y-106129049D01*
X136964519Y-106182697D01*
X136940646Y-106194670D01*
X136881944Y-106216677D01*
X136866351Y-106225214D01*
X136764276Y-106301715D01*
X136751715Y-106314276D01*
X136675214Y-106416351D01*
X136666676Y-106431946D01*
X136621522Y-106552394D01*
X136617895Y-106567649D01*
X136612369Y-106618514D01*
X136612000Y-106625328D01*
X136612000Y-107297885D01*
X136616475Y-107313124D01*
X136617865Y-107314329D01*
X136625548Y-107316000D01*
X139409884Y-107316000D01*
X139425123Y-107311525D01*
X139426328Y-107310135D01*
X139427999Y-107302452D01*
X139427999Y-106904669D01*
X140532001Y-106904669D01*
X140532371Y-106911490D01*
X140537895Y-106962352D01*
X140541521Y-106977604D01*
X140586676Y-107098054D01*
X140595214Y-107113649D01*
X140671715Y-107215724D01*
X140684276Y-107228285D01*
X140786351Y-107304786D01*
X140801948Y-107313325D01*
X140816526Y-107318790D01*
X140873291Y-107361431D01*
X140897991Y-107427992D01*
X140882784Y-107497341D01*
X140875510Y-107509042D01*
X140809411Y-107603442D01*
X140720044Y-107795090D01*
X140718622Y-107800398D01*
X140718621Y-107800400D01*
X140666738Y-107994030D01*
X140665314Y-107999345D01*
X140646884Y-108210000D01*
X140665314Y-108420655D01*
X140666738Y-108425968D01*
X140666738Y-108425970D01*
X140711388Y-108592604D01*
X140720044Y-108624910D01*
X140722366Y-108629891D01*
X140722367Y-108629892D01*
X140761260Y-108713297D01*
X140809411Y-108816558D01*
X140930699Y-108989776D01*
X141080224Y-109139301D01*
X141253442Y-109260589D01*
X141258420Y-109262910D01*
X141258423Y-109262912D01*
X141440108Y-109347633D01*
X141445090Y-109349956D01*
X141450398Y-109351378D01*
X141450400Y-109351379D01*
X141644030Y-109403262D01*
X141644032Y-109403262D01*
X141649345Y-109404686D01*
X141860000Y-109423116D01*
X142070655Y-109404686D01*
X142075968Y-109403262D01*
X142075970Y-109403262D01*
X142269600Y-109351379D01*
X142269602Y-109351378D01*
X142274910Y-109349956D01*
X142279892Y-109347633D01*
X142461577Y-109262912D01*
X142461580Y-109262910D01*
X142466558Y-109260589D01*
X142639776Y-109139301D01*
X142789301Y-108989776D01*
X142910589Y-108816558D01*
X142958741Y-108713297D01*
X142997633Y-108629892D01*
X142997634Y-108629891D01*
X142999956Y-108624910D01*
X143008613Y-108592604D01*
X143053262Y-108425970D01*
X143053262Y-108425968D01*
X143054686Y-108420655D01*
X143073116Y-108210000D01*
X143054686Y-107999345D01*
X143053262Y-107994030D01*
X143001379Y-107800400D01*
X143001378Y-107800398D01*
X142999956Y-107795090D01*
X142910589Y-107603442D01*
X142835414Y-107496080D01*
X142812726Y-107428806D01*
X142830011Y-107359946D01*
X142878116Y-107313291D01*
X142893646Y-107304788D01*
X142995724Y-107228285D01*
X143008285Y-107215724D01*
X143084786Y-107113649D01*
X143093324Y-107098054D01*
X143138478Y-106977606D01*
X143142104Y-106962357D01*
X143142479Y-106958904D01*
X143143522Y-106956394D01*
X143143932Y-106954669D01*
X143144211Y-106954735D01*
X143169719Y-106893341D01*
X143228080Y-106852912D01*
X143299034Y-106850454D01*
X143360054Y-106886747D01*
X143369344Y-106898240D01*
X143370641Y-106899786D01*
X143373802Y-106904300D01*
X143535700Y-107066198D01*
X143540208Y-107069355D01*
X143540211Y-107069357D01*
X143581195Y-107098054D01*
X143723251Y-107197523D01*
X143728233Y-107199846D01*
X143728238Y-107199849D01*
X143925775Y-107291961D01*
X143930757Y-107294284D01*
X143936065Y-107295706D01*
X143936067Y-107295707D01*
X144146598Y-107352119D01*
X144146600Y-107352119D01*
X144151913Y-107353543D01*
X144380000Y-107373498D01*
X144608087Y-107353543D01*
X144613400Y-107352119D01*
X144613402Y-107352119D01*
X144823933Y-107295707D01*
X144823935Y-107295706D01*
X144829243Y-107294284D01*
X144834225Y-107291961D01*
X145031762Y-107199849D01*
X145031767Y-107199846D01*
X145036749Y-107197523D01*
X145178805Y-107098054D01*
X145219789Y-107069357D01*
X145219792Y-107069355D01*
X145224300Y-107066198D01*
X145386198Y-106904300D01*
X145390442Y-106898240D01*
X145514366Y-106721257D01*
X145517523Y-106716749D01*
X145519846Y-106711767D01*
X145519849Y-106711762D01*
X145535805Y-106677543D01*
X145582722Y-106624258D01*
X145650999Y-106604797D01*
X145718959Y-106625339D01*
X145764195Y-106677543D01*
X145780151Y-106711762D01*
X145780154Y-106711767D01*
X145782477Y-106716749D01*
X145785634Y-106721257D01*
X145909559Y-106898240D01*
X145913802Y-106904300D01*
X146075700Y-107066198D01*
X146080208Y-107069355D01*
X146080211Y-107069357D01*
X146121195Y-107098054D01*
X146263251Y-107197523D01*
X146268233Y-107199846D01*
X146268238Y-107199849D01*
X146465775Y-107291961D01*
X146470757Y-107294284D01*
X146476065Y-107295706D01*
X146476067Y-107295707D01*
X146686598Y-107352119D01*
X146686600Y-107352119D01*
X146691913Y-107353543D01*
X146920000Y-107373498D01*
X147148087Y-107353543D01*
X147153400Y-107352119D01*
X147153402Y-107352119D01*
X147363933Y-107295707D01*
X147363935Y-107295706D01*
X147369243Y-107294284D01*
X147374225Y-107291961D01*
X147571762Y-107199849D01*
X147571767Y-107199846D01*
X147576749Y-107197523D01*
X147718805Y-107098054D01*
X147759789Y-107069357D01*
X147759792Y-107069355D01*
X147764300Y-107066198D01*
X147926198Y-106904300D01*
X147930442Y-106898240D01*
X148054366Y-106721257D01*
X148057523Y-106716749D01*
X148059846Y-106711767D01*
X148059849Y-106711762D01*
X148075805Y-106677543D01*
X148122722Y-106624258D01*
X148190999Y-106604797D01*
X148258959Y-106625339D01*
X148304195Y-106677543D01*
X148320151Y-106711762D01*
X148320154Y-106711767D01*
X148322477Y-106716749D01*
X148325634Y-106721257D01*
X148449559Y-106898240D01*
X148453802Y-106904300D01*
X148615700Y-107066198D01*
X148620210Y-107069356D01*
X148620216Y-107069361D01*
X148668571Y-107103219D01*
X148712900Y-107158675D01*
X148720209Y-107229295D01*
X148685396Y-107295527D01*
X148550699Y-107430224D01*
X148429411Y-107603442D01*
X148340044Y-107795090D01*
X148338622Y-107800398D01*
X148338621Y-107800400D01*
X148286738Y-107994030D01*
X148285314Y-107999345D01*
X148266884Y-108210000D01*
X148285314Y-108420655D01*
X148286738Y-108425968D01*
X148286738Y-108425970D01*
X148331388Y-108592604D01*
X148340044Y-108624910D01*
X148342366Y-108629891D01*
X148342367Y-108629892D01*
X148381260Y-108713297D01*
X148429411Y-108816558D01*
X148550699Y-108989776D01*
X148700224Y-109139301D01*
X148873442Y-109260589D01*
X148878420Y-109262910D01*
X148878423Y-109262912D01*
X149060108Y-109347633D01*
X149065090Y-109349956D01*
X149070398Y-109351378D01*
X149070400Y-109351379D01*
X149264030Y-109403262D01*
X149264032Y-109403262D01*
X149269345Y-109404686D01*
X149480000Y-109423116D01*
X149690655Y-109404686D01*
X149695968Y-109403262D01*
X149695970Y-109403262D01*
X149889600Y-109351379D01*
X149889602Y-109351378D01*
X149894910Y-109349956D01*
X149899892Y-109347633D01*
X150081577Y-109262912D01*
X150081580Y-109262910D01*
X150086558Y-109260589D01*
X150259776Y-109139301D01*
X150409301Y-108989776D01*
X150530589Y-108816558D01*
X150578741Y-108713297D01*
X150617633Y-108629892D01*
X150617634Y-108629891D01*
X150619956Y-108624910D01*
X150628613Y-108592604D01*
X150673262Y-108425970D01*
X150673262Y-108425968D01*
X150674686Y-108420655D01*
X150693116Y-108210000D01*
X150674686Y-107999345D01*
X150673262Y-107994030D01*
X150621379Y-107800400D01*
X150621378Y-107800398D01*
X150619956Y-107795090D01*
X150530589Y-107603442D01*
X150409301Y-107430224D01*
X150259776Y-107280699D01*
X150261191Y-107279284D01*
X150226732Y-107227477D01*
X150225614Y-107156489D01*
X150263052Y-107096166D01*
X150274783Y-107086866D01*
X150299789Y-107069357D01*
X150299792Y-107069355D01*
X150304300Y-107066198D01*
X150466198Y-106904300D01*
X150470442Y-106898240D01*
X150594366Y-106721257D01*
X150597523Y-106716749D01*
X150599846Y-106711767D01*
X150599849Y-106711762D01*
X150691961Y-106514225D01*
X150691961Y-106514224D01*
X150694284Y-106509243D01*
X150697001Y-106499105D01*
X150752119Y-106293402D01*
X150752119Y-106293400D01*
X150753543Y-106288087D01*
X150762763Y-106182697D01*
X150768262Y-106119851D01*
X150768262Y-106119844D01*
X150768500Y-106117127D01*
X150768500Y-105415904D01*
X150788502Y-105347783D01*
X150842158Y-105301290D01*
X150912432Y-105291186D01*
X150977012Y-105320680D01*
X151017019Y-105386490D01*
X151050895Y-105527594D01*
X151052788Y-105532165D01*
X151052789Y-105532167D01*
X151131057Y-105721123D01*
X151141760Y-105746963D01*
X151144346Y-105751183D01*
X151263241Y-105945202D01*
X151263245Y-105945208D01*
X151265824Y-105949416D01*
X151420031Y-106129969D01*
X151600584Y-106284176D01*
X151604792Y-106286755D01*
X151604798Y-106286759D01*
X151776877Y-106392209D01*
X151803037Y-106408240D01*
X151807607Y-106410133D01*
X151807611Y-106410135D01*
X152017833Y-106497211D01*
X152022406Y-106499105D01*
X152088505Y-106514974D01*
X152248476Y-106553380D01*
X152248482Y-106553381D01*
X152253289Y-106554535D01*
X152490000Y-106573165D01*
X152726711Y-106554535D01*
X152731518Y-106553381D01*
X152731524Y-106553380D01*
X152891495Y-106514974D01*
X152957594Y-106499105D01*
X152962167Y-106497211D01*
X153172389Y-106410135D01*
X153172393Y-106410133D01*
X153176963Y-106408240D01*
X153203123Y-106392209D01*
X153375202Y-106286759D01*
X153375208Y-106286755D01*
X153379416Y-106284176D01*
X153559969Y-106129969D01*
X153714176Y-105949416D01*
X153716755Y-105945208D01*
X153716759Y-105945202D01*
X153835654Y-105751183D01*
X153838240Y-105746963D01*
X153848944Y-105721123D01*
X153927211Y-105532167D01*
X153927212Y-105532165D01*
X153929105Y-105527594D01*
X153958988Y-105403124D01*
X153983380Y-105301524D01*
X153983381Y-105301518D01*
X153984535Y-105296711D01*
X154003165Y-105060000D01*
X157476835Y-105060000D01*
X157495465Y-105296711D01*
X157496619Y-105301518D01*
X157496620Y-105301524D01*
X157521012Y-105403124D01*
X157550895Y-105527594D01*
X157552788Y-105532165D01*
X157552789Y-105532167D01*
X157631057Y-105721123D01*
X157641760Y-105746963D01*
X157644346Y-105751183D01*
X157763241Y-105945202D01*
X157763245Y-105945208D01*
X157765824Y-105949416D01*
X157920031Y-106129969D01*
X158100584Y-106284176D01*
X158104792Y-106286755D01*
X158104798Y-106286759D01*
X158276877Y-106392209D01*
X158303037Y-106408240D01*
X158307607Y-106410133D01*
X158307611Y-106410135D01*
X158517833Y-106497211D01*
X158522406Y-106499105D01*
X158588505Y-106514974D01*
X158748476Y-106553380D01*
X158748482Y-106553381D01*
X158753289Y-106554535D01*
X158990000Y-106573165D01*
X159226711Y-106554535D01*
X159231518Y-106553381D01*
X159231524Y-106553380D01*
X159391495Y-106514974D01*
X159457594Y-106499105D01*
X159462167Y-106497211D01*
X159672389Y-106410135D01*
X159672393Y-106410133D01*
X159676963Y-106408240D01*
X159703123Y-106392209D01*
X159875202Y-106286759D01*
X159875208Y-106286755D01*
X159879416Y-106284176D01*
X160059969Y-106129969D01*
X160214176Y-105949416D01*
X160216755Y-105945208D01*
X160216759Y-105945202D01*
X160335654Y-105751183D01*
X160338240Y-105746963D01*
X160348944Y-105721123D01*
X160427211Y-105532167D01*
X160427212Y-105532165D01*
X160429105Y-105527594D01*
X160458988Y-105403124D01*
X160483380Y-105301524D01*
X160483381Y-105301518D01*
X160484535Y-105296711D01*
X160503165Y-105060000D01*
X160484535Y-104823289D01*
X160482802Y-104816067D01*
X160432906Y-104608238D01*
X160429105Y-104592406D01*
X160427211Y-104587833D01*
X160340135Y-104377611D01*
X160340133Y-104377607D01*
X160338240Y-104373037D01*
X160325419Y-104352115D01*
X160216759Y-104174798D01*
X160216755Y-104174792D01*
X160214176Y-104170584D01*
X160059969Y-103990031D01*
X159879416Y-103835824D01*
X159875208Y-103833245D01*
X159875202Y-103833241D01*
X159681183Y-103714346D01*
X159676963Y-103711760D01*
X159672393Y-103709867D01*
X159672389Y-103709865D01*
X159462167Y-103622789D01*
X159462165Y-103622788D01*
X159457594Y-103620895D01*
X159377391Y-103601640D01*
X159231524Y-103566620D01*
X159231518Y-103566619D01*
X159226711Y-103565465D01*
X158990000Y-103546835D01*
X158753289Y-103565465D01*
X158748482Y-103566619D01*
X158748476Y-103566620D01*
X158602609Y-103601640D01*
X158522406Y-103620895D01*
X158517835Y-103622788D01*
X158517833Y-103622789D01*
X158307611Y-103709865D01*
X158307607Y-103709867D01*
X158303037Y-103711760D01*
X158298817Y-103714346D01*
X158104798Y-103833241D01*
X158104792Y-103833245D01*
X158100584Y-103835824D01*
X157920031Y-103990031D01*
X157765824Y-104170584D01*
X157763245Y-104174792D01*
X157763241Y-104174798D01*
X157654581Y-104352115D01*
X157641760Y-104373037D01*
X157639867Y-104377607D01*
X157639865Y-104377611D01*
X157552789Y-104587833D01*
X157550895Y-104592406D01*
X157547094Y-104608238D01*
X157497199Y-104816067D01*
X157495465Y-104823289D01*
X157476835Y-105060000D01*
X154003165Y-105060000D01*
X153984535Y-104823289D01*
X153982802Y-104816067D01*
X153932906Y-104608238D01*
X153929105Y-104592406D01*
X153927211Y-104587833D01*
X153840135Y-104377611D01*
X153840133Y-104377607D01*
X153838240Y-104373037D01*
X153825419Y-104352115D01*
X153716759Y-104174798D01*
X153716755Y-104174792D01*
X153714176Y-104170584D01*
X153559969Y-103990031D01*
X153379416Y-103835824D01*
X153375208Y-103833245D01*
X153375202Y-103833241D01*
X153181183Y-103714346D01*
X153176963Y-103711760D01*
X153172393Y-103709867D01*
X153172389Y-103709865D01*
X152962167Y-103622789D01*
X152962165Y-103622788D01*
X152957594Y-103620895D01*
X152877391Y-103601640D01*
X152731524Y-103566620D01*
X152731518Y-103566619D01*
X152726711Y-103565465D01*
X152490000Y-103546835D01*
X152253289Y-103565465D01*
X152248482Y-103566619D01*
X152248476Y-103566620D01*
X152102609Y-103601640D01*
X152022406Y-103620895D01*
X152017835Y-103622788D01*
X152017833Y-103622789D01*
X151807611Y-103709865D01*
X151807607Y-103709867D01*
X151803037Y-103711760D01*
X151798817Y-103714346D01*
X151604798Y-103833241D01*
X151604792Y-103833245D01*
X151600584Y-103835824D01*
X151420031Y-103990031D01*
X151265824Y-104170584D01*
X151263245Y-104174792D01*
X151263241Y-104174798D01*
X151154581Y-104352115D01*
X151141760Y-104373037D01*
X151139867Y-104377607D01*
X151139865Y-104377611D01*
X151052789Y-104587833D01*
X151050895Y-104592406D01*
X151047094Y-104608238D01*
X150997199Y-104816067D01*
X150995465Y-104823289D01*
X150995077Y-104828223D01*
X150985381Y-104951413D01*
X150960095Y-105017755D01*
X150902957Y-105059894D01*
X150832107Y-105064453D01*
X150770039Y-105029984D01*
X150738062Y-104974138D01*
X150695707Y-104816067D01*
X150695706Y-104816065D01*
X150694284Y-104810757D01*
X150691961Y-104805775D01*
X150599849Y-104608238D01*
X150599846Y-104608233D01*
X150597523Y-104603251D01*
X150524098Y-104498389D01*
X150469357Y-104420211D01*
X150469355Y-104420208D01*
X150466198Y-104415700D01*
X150304300Y-104253802D01*
X150299792Y-104250645D01*
X150299789Y-104250643D01*
X150220318Y-104194997D01*
X150116749Y-104122477D01*
X150111767Y-104120154D01*
X150111762Y-104120151D01*
X149914225Y-104028039D01*
X149914224Y-104028039D01*
X149909243Y-104025716D01*
X149903935Y-104024294D01*
X149903933Y-104024293D01*
X149693402Y-103967881D01*
X149693400Y-103967881D01*
X149688087Y-103966457D01*
X149460000Y-103946502D01*
X149231913Y-103966457D01*
X149226600Y-103967881D01*
X149226598Y-103967881D01*
X149016067Y-104024293D01*
X149016065Y-104024294D01*
X149010757Y-104025716D01*
X149005776Y-104028039D01*
X149005775Y-104028039D01*
X148808238Y-104120151D01*
X148808233Y-104120154D01*
X148803251Y-104122477D01*
X148699682Y-104194997D01*
X148620211Y-104250643D01*
X148620208Y-104250645D01*
X148615700Y-104253802D01*
X148453802Y-104415700D01*
X148450645Y-104420208D01*
X148450643Y-104420211D01*
X148395902Y-104498389D01*
X148322477Y-104603251D01*
X148320154Y-104608233D01*
X148320151Y-104608238D01*
X148304195Y-104642457D01*
X148257278Y-104695742D01*
X148189001Y-104715203D01*
X148121041Y-104694661D01*
X148075805Y-104642457D01*
X148059849Y-104608238D01*
X148059846Y-104608233D01*
X148057523Y-104603251D01*
X147984098Y-104498389D01*
X147929357Y-104420211D01*
X147929355Y-104420208D01*
X147926198Y-104415700D01*
X147764300Y-104253802D01*
X147759792Y-104250645D01*
X147759789Y-104250643D01*
X147680318Y-104194997D01*
X147576749Y-104122477D01*
X147571767Y-104120154D01*
X147571762Y-104120151D01*
X147374225Y-104028039D01*
X147374224Y-104028039D01*
X147369243Y-104025716D01*
X147363935Y-104024294D01*
X147363933Y-104024293D01*
X147153402Y-103967881D01*
X147153400Y-103967881D01*
X147148087Y-103966457D01*
X146920000Y-103946502D01*
X146691913Y-103966457D01*
X146686600Y-103967881D01*
X146686598Y-103967881D01*
X146476067Y-104024293D01*
X146476065Y-104024294D01*
X146470757Y-104025716D01*
X146465776Y-104028039D01*
X146465775Y-104028039D01*
X146268238Y-104120151D01*
X146268233Y-104120154D01*
X146263251Y-104122477D01*
X146159682Y-104194997D01*
X146080211Y-104250643D01*
X146080208Y-104250645D01*
X146075700Y-104253802D01*
X145913802Y-104415700D01*
X145910645Y-104420208D01*
X145910643Y-104420211D01*
X145855902Y-104498389D01*
X145782477Y-104603251D01*
X145780154Y-104608233D01*
X145780151Y-104608238D01*
X145764195Y-104642457D01*
X145717278Y-104695742D01*
X145649001Y-104715203D01*
X145581041Y-104694661D01*
X145535805Y-104642457D01*
X145519849Y-104608238D01*
X145519846Y-104608233D01*
X145517523Y-104603251D01*
X145444098Y-104498389D01*
X145389357Y-104420211D01*
X145389355Y-104420208D01*
X145386198Y-104415700D01*
X145224300Y-104253802D01*
X145219792Y-104250645D01*
X145219789Y-104250643D01*
X145140318Y-104194997D01*
X145036749Y-104122477D01*
X145031767Y-104120154D01*
X145031762Y-104120151D01*
X144834225Y-104028039D01*
X144834224Y-104028039D01*
X144829243Y-104025716D01*
X144823935Y-104024294D01*
X144823933Y-104024293D01*
X144613402Y-103967881D01*
X144613400Y-103967881D01*
X144608087Y-103966457D01*
X144380000Y-103946502D01*
X144151913Y-103966457D01*
X144146600Y-103967881D01*
X144146598Y-103967881D01*
X143936067Y-104024293D01*
X143936065Y-104024294D01*
X143930757Y-104025716D01*
X143925776Y-104028039D01*
X143925775Y-104028039D01*
X143728238Y-104120151D01*
X143728233Y-104120154D01*
X143723251Y-104122477D01*
X143619682Y-104194997D01*
X143540211Y-104250643D01*
X143540208Y-104250645D01*
X143535700Y-104253802D01*
X143373802Y-104415700D01*
X143370643Y-104420211D01*
X143367108Y-104424424D01*
X143366140Y-104423612D01*
X143315506Y-104464090D01*
X143244887Y-104471404D01*
X143181524Y-104439376D01*
X143145536Y-104378177D01*
X143142480Y-104361099D01*
X143142105Y-104357648D01*
X143138479Y-104342396D01*
X143093324Y-104221946D01*
X143084786Y-104206351D01*
X143008285Y-104104276D01*
X142995724Y-104091715D01*
X142893649Y-104015214D01*
X142878054Y-104006676D01*
X142757606Y-103961522D01*
X142742351Y-103957895D01*
X142691486Y-103952369D01*
X142684672Y-103952000D01*
X142112115Y-103952000D01*
X142096876Y-103956475D01*
X142095671Y-103957865D01*
X142094000Y-103965548D01*
X142094000Y-105788000D01*
X142073998Y-105856121D01*
X142020342Y-105902614D01*
X141968000Y-105914000D01*
X140550116Y-105914000D01*
X140534877Y-105918475D01*
X140533672Y-105919865D01*
X140532001Y-105927548D01*
X140532001Y-106904669D01*
X139427999Y-106904669D01*
X139427999Y-106625331D01*
X139427629Y-106618510D01*
X139422105Y-106567648D01*
X139418479Y-106552396D01*
X139373324Y-106431946D01*
X139364786Y-106416351D01*
X139288285Y-106314276D01*
X139275724Y-106301715D01*
X139173649Y-106225214D01*
X139158052Y-106216675D01*
X139099415Y-106194693D01*
X139042650Y-106152052D01*
X139017950Y-106085490D01*
X139033157Y-106016141D01*
X139054703Y-105987461D01*
X139089108Y-105953175D01*
X139096303Y-105946005D01*
X139231458Y-105757917D01*
X139239133Y-105742389D01*
X139331784Y-105554922D01*
X139331785Y-105554920D01*
X139334078Y-105550280D01*
X139383417Y-105387885D01*
X140532000Y-105387885D01*
X140536475Y-105403124D01*
X140537865Y-105404329D01*
X140545548Y-105406000D01*
X141567885Y-105406000D01*
X141583124Y-105401525D01*
X141584329Y-105400135D01*
X141586000Y-105392452D01*
X141586000Y-103970116D01*
X141581525Y-103954877D01*
X141580135Y-103953672D01*
X141572452Y-103952001D01*
X140995331Y-103952001D01*
X140988510Y-103952371D01*
X140937648Y-103957895D01*
X140922396Y-103961521D01*
X140801946Y-104006676D01*
X140786351Y-104015214D01*
X140684276Y-104091715D01*
X140671715Y-104104276D01*
X140595214Y-104206351D01*
X140586676Y-104221946D01*
X140541522Y-104342394D01*
X140537895Y-104357649D01*
X140532369Y-104408514D01*
X140532000Y-104415328D01*
X140532000Y-105387885D01*
X139383417Y-105387885D01*
X139401408Y-105328671D01*
X139431640Y-105099041D01*
X139431722Y-105095691D01*
X139433245Y-105033365D01*
X139433245Y-105033361D01*
X139433327Y-105030000D01*
X139426261Y-104944050D01*
X139414773Y-104804318D01*
X139414772Y-104804312D01*
X139414349Y-104799167D01*
X139366391Y-104608238D01*
X139359184Y-104579544D01*
X139359183Y-104579540D01*
X139357925Y-104574533D01*
X139355866Y-104569797D01*
X139267630Y-104366868D01*
X139267628Y-104366865D01*
X139265570Y-104362131D01*
X139139764Y-104167665D01*
X138983887Y-103996358D01*
X138979836Y-103993159D01*
X138979832Y-103993155D01*
X138932378Y-103955679D01*
X138891315Y-103897762D01*
X138888083Y-103826839D01*
X138921375Y-103767702D01*
X138999301Y-103689776D01*
X139120589Y-103516558D01*
X139125244Y-103506577D01*
X139207633Y-103329892D01*
X139207634Y-103329891D01*
X139209956Y-103324910D01*
X139264686Y-103120655D01*
X139283116Y-102910000D01*
X139264686Y-102699345D01*
X139231967Y-102577237D01*
X139211379Y-102500400D01*
X139211378Y-102500398D01*
X139209956Y-102495090D01*
X139207633Y-102490108D01*
X139122912Y-102308423D01*
X139122910Y-102308420D01*
X139120589Y-102303442D01*
X138999301Y-102130224D01*
X138849776Y-101980699D01*
X138676558Y-101859411D01*
X138671580Y-101857090D01*
X138671577Y-101857088D01*
X138533432Y-101792670D01*
X151622160Y-101792670D01*
X151627887Y-101800320D01*
X151799042Y-101905205D01*
X151807837Y-101909687D01*
X152017988Y-101996734D01*
X152027373Y-101999783D01*
X152248554Y-102052885D01*
X152258301Y-102054428D01*
X152485070Y-102072275D01*
X152494930Y-102072275D01*
X152721699Y-102054428D01*
X152731446Y-102052885D01*
X152952627Y-101999783D01*
X152962012Y-101996734D01*
X153172163Y-101909687D01*
X153180958Y-101905205D01*
X153348445Y-101802568D01*
X153357400Y-101792670D01*
X158122160Y-101792670D01*
X158127887Y-101800320D01*
X158299042Y-101905205D01*
X158307837Y-101909687D01*
X158517988Y-101996734D01*
X158527373Y-101999783D01*
X158748554Y-102052885D01*
X158758301Y-102054428D01*
X158985070Y-102072275D01*
X158994930Y-102072275D01*
X159221699Y-102054428D01*
X159231446Y-102052885D01*
X159452627Y-101999783D01*
X159462012Y-101996734D01*
X159672163Y-101909687D01*
X159680958Y-101905205D01*
X159848445Y-101802568D01*
X159857907Y-101792110D01*
X159854124Y-101783334D01*
X159002812Y-100932022D01*
X158988868Y-100924408D01*
X158987035Y-100924539D01*
X158980420Y-100928790D01*
X158128920Y-101780290D01*
X158122160Y-101792670D01*
X153357400Y-101792670D01*
X153357907Y-101792110D01*
X153354124Y-101783334D01*
X152502812Y-100932022D01*
X152488868Y-100924408D01*
X152487035Y-100924539D01*
X152480420Y-100928790D01*
X151628920Y-101780290D01*
X151622160Y-101792670D01*
X138533432Y-101792670D01*
X138489892Y-101772367D01*
X138489891Y-101772366D01*
X138484910Y-101770044D01*
X138479602Y-101768622D01*
X138479600Y-101768621D01*
X138285970Y-101716738D01*
X138285968Y-101716738D01*
X138280655Y-101715314D01*
X138070000Y-101696884D01*
X137859345Y-101715314D01*
X137854032Y-101716738D01*
X137854030Y-101716738D01*
X137660400Y-101768621D01*
X137660398Y-101768622D01*
X137655090Y-101770044D01*
X137650109Y-101772366D01*
X137650108Y-101772367D01*
X137468423Y-101857088D01*
X137468420Y-101857090D01*
X137463442Y-101859411D01*
X137290224Y-101980699D01*
X137140699Y-102130224D01*
X137019411Y-102303442D01*
X137017090Y-102308420D01*
X137017088Y-102308423D01*
X136932367Y-102490108D01*
X136930044Y-102495090D01*
X136928622Y-102500398D01*
X136928621Y-102500400D01*
X136908033Y-102577237D01*
X136875314Y-102699345D01*
X136856884Y-102910000D01*
X136875314Y-103120655D01*
X136930044Y-103324910D01*
X136932366Y-103329891D01*
X136932367Y-103329892D01*
X137014757Y-103506577D01*
X137019411Y-103516558D01*
X137140699Y-103689776D01*
X137174539Y-103723616D01*
X137208565Y-103785928D01*
X137203500Y-103856743D01*
X137161098Y-103913470D01*
X137081655Y-103973117D01*
X136921639Y-104140564D01*
X136918725Y-104144836D01*
X136918724Y-104144837D01*
X136903725Y-104166825D01*
X136791119Y-104331899D01*
X136693602Y-104541981D01*
X136631707Y-104765169D01*
X136607095Y-104995469D01*
X134920077Y-104995469D01*
X134906327Y-104828223D01*
X134904773Y-104809318D01*
X134904772Y-104809312D01*
X134904349Y-104804167D01*
X134876137Y-104691850D01*
X134849184Y-104584544D01*
X134849183Y-104584540D01*
X134847925Y-104579533D01*
X134843692Y-104569797D01*
X134757630Y-104371868D01*
X134757628Y-104371865D01*
X134755570Y-104367131D01*
X134629764Y-104172665D01*
X134625215Y-104167665D01*
X134556105Y-104091715D01*
X134473887Y-104001358D01*
X134400028Y-103943028D01*
X134358966Y-103885110D01*
X134355734Y-103814187D01*
X134389026Y-103755051D01*
X134459301Y-103684776D01*
X134580589Y-103511558D01*
X134667625Y-103324910D01*
X134667633Y-103324892D01*
X134667634Y-103324891D01*
X134669956Y-103319910D01*
X134724686Y-103115655D01*
X134743116Y-102905000D01*
X134724686Y-102694345D01*
X134692727Y-102575073D01*
X134671379Y-102495400D01*
X134671378Y-102495398D01*
X134669956Y-102490090D01*
X134609232Y-102359867D01*
X134582912Y-102303423D01*
X134582910Y-102303420D01*
X134580589Y-102298442D01*
X134459301Y-102125224D01*
X134309776Y-101975699D01*
X134136558Y-101854411D01*
X134131580Y-101852090D01*
X134131577Y-101852088D01*
X133949892Y-101767367D01*
X133949891Y-101767366D01*
X133944910Y-101765044D01*
X133939602Y-101763622D01*
X133939600Y-101763621D01*
X133745970Y-101711738D01*
X133745968Y-101711738D01*
X133740655Y-101710314D01*
X133530000Y-101691884D01*
X133319345Y-101710314D01*
X133314032Y-101711738D01*
X133314030Y-101711738D01*
X133120400Y-101763621D01*
X133120398Y-101763622D01*
X133115090Y-101765044D01*
X133110109Y-101767366D01*
X133110108Y-101767367D01*
X132928423Y-101852088D01*
X132928420Y-101852090D01*
X132923442Y-101854411D01*
X132750224Y-101975699D01*
X132600699Y-102125224D01*
X132479411Y-102298442D01*
X132477090Y-102303420D01*
X132477088Y-102303423D01*
X132450768Y-102359867D01*
X132390044Y-102490090D01*
X132388622Y-102495398D01*
X132388621Y-102495400D01*
X132367273Y-102575073D01*
X132335314Y-102694345D01*
X132316884Y-102905000D01*
X132335314Y-103115655D01*
X132390044Y-103319910D01*
X132392366Y-103324891D01*
X132392367Y-103324892D01*
X132392376Y-103324910D01*
X132479411Y-103511558D01*
X132600699Y-103684776D01*
X132653115Y-103737192D01*
X132687141Y-103799504D01*
X132682076Y-103870319D01*
X132639674Y-103927047D01*
X132571655Y-103978117D01*
X132550570Y-104000181D01*
X132430685Y-104125634D01*
X132411639Y-104145564D01*
X132408725Y-104149836D01*
X132408724Y-104149837D01*
X132371351Y-104204624D01*
X132281119Y-104336899D01*
X132183602Y-104546981D01*
X132121707Y-104770169D01*
X132097095Y-105000469D01*
X130410488Y-105000469D01*
X130396327Y-104828223D01*
X130394773Y-104809318D01*
X130394772Y-104809312D01*
X130394349Y-104804167D01*
X130366137Y-104691850D01*
X130339184Y-104584544D01*
X130339183Y-104584540D01*
X130337925Y-104579533D01*
X130333692Y-104569797D01*
X130247630Y-104371868D01*
X130247628Y-104371865D01*
X130245570Y-104367131D01*
X130119764Y-104172665D01*
X130115215Y-104167665D01*
X130046105Y-104091715D01*
X129963887Y-104001358D01*
X129898409Y-103949647D01*
X129857347Y-103891729D01*
X129854115Y-103820806D01*
X129887407Y-103761670D01*
X129959301Y-103689776D01*
X130080589Y-103516558D01*
X130085244Y-103506577D01*
X130167633Y-103329892D01*
X130167634Y-103329891D01*
X130169956Y-103324910D01*
X130224686Y-103120655D01*
X130243116Y-102910000D01*
X130224686Y-102699345D01*
X130191967Y-102577237D01*
X130171379Y-102500400D01*
X130171378Y-102500398D01*
X130169956Y-102495090D01*
X130167633Y-102490108D01*
X130082912Y-102308423D01*
X130082910Y-102308420D01*
X130080589Y-102303442D01*
X129959301Y-102130224D01*
X129809776Y-101980699D01*
X129636558Y-101859411D01*
X129631580Y-101857090D01*
X129631577Y-101857088D01*
X129449892Y-101772367D01*
X129449891Y-101772366D01*
X129444910Y-101770044D01*
X129439602Y-101768622D01*
X129439600Y-101768621D01*
X129245970Y-101716738D01*
X129245968Y-101716738D01*
X129240655Y-101715314D01*
X129030000Y-101696884D01*
X128819345Y-101715314D01*
X128814032Y-101716738D01*
X128814030Y-101716738D01*
X128620400Y-101768621D01*
X128620398Y-101768622D01*
X128615090Y-101770044D01*
X128610109Y-101772366D01*
X128610108Y-101772367D01*
X128428423Y-101857088D01*
X128428420Y-101857090D01*
X128423442Y-101859411D01*
X128250224Y-101980699D01*
X128100699Y-102130224D01*
X127979411Y-102303442D01*
X127977090Y-102308420D01*
X127977088Y-102308423D01*
X127892367Y-102490108D01*
X127890044Y-102495090D01*
X127888622Y-102500398D01*
X127888621Y-102500400D01*
X127868033Y-102577237D01*
X127835314Y-102699345D01*
X127816884Y-102910000D01*
X127835314Y-103120655D01*
X127890044Y-103324910D01*
X127892366Y-103329891D01*
X127892367Y-103329892D01*
X127974757Y-103506577D01*
X127979411Y-103516558D01*
X128100699Y-103689776D01*
X128145971Y-103735048D01*
X128179997Y-103797360D01*
X128174932Y-103868175D01*
X128132529Y-103924903D01*
X128077185Y-103966457D01*
X128061655Y-103978117D01*
X128040570Y-104000181D01*
X127920685Y-104125634D01*
X127901639Y-104145564D01*
X127898725Y-104149836D01*
X127898724Y-104149837D01*
X127861351Y-104204624D01*
X127771119Y-104336899D01*
X127673602Y-104546981D01*
X127611707Y-104770169D01*
X127587095Y-105000469D01*
X124498991Y-105000469D01*
X124473550Y-104951178D01*
X124469122Y-104943866D01*
X124350031Y-104774417D01*
X124339509Y-104766037D01*
X124326121Y-104773089D01*
X123122022Y-105977188D01*
X123114408Y-105991132D01*
X122384356Y-105991132D01*
X122385592Y-105988868D01*
X122385461Y-105987035D01*
X122381210Y-105980420D01*
X121173814Y-104773024D01*
X121161804Y-104766466D01*
X121150064Y-104775434D01*
X121041935Y-104925911D01*
X121037418Y-104933196D01*
X120913325Y-105167567D01*
X120909839Y-105175395D01*
X120818700Y-105424446D01*
X120816311Y-105432670D01*
X120759812Y-105691795D01*
X120758563Y-105700250D01*
X120737754Y-105964653D01*
X120737665Y-105973204D01*
X118508500Y-105973204D01*
X118508500Y-104402500D01*
X121526584Y-104402500D01*
X121532980Y-104413770D01*
X122737188Y-105617978D01*
X122751132Y-105625592D01*
X122752965Y-105625461D01*
X122759580Y-105621210D01*
X123966604Y-104414186D01*
X123973795Y-104401017D01*
X123966473Y-104390780D01*
X123919233Y-104352115D01*
X123912261Y-104347160D01*
X123686122Y-104208582D01*
X123678552Y-104204624D01*
X123435704Y-104098022D01*
X123427644Y-104095120D01*
X123172592Y-104022467D01*
X123164214Y-104020685D01*
X122901656Y-103983318D01*
X122893111Y-103982691D01*
X122627908Y-103981302D01*
X122619374Y-103981839D01*
X122356433Y-104016456D01*
X122348035Y-104018149D01*
X122092238Y-104088127D01*
X122084143Y-104090946D01*
X121840199Y-104194997D01*
X121832577Y-104198881D01*
X121605013Y-104335075D01*
X121597981Y-104339962D01*
X121535053Y-104390377D01*
X121526584Y-104402500D01*
X118508500Y-104402500D01*
X118508500Y-100888918D01*
X120736917Y-100888918D01*
X120752682Y-101162320D01*
X120753507Y-101166525D01*
X120753508Y-101166533D01*
X120764127Y-101220657D01*
X120805405Y-101431053D01*
X120806792Y-101435103D01*
X120806793Y-101435108D01*
X120827605Y-101495895D01*
X120894112Y-101690144D01*
X121017160Y-101934799D01*
X121019586Y-101938328D01*
X121019589Y-101938334D01*
X121099379Y-102054428D01*
X121172274Y-102160490D01*
X121175161Y-102163663D01*
X121175162Y-102163664D01*
X121306882Y-102308423D01*
X121356582Y-102363043D01*
X121566675Y-102538707D01*
X121570316Y-102540991D01*
X121795024Y-102681951D01*
X121795028Y-102681953D01*
X121798664Y-102684234D01*
X121866544Y-102714883D01*
X122044345Y-102795164D01*
X122044349Y-102795166D01*
X122048257Y-102796930D01*
X122052377Y-102798150D01*
X122052376Y-102798150D01*
X122306723Y-102873491D01*
X122306727Y-102873492D01*
X122310836Y-102874709D01*
X122315070Y-102875357D01*
X122315075Y-102875358D01*
X122577298Y-102915483D01*
X122577300Y-102915483D01*
X122581540Y-102916132D01*
X122720912Y-102918322D01*
X122851071Y-102920367D01*
X122851077Y-102920367D01*
X122855362Y-102920434D01*
X123127235Y-102887534D01*
X123392127Y-102818041D01*
X123396087Y-102816401D01*
X123396092Y-102816399D01*
X123518632Y-102765641D01*
X123645136Y-102713241D01*
X123881582Y-102575073D01*
X124097089Y-102406094D01*
X124138809Y-102363043D01*
X124284686Y-102212509D01*
X124287669Y-102209431D01*
X124290202Y-102205983D01*
X124290206Y-102205978D01*
X124447257Y-101992178D01*
X124449795Y-101988723D01*
X124455867Y-101977540D01*
X124578418Y-101751830D01*
X124578419Y-101751828D01*
X124580468Y-101748054D01*
X124677269Y-101491877D01*
X124738407Y-101224933D01*
X124762751Y-100952161D01*
X124763193Y-100910000D01*
X124744567Y-100636778D01*
X124729688Y-100564930D01*
X150977725Y-100564930D01*
X150995572Y-100791699D01*
X150997115Y-100801446D01*
X151050217Y-101022627D01*
X151053266Y-101032012D01*
X151140313Y-101242163D01*
X151144795Y-101250958D01*
X151247432Y-101418445D01*
X151257890Y-101427907D01*
X151266666Y-101424124D01*
X152117978Y-100572812D01*
X152124356Y-100561132D01*
X152854408Y-100561132D01*
X152854539Y-100562965D01*
X152858790Y-100569580D01*
X153710290Y-101421080D01*
X153722670Y-101427840D01*
X153730320Y-101422113D01*
X153835205Y-101250958D01*
X153839687Y-101242163D01*
X153926734Y-101032012D01*
X153929783Y-101022627D01*
X153982885Y-100801446D01*
X153984428Y-100791699D01*
X154002275Y-100564930D01*
X157477725Y-100564930D01*
X157495572Y-100791699D01*
X157497115Y-100801446D01*
X157550217Y-101022627D01*
X157553266Y-101032012D01*
X157640313Y-101242163D01*
X157644795Y-101250958D01*
X157747432Y-101418445D01*
X157757890Y-101427907D01*
X157766666Y-101424124D01*
X158617978Y-100572812D01*
X158624356Y-100561132D01*
X159354408Y-100561132D01*
X159354539Y-100562965D01*
X159358790Y-100569580D01*
X160210290Y-101421080D01*
X160222670Y-101427840D01*
X160230320Y-101422113D01*
X160335205Y-101250958D01*
X160339687Y-101242163D01*
X160426734Y-101032012D01*
X160429783Y-101022627D01*
X160482885Y-100801446D01*
X160484428Y-100791699D01*
X160502275Y-100564930D01*
X160502275Y-100555070D01*
X160484428Y-100328301D01*
X160482885Y-100318554D01*
X160429783Y-100097373D01*
X160426734Y-100087988D01*
X160339687Y-99877837D01*
X160335205Y-99869042D01*
X160232568Y-99701555D01*
X160222110Y-99692093D01*
X160213334Y-99695876D01*
X159362022Y-100547188D01*
X159354408Y-100561132D01*
X158624356Y-100561132D01*
X158625592Y-100558868D01*
X158625461Y-100557035D01*
X158621210Y-100550420D01*
X157769710Y-99698920D01*
X157757330Y-99692160D01*
X157749680Y-99697887D01*
X157644795Y-99869042D01*
X157640313Y-99877837D01*
X157553266Y-100087988D01*
X157550217Y-100097373D01*
X157497115Y-100318554D01*
X157495572Y-100328301D01*
X157477725Y-100555070D01*
X157477725Y-100564930D01*
X154002275Y-100564930D01*
X154002275Y-100555070D01*
X153984428Y-100328301D01*
X153982885Y-100318554D01*
X153929783Y-100097373D01*
X153926734Y-100087988D01*
X153839687Y-99877837D01*
X153835205Y-99869042D01*
X153732568Y-99701555D01*
X153722110Y-99692093D01*
X153713334Y-99695876D01*
X152862022Y-100547188D01*
X152854408Y-100561132D01*
X152124356Y-100561132D01*
X152125592Y-100558868D01*
X152125461Y-100557035D01*
X152121210Y-100550420D01*
X151269710Y-99698920D01*
X151257330Y-99692160D01*
X151249680Y-99697887D01*
X151144795Y-99869042D01*
X151140313Y-99877837D01*
X151053266Y-100087988D01*
X151050217Y-100097373D01*
X150997115Y-100318554D01*
X150995572Y-100328301D01*
X150977725Y-100555070D01*
X150977725Y-100564930D01*
X124729688Y-100564930D01*
X124728433Y-100558868D01*
X124689901Y-100372809D01*
X124689032Y-100368612D01*
X124597617Y-100110465D01*
X124472013Y-99867112D01*
X124462040Y-99852921D01*
X124317008Y-99646562D01*
X124314545Y-99643057D01*
X124128125Y-99442445D01*
X124124810Y-99439731D01*
X124124806Y-99439728D01*
X123988167Y-99327890D01*
X151622093Y-99327890D01*
X151625876Y-99336666D01*
X152477188Y-100187978D01*
X152491132Y-100195592D01*
X152492965Y-100195461D01*
X152499580Y-100191210D01*
X153351080Y-99339710D01*
X153357534Y-99327890D01*
X158122093Y-99327890D01*
X158125876Y-99336666D01*
X158977188Y-100187978D01*
X158991132Y-100195592D01*
X158992965Y-100195461D01*
X158999580Y-100191210D01*
X159851080Y-99339710D01*
X159857840Y-99327330D01*
X159852113Y-99319680D01*
X159680958Y-99214795D01*
X159672163Y-99210313D01*
X159462012Y-99123266D01*
X159452627Y-99120217D01*
X159231446Y-99067115D01*
X159221699Y-99065572D01*
X158994930Y-99047725D01*
X158985070Y-99047725D01*
X158758301Y-99065572D01*
X158748554Y-99067115D01*
X158527373Y-99120217D01*
X158517988Y-99123266D01*
X158307837Y-99210313D01*
X158299042Y-99214795D01*
X158131555Y-99317432D01*
X158122093Y-99327890D01*
X153357534Y-99327890D01*
X153357840Y-99327330D01*
X153352113Y-99319680D01*
X153180958Y-99214795D01*
X153172163Y-99210313D01*
X152962012Y-99123266D01*
X152952620Y-99120214D01*
X152924604Y-99113488D01*
X152863035Y-99078135D01*
X152830354Y-99015108D01*
X152836935Y-98944417D01*
X152880690Y-98888507D01*
X152921410Y-98869263D01*
X152973759Y-98855237D01*
X152984053Y-98851490D01*
X153181511Y-98759414D01*
X153191006Y-98753931D01*
X153243048Y-98717491D01*
X153251424Y-98707012D01*
X153244356Y-98693566D01*
X152542812Y-97992022D01*
X152528868Y-97984408D01*
X152527035Y-97984539D01*
X152520420Y-97988790D01*
X151814923Y-98694287D01*
X151808493Y-98706062D01*
X151817789Y-98718077D01*
X151868994Y-98753931D01*
X151878489Y-98759414D01*
X152075947Y-98851490D01*
X152086243Y-98855237D01*
X152100783Y-98859133D01*
X152161406Y-98896083D01*
X152192429Y-98959943D01*
X152184002Y-99030438D01*
X152138800Y-99085185D01*
X152097589Y-99103358D01*
X152027383Y-99120214D01*
X152017988Y-99123266D01*
X151807837Y-99210313D01*
X151799042Y-99214795D01*
X151631555Y-99317432D01*
X151622093Y-99327890D01*
X123988167Y-99327890D01*
X123919523Y-99271706D01*
X123916205Y-99268990D01*
X123682704Y-99125901D01*
X123678768Y-99124173D01*
X123435873Y-99017549D01*
X123435869Y-99017548D01*
X123431945Y-99015825D01*
X123168566Y-98940800D01*
X123164324Y-98940196D01*
X123164318Y-98940195D01*
X122963834Y-98911662D01*
X122897443Y-98902213D01*
X122753589Y-98901460D01*
X122627877Y-98900802D01*
X122627871Y-98900802D01*
X122623591Y-98900780D01*
X122619347Y-98901339D01*
X122619343Y-98901339D01*
X122500302Y-98917011D01*
X122352078Y-98936525D01*
X122347938Y-98937658D01*
X122347936Y-98937658D01*
X122275008Y-98957609D01*
X122087928Y-99008788D01*
X122083980Y-99010472D01*
X121839982Y-99114546D01*
X121839978Y-99114548D01*
X121836030Y-99116232D01*
X121816125Y-99128145D01*
X121604725Y-99254664D01*
X121604721Y-99254667D01*
X121601043Y-99256868D01*
X121387318Y-99428094D01*
X121198808Y-99626742D01*
X121039002Y-99849136D01*
X120910857Y-100091161D01*
X120909385Y-100095184D01*
X120909383Y-100095188D01*
X120874244Y-100191210D01*
X120816743Y-100348337D01*
X120758404Y-100615907D01*
X120758068Y-100620177D01*
X120744569Y-100791699D01*
X120736917Y-100888918D01*
X118508500Y-100888918D01*
X118508500Y-95808918D01*
X120736917Y-95808918D01*
X120752682Y-96082320D01*
X120753507Y-96086525D01*
X120753508Y-96086533D01*
X120764127Y-96140657D01*
X120805405Y-96351053D01*
X120806792Y-96355103D01*
X120806793Y-96355108D01*
X120877374Y-96561257D01*
X120894112Y-96610144D01*
X121017160Y-96854799D01*
X121019586Y-96858328D01*
X121019589Y-96858334D01*
X121095297Y-96968489D01*
X121172274Y-97080490D01*
X121175161Y-97083663D01*
X121175162Y-97083664D01*
X121292865Y-97213019D01*
X121356582Y-97283043D01*
X121566675Y-97458707D01*
X121570316Y-97460991D01*
X121795024Y-97601951D01*
X121795028Y-97601953D01*
X121798664Y-97604234D01*
X121866544Y-97634883D01*
X122044345Y-97715164D01*
X122044349Y-97715166D01*
X122048257Y-97716930D01*
X122052377Y-97718150D01*
X122052376Y-97718150D01*
X122306723Y-97793491D01*
X122306727Y-97793492D01*
X122310836Y-97794709D01*
X122315070Y-97795357D01*
X122315075Y-97795358D01*
X122577298Y-97835483D01*
X122577300Y-97835483D01*
X122581540Y-97836132D01*
X122720912Y-97838322D01*
X122851071Y-97840367D01*
X122851077Y-97840367D01*
X122855362Y-97840434D01*
X123127235Y-97807534D01*
X123392127Y-97738041D01*
X123396087Y-97736401D01*
X123396092Y-97736399D01*
X123518631Y-97685641D01*
X123645136Y-97633241D01*
X123658426Y-97625475D01*
X151217483Y-97625475D01*
X151236472Y-97842519D01*
X151238375Y-97853312D01*
X151294764Y-98063761D01*
X151298510Y-98074053D01*
X151390586Y-98271511D01*
X151396069Y-98281006D01*
X151432509Y-98333048D01*
X151442988Y-98341424D01*
X151456434Y-98334356D01*
X152157978Y-97632812D01*
X152164356Y-97621132D01*
X152894408Y-97621132D01*
X152894539Y-97622965D01*
X152898790Y-97629580D01*
X153604287Y-98335077D01*
X153616062Y-98341507D01*
X153628077Y-98332211D01*
X153663931Y-98281006D01*
X153669414Y-98271511D01*
X153761490Y-98074053D01*
X153765236Y-98063761D01*
X153821625Y-97853312D01*
X153823528Y-97842519D01*
X153842517Y-97625475D01*
X153842517Y-97614525D01*
X153823528Y-97397481D01*
X153821625Y-97386688D01*
X153765236Y-97176239D01*
X153761490Y-97165947D01*
X153669414Y-96968489D01*
X153663931Y-96958994D01*
X153627491Y-96906952D01*
X153617012Y-96898576D01*
X153603566Y-96905644D01*
X152902022Y-97607188D01*
X152894408Y-97621132D01*
X152164356Y-97621132D01*
X152165592Y-97618868D01*
X152165461Y-97617035D01*
X152161210Y-97610420D01*
X151455713Y-96904923D01*
X151443938Y-96898493D01*
X151431923Y-96907789D01*
X151396069Y-96958994D01*
X151390586Y-96968489D01*
X151298510Y-97165947D01*
X151294764Y-97176239D01*
X151238375Y-97386688D01*
X151236472Y-97397481D01*
X151217483Y-97614525D01*
X151217483Y-97625475D01*
X123658426Y-97625475D01*
X123881582Y-97495073D01*
X124097089Y-97326094D01*
X124138809Y-97283043D01*
X124284686Y-97132509D01*
X124287669Y-97129431D01*
X124290202Y-97125983D01*
X124290206Y-97125978D01*
X124447257Y-96912178D01*
X124449795Y-96908723D01*
X124453282Y-96902301D01*
X124578418Y-96671830D01*
X124578419Y-96671828D01*
X124580468Y-96668054D01*
X124652184Y-96478262D01*
X124675751Y-96415895D01*
X124675752Y-96415891D01*
X124677269Y-96411877D01*
X124738407Y-96144933D01*
X124739911Y-96128087D01*
X124762531Y-95874627D01*
X124762531Y-95874625D01*
X124762751Y-95872161D01*
X124763193Y-95830000D01*
X124755005Y-95709892D01*
X124744859Y-95561055D01*
X124744858Y-95561049D01*
X124744567Y-95556778D01*
X124689319Y-95290000D01*
X127816884Y-95290000D01*
X127835314Y-95500655D01*
X127836738Y-95505968D01*
X127836738Y-95505970D01*
X127849228Y-95552581D01*
X127890044Y-95704910D01*
X127892366Y-95709891D01*
X127892367Y-95709892D01*
X127974757Y-95886577D01*
X127979411Y-95896558D01*
X128100699Y-96069776D01*
X128250224Y-96219301D01*
X128423442Y-96340589D01*
X128428420Y-96342910D01*
X128428423Y-96342912D01*
X128604367Y-96424956D01*
X128615090Y-96429956D01*
X128620398Y-96431378D01*
X128620400Y-96431379D01*
X128814030Y-96483262D01*
X128814032Y-96483262D01*
X128819345Y-96484686D01*
X129030000Y-96503116D01*
X129240655Y-96484686D01*
X129245968Y-96483262D01*
X129245970Y-96483262D01*
X129439600Y-96431379D01*
X129439602Y-96431378D01*
X129444910Y-96429956D01*
X129455633Y-96424956D01*
X129631577Y-96342912D01*
X129631580Y-96342910D01*
X129636558Y-96340589D01*
X129809776Y-96219301D01*
X129959301Y-96069776D01*
X130080589Y-95896558D01*
X130085244Y-95886577D01*
X130167633Y-95709892D01*
X130167634Y-95709891D01*
X130169956Y-95704910D01*
X130210773Y-95552581D01*
X130223262Y-95505970D01*
X130223262Y-95505968D01*
X130224686Y-95500655D01*
X130243116Y-95290000D01*
X130242679Y-95285000D01*
X132316884Y-95285000D01*
X132335314Y-95495655D01*
X132336738Y-95500968D01*
X132336738Y-95500970D01*
X132347244Y-95540177D01*
X132390044Y-95699910D01*
X132392366Y-95704891D01*
X132392367Y-95704892D01*
X132425875Y-95776749D01*
X132479411Y-95891558D01*
X132600699Y-96064776D01*
X132750224Y-96214301D01*
X132923442Y-96335589D01*
X132928420Y-96337910D01*
X132928423Y-96337912D01*
X133110108Y-96422633D01*
X133115090Y-96424956D01*
X133120398Y-96426378D01*
X133120400Y-96426379D01*
X133314030Y-96478262D01*
X133314032Y-96478262D01*
X133319345Y-96479686D01*
X133530000Y-96498116D01*
X133740655Y-96479686D01*
X133745968Y-96478262D01*
X133745970Y-96478262D01*
X133939600Y-96426379D01*
X133939602Y-96426378D01*
X133944910Y-96424956D01*
X133949892Y-96422633D01*
X134131577Y-96337912D01*
X134131580Y-96337910D01*
X134136558Y-96335589D01*
X134309776Y-96214301D01*
X134459301Y-96064776D01*
X134580589Y-95891558D01*
X134634126Y-95776749D01*
X134667633Y-95704892D01*
X134667634Y-95704891D01*
X134669956Y-95699910D01*
X134712757Y-95540177D01*
X134723262Y-95500970D01*
X134723262Y-95500968D01*
X134724686Y-95495655D01*
X134742679Y-95290000D01*
X136856884Y-95290000D01*
X136875314Y-95500655D01*
X136876738Y-95505968D01*
X136876738Y-95505970D01*
X136889228Y-95552581D01*
X136930044Y-95704910D01*
X136932366Y-95709891D01*
X136932367Y-95709892D01*
X137014757Y-95886577D01*
X137019411Y-95896558D01*
X137140699Y-96069776D01*
X137290224Y-96219301D01*
X137463442Y-96340589D01*
X137468420Y-96342910D01*
X137468423Y-96342912D01*
X137644367Y-96424956D01*
X137655090Y-96429956D01*
X137660398Y-96431378D01*
X137660400Y-96431379D01*
X137854030Y-96483262D01*
X137854032Y-96483262D01*
X137859345Y-96484686D01*
X138070000Y-96503116D01*
X138280655Y-96484686D01*
X138285968Y-96483262D01*
X138285970Y-96483262D01*
X138479600Y-96431379D01*
X138479602Y-96431378D01*
X138484910Y-96429956D01*
X138495633Y-96424956D01*
X138671577Y-96342912D01*
X138671580Y-96342910D01*
X138676558Y-96340589D01*
X138849776Y-96219301D01*
X138999301Y-96069776D01*
X139078178Y-95957127D01*
X140531500Y-95957127D01*
X140531738Y-95959844D01*
X140531738Y-95959851D01*
X140532468Y-95968197D01*
X140546457Y-96128087D01*
X140547881Y-96133400D01*
X140547881Y-96133402D01*
X140604020Y-96342912D01*
X140605716Y-96349243D01*
X140608039Y-96354224D01*
X140608039Y-96354225D01*
X140700151Y-96551762D01*
X140700154Y-96551767D01*
X140702477Y-96556749D01*
X140833802Y-96744300D01*
X140995700Y-96906198D01*
X141000208Y-96909355D01*
X141000211Y-96909357D01*
X141004240Y-96912178D01*
X141183251Y-97037523D01*
X141188233Y-97039846D01*
X141188238Y-97039849D01*
X141385775Y-97131961D01*
X141390757Y-97134284D01*
X141396065Y-97135706D01*
X141396067Y-97135707D01*
X141606598Y-97192119D01*
X141606600Y-97192119D01*
X141611913Y-97193543D01*
X141840000Y-97213498D01*
X142068087Y-97193543D01*
X142073400Y-97192119D01*
X142073402Y-97192119D01*
X142283933Y-97135707D01*
X142283935Y-97135706D01*
X142289243Y-97134284D01*
X142294225Y-97131961D01*
X142491762Y-97039849D01*
X142491767Y-97039846D01*
X142496749Y-97037523D01*
X142675760Y-96912178D01*
X142679789Y-96909357D01*
X142679792Y-96909355D01*
X142684300Y-96906198D01*
X142846198Y-96744300D01*
X142977523Y-96556749D01*
X142979846Y-96551767D01*
X142979849Y-96551762D01*
X142995805Y-96517543D01*
X143042722Y-96464258D01*
X143110999Y-96444797D01*
X143178959Y-96465339D01*
X143224195Y-96517543D01*
X143240151Y-96551762D01*
X143240154Y-96551767D01*
X143242477Y-96556749D01*
X143373802Y-96744300D01*
X143535700Y-96906198D01*
X143540208Y-96909355D01*
X143540211Y-96909357D01*
X143544240Y-96912178D01*
X143723251Y-97037523D01*
X143728233Y-97039846D01*
X143728238Y-97039849D01*
X143925775Y-97131961D01*
X143930757Y-97134284D01*
X143936065Y-97135706D01*
X143936067Y-97135707D01*
X144146598Y-97192119D01*
X144146600Y-97192119D01*
X144151913Y-97193543D01*
X144380000Y-97213498D01*
X144608087Y-97193543D01*
X144613400Y-97192119D01*
X144613402Y-97192119D01*
X144823933Y-97135707D01*
X144823935Y-97135706D01*
X144829243Y-97134284D01*
X144834225Y-97131961D01*
X145031762Y-97039849D01*
X145031767Y-97039846D01*
X145036749Y-97037523D01*
X145215760Y-96912178D01*
X145219789Y-96909357D01*
X145219792Y-96909355D01*
X145224300Y-96906198D01*
X145386198Y-96744300D01*
X145517523Y-96556749D01*
X145519846Y-96551767D01*
X145519849Y-96551762D01*
X145535805Y-96517543D01*
X145582722Y-96464258D01*
X145650999Y-96444797D01*
X145718959Y-96465339D01*
X145764195Y-96517543D01*
X145780151Y-96551762D01*
X145780154Y-96551767D01*
X145782477Y-96556749D01*
X145913802Y-96744300D01*
X146075700Y-96906198D01*
X146080208Y-96909355D01*
X146080211Y-96909357D01*
X146084240Y-96912178D01*
X146263251Y-97037523D01*
X146268233Y-97039846D01*
X146268238Y-97039849D01*
X146465775Y-97131961D01*
X146470757Y-97134284D01*
X146476065Y-97135706D01*
X146476067Y-97135707D01*
X146686598Y-97192119D01*
X146686600Y-97192119D01*
X146691913Y-97193543D01*
X146920000Y-97213498D01*
X147148087Y-97193543D01*
X147153400Y-97192119D01*
X147153402Y-97192119D01*
X147363933Y-97135707D01*
X147363935Y-97135706D01*
X147369243Y-97134284D01*
X147374225Y-97131961D01*
X147571762Y-97039849D01*
X147571767Y-97039846D01*
X147576749Y-97037523D01*
X147755760Y-96912178D01*
X147759789Y-96909357D01*
X147759792Y-96909355D01*
X147764300Y-96906198D01*
X147926198Y-96744300D01*
X148057523Y-96556749D01*
X148059846Y-96551767D01*
X148059849Y-96551762D01*
X148075805Y-96517543D01*
X148122722Y-96464258D01*
X148190999Y-96444797D01*
X148258959Y-96465339D01*
X148304195Y-96517543D01*
X148320151Y-96551762D01*
X148320154Y-96551767D01*
X148322477Y-96556749D01*
X148453802Y-96744300D01*
X148615700Y-96906198D01*
X148620208Y-96909355D01*
X148620211Y-96909357D01*
X148624240Y-96912178D01*
X148803251Y-97037523D01*
X148808233Y-97039846D01*
X148808238Y-97039849D01*
X149005775Y-97131961D01*
X149010757Y-97134284D01*
X149016065Y-97135706D01*
X149016067Y-97135707D01*
X149226598Y-97192119D01*
X149226600Y-97192119D01*
X149231913Y-97193543D01*
X149460000Y-97213498D01*
X149688087Y-97193543D01*
X149693400Y-97192119D01*
X149693402Y-97192119D01*
X149903933Y-97135707D01*
X149903935Y-97135706D01*
X149909243Y-97134284D01*
X149914225Y-97131961D01*
X150111762Y-97039849D01*
X150111767Y-97039846D01*
X150116749Y-97037523D01*
X150295760Y-96912178D01*
X150299789Y-96909357D01*
X150299792Y-96909355D01*
X150304300Y-96906198D01*
X150466198Y-96744300D01*
X150597523Y-96556749D01*
X150599846Y-96551767D01*
X150599849Y-96551762D01*
X150691961Y-96354225D01*
X150691961Y-96354224D01*
X150694284Y-96349243D01*
X150695981Y-96342912D01*
X150752119Y-96133402D01*
X150752119Y-96133400D01*
X150753543Y-96128087D01*
X150767532Y-95968197D01*
X150768262Y-95959851D01*
X150768262Y-95959844D01*
X150768500Y-95957127D01*
X150768500Y-95120000D01*
X151216502Y-95120000D01*
X151236457Y-95348087D01*
X151237881Y-95353400D01*
X151237881Y-95353402D01*
X151286784Y-95535907D01*
X151295716Y-95569243D01*
X151298039Y-95574224D01*
X151298039Y-95574225D01*
X151390151Y-95771762D01*
X151390154Y-95771767D01*
X151392477Y-95776749D01*
X151395634Y-95781257D01*
X151516861Y-95954387D01*
X151523802Y-95964300D01*
X151685700Y-96126198D01*
X151690208Y-96129355D01*
X151690211Y-96129357D01*
X151793876Y-96201944D01*
X151873251Y-96257523D01*
X151878235Y-96259847D01*
X151880528Y-96261171D01*
X151929521Y-96312553D01*
X151942957Y-96382267D01*
X151916571Y-96448178D01*
X151880528Y-96479409D01*
X151868998Y-96486066D01*
X151816952Y-96522509D01*
X151808576Y-96532988D01*
X151815644Y-96546434D01*
X152517188Y-97247978D01*
X152531132Y-97255592D01*
X152532965Y-97255461D01*
X152539580Y-97251210D01*
X153245077Y-96545713D01*
X153251507Y-96533938D01*
X153242211Y-96521923D01*
X153191002Y-96486066D01*
X153179472Y-96479409D01*
X153130479Y-96428027D01*
X153117042Y-96358313D01*
X153143429Y-96292402D01*
X153179472Y-96261171D01*
X153181765Y-96259847D01*
X153186749Y-96257523D01*
X153266124Y-96201944D01*
X153369789Y-96129357D01*
X153369792Y-96129355D01*
X153374300Y-96126198D01*
X153536198Y-95964300D01*
X153543140Y-95954387D01*
X153664366Y-95781257D01*
X153667523Y-95776749D01*
X153669846Y-95771767D01*
X153669849Y-95771762D01*
X153761961Y-95574225D01*
X153761961Y-95574224D01*
X153764284Y-95569243D01*
X153773217Y-95535907D01*
X153822119Y-95353402D01*
X153822119Y-95353400D01*
X153823543Y-95348087D01*
X153843498Y-95120000D01*
X153823543Y-94891913D01*
X153820458Y-94880400D01*
X153765707Y-94676067D01*
X153765706Y-94676065D01*
X153764284Y-94670757D01*
X153752635Y-94645775D01*
X153669849Y-94468238D01*
X153669846Y-94468233D01*
X153667523Y-94463251D01*
X153536198Y-94275700D01*
X153374300Y-94113802D01*
X153369792Y-94110645D01*
X153369789Y-94110643D01*
X153228932Y-94012014D01*
X153186749Y-93982477D01*
X153181767Y-93980154D01*
X153181762Y-93980151D01*
X152984225Y-93888039D01*
X152984224Y-93888039D01*
X152979243Y-93885716D01*
X152973935Y-93884294D01*
X152973933Y-93884293D01*
X152763402Y-93827881D01*
X152763400Y-93827881D01*
X152758087Y-93826457D01*
X152530000Y-93806502D01*
X152301913Y-93826457D01*
X152296600Y-93827881D01*
X152296598Y-93827881D01*
X152086067Y-93884293D01*
X152086065Y-93884294D01*
X152080757Y-93885716D01*
X152075776Y-93888039D01*
X152075775Y-93888039D01*
X151878238Y-93980151D01*
X151878233Y-93980154D01*
X151873251Y-93982477D01*
X151831068Y-94012014D01*
X151690211Y-94110643D01*
X151690208Y-94110645D01*
X151685700Y-94113802D01*
X151523802Y-94275700D01*
X151392477Y-94463251D01*
X151390154Y-94468233D01*
X151390151Y-94468238D01*
X151307365Y-94645775D01*
X151295716Y-94670757D01*
X151294294Y-94676065D01*
X151294293Y-94676067D01*
X151239542Y-94880400D01*
X151236457Y-94891913D01*
X151216502Y-95120000D01*
X150768500Y-95120000D01*
X150768500Y-95042873D01*
X150767415Y-95030465D01*
X150755772Y-94897393D01*
X150753543Y-94871913D01*
X150731841Y-94790919D01*
X150695707Y-94656067D01*
X150695706Y-94656065D01*
X150694284Y-94650757D01*
X150691961Y-94645775D01*
X150599849Y-94448238D01*
X150599846Y-94448233D01*
X150597523Y-94443251D01*
X150480202Y-94275700D01*
X150469357Y-94260211D01*
X150469355Y-94260208D01*
X150466198Y-94255700D01*
X150304300Y-94093802D01*
X150299792Y-94090645D01*
X150299789Y-94090643D01*
X150187495Y-94012014D01*
X150116749Y-93962477D01*
X150111767Y-93960154D01*
X150111762Y-93960151D01*
X149914225Y-93868039D01*
X149914224Y-93868039D01*
X149909243Y-93865716D01*
X149903935Y-93864294D01*
X149903933Y-93864293D01*
X149693402Y-93807881D01*
X149693400Y-93807881D01*
X149688087Y-93806457D01*
X149460000Y-93786502D01*
X149231913Y-93806457D01*
X149226600Y-93807881D01*
X149226598Y-93807881D01*
X149016067Y-93864293D01*
X149016065Y-93864294D01*
X149010757Y-93865716D01*
X149005776Y-93868039D01*
X149005775Y-93868039D01*
X148808238Y-93960151D01*
X148808233Y-93960154D01*
X148803251Y-93962477D01*
X148732505Y-94012014D01*
X148620211Y-94090643D01*
X148620208Y-94090645D01*
X148615700Y-94093802D01*
X148453802Y-94255700D01*
X148450645Y-94260208D01*
X148450643Y-94260211D01*
X148439798Y-94275700D01*
X148322477Y-94443251D01*
X148320154Y-94448233D01*
X148320151Y-94448238D01*
X148304195Y-94482457D01*
X148257278Y-94535742D01*
X148189001Y-94555203D01*
X148121041Y-94534661D01*
X148075805Y-94482457D01*
X148059849Y-94448238D01*
X148059846Y-94448233D01*
X148057523Y-94443251D01*
X147940202Y-94275700D01*
X147929357Y-94260211D01*
X147929355Y-94260208D01*
X147926198Y-94255700D01*
X147764300Y-94093802D01*
X147759792Y-94090645D01*
X147759789Y-94090643D01*
X147647495Y-94012014D01*
X147576749Y-93962477D01*
X147571767Y-93960154D01*
X147571762Y-93960151D01*
X147374225Y-93868039D01*
X147374224Y-93868039D01*
X147369243Y-93865716D01*
X147363935Y-93864294D01*
X147363933Y-93864293D01*
X147153402Y-93807881D01*
X147153400Y-93807881D01*
X147148087Y-93806457D01*
X146920000Y-93786502D01*
X146691913Y-93806457D01*
X146686600Y-93807881D01*
X146686598Y-93807881D01*
X146476067Y-93864293D01*
X146476065Y-93864294D01*
X146470757Y-93865716D01*
X146465776Y-93868039D01*
X146465775Y-93868039D01*
X146268238Y-93960151D01*
X146268233Y-93960154D01*
X146263251Y-93962477D01*
X146192505Y-94012014D01*
X146080211Y-94090643D01*
X146080208Y-94090645D01*
X146075700Y-94093802D01*
X145913802Y-94255700D01*
X145910645Y-94260208D01*
X145910643Y-94260211D01*
X145899798Y-94275700D01*
X145782477Y-94443251D01*
X145780154Y-94448233D01*
X145780151Y-94448238D01*
X145764195Y-94482457D01*
X145717278Y-94535742D01*
X145649001Y-94555203D01*
X145581041Y-94534661D01*
X145535805Y-94482457D01*
X145519849Y-94448238D01*
X145519846Y-94448233D01*
X145517523Y-94443251D01*
X145400202Y-94275700D01*
X145389357Y-94260211D01*
X145389355Y-94260208D01*
X145386198Y-94255700D01*
X145224300Y-94093802D01*
X145180250Y-94062957D01*
X145135922Y-94007500D01*
X145128614Y-93936881D01*
X145163427Y-93870650D01*
X145299301Y-93734776D01*
X145420589Y-93561558D01*
X145509956Y-93369910D01*
X145564686Y-93165655D01*
X145583116Y-92955000D01*
X145564686Y-92744345D01*
X145552969Y-92700615D01*
X145511379Y-92545400D01*
X145511378Y-92545398D01*
X145509956Y-92540090D01*
X145427440Y-92363134D01*
X145848901Y-92363134D01*
X145855656Y-92425316D01*
X145906786Y-92561705D01*
X145994140Y-92678261D01*
X146110696Y-92765615D01*
X146247085Y-92816745D01*
X146309267Y-92823500D01*
X147605535Y-92823500D01*
X147667717Y-92816745D01*
X147804106Y-92765615D01*
X147920662Y-92678261D01*
X147937125Y-92656294D01*
X148380467Y-92656294D01*
X148390349Y-92668783D01*
X148421640Y-92689691D01*
X148431750Y-92695181D01*
X148608236Y-92771005D01*
X148619179Y-92774560D01*
X148806521Y-92816952D01*
X148817931Y-92818454D01*
X149009870Y-92825995D01*
X149021352Y-92825393D01*
X149211446Y-92797832D01*
X149222641Y-92795144D01*
X149404532Y-92733400D01*
X149415029Y-92728726D01*
X149525433Y-92666898D01*
X149535296Y-92656821D01*
X149532341Y-92649151D01*
X148970212Y-92087021D01*
X148956269Y-92079408D01*
X148954435Y-92079539D01*
X148947821Y-92083790D01*
X148386660Y-92644952D01*
X148380467Y-92656294D01*
X147937125Y-92656294D01*
X148008016Y-92561705D01*
X148059146Y-92425316D01*
X148065901Y-92363134D01*
X148065901Y-92299480D01*
X148085903Y-92231359D01*
X148102806Y-92210384D01*
X148585380Y-91727811D01*
X148591757Y-91716132D01*
X149321809Y-91716132D01*
X149321940Y-91717966D01*
X149326191Y-91724580D01*
X149887640Y-92286028D01*
X149900015Y-92292785D01*
X149906595Y-92287859D01*
X149971127Y-92172628D01*
X149975801Y-92162131D01*
X150037545Y-91980240D01*
X150040233Y-91969045D01*
X150068090Y-91776911D01*
X150068720Y-91769528D01*
X150070051Y-91718704D01*
X150069808Y-91711305D01*
X150052044Y-91517975D01*
X150049946Y-91506654D01*
X149997809Y-91321791D01*
X149993684Y-91311044D01*
X149909564Y-91140465D01*
X149902270Y-91134990D01*
X149889850Y-91141762D01*
X149329422Y-91702189D01*
X149321809Y-91716132D01*
X148591757Y-91716132D01*
X148592993Y-91713868D01*
X148592862Y-91712034D01*
X148588611Y-91705420D01*
X148102806Y-91219616D01*
X148068781Y-91157303D01*
X148065901Y-91130520D01*
X148065901Y-91066866D01*
X148059146Y-91004684D01*
X148008016Y-90868295D01*
X147937102Y-90773675D01*
X148380189Y-90773675D01*
X148383676Y-90782064D01*
X148944590Y-91342979D01*
X148958533Y-91350592D01*
X148960367Y-91350461D01*
X148966981Y-91346210D01*
X149527686Y-90785504D01*
X149534443Y-90773129D01*
X149528413Y-90765073D01*
X149467462Y-90726616D01*
X149457214Y-90721395D01*
X149278802Y-90650216D01*
X149267774Y-90646949D01*
X149079383Y-90609476D01*
X149067936Y-90608273D01*
X148875878Y-90605759D01*
X148864398Y-90606662D01*
X148675098Y-90639190D01*
X148663978Y-90642170D01*
X148483766Y-90708653D01*
X148473392Y-90713601D01*
X148389786Y-90763342D01*
X148380189Y-90773675D01*
X147937102Y-90773675D01*
X147920662Y-90751739D01*
X147804106Y-90664385D01*
X147667717Y-90613255D01*
X147605535Y-90606500D01*
X146309267Y-90606500D01*
X146247085Y-90613255D01*
X146110696Y-90664385D01*
X145994140Y-90751739D01*
X145906786Y-90868295D01*
X145855656Y-91004684D01*
X145848901Y-91066866D01*
X145848901Y-92363134D01*
X145427440Y-92363134D01*
X145420589Y-92348442D01*
X145299301Y-92175224D01*
X145149776Y-92025699D01*
X144976558Y-91904411D01*
X144971580Y-91902090D01*
X144971577Y-91902088D01*
X144789892Y-91817367D01*
X144789891Y-91817366D01*
X144784910Y-91815044D01*
X144779602Y-91813622D01*
X144779600Y-91813621D01*
X144585970Y-91761738D01*
X144585968Y-91761738D01*
X144580655Y-91760314D01*
X144370000Y-91741884D01*
X144159345Y-91760314D01*
X144154032Y-91761738D01*
X144154030Y-91761738D01*
X143960400Y-91813621D01*
X143960398Y-91813622D01*
X143955090Y-91815044D01*
X143950109Y-91817366D01*
X143950108Y-91817367D01*
X143768423Y-91902088D01*
X143768420Y-91902090D01*
X143763442Y-91904411D01*
X143590224Y-92025699D01*
X143440699Y-92175224D01*
X143319411Y-92348442D01*
X143230044Y-92540090D01*
X143228622Y-92545398D01*
X143228621Y-92545400D01*
X143187031Y-92700615D01*
X143175314Y-92744345D01*
X143156884Y-92955000D01*
X143175314Y-93165655D01*
X143230044Y-93369910D01*
X143319411Y-93561558D01*
X143440699Y-93734776D01*
X143584810Y-93878887D01*
X143618836Y-93941199D01*
X143613771Y-94012014D01*
X143567986Y-94071195D01*
X143535700Y-94093802D01*
X143373802Y-94255700D01*
X143370645Y-94260208D01*
X143370643Y-94260211D01*
X143359798Y-94275700D01*
X143242477Y-94443251D01*
X143240154Y-94448233D01*
X143240151Y-94448238D01*
X143224195Y-94482457D01*
X143177278Y-94535742D01*
X143109001Y-94555203D01*
X143041041Y-94534661D01*
X142995805Y-94482457D01*
X142979849Y-94448238D01*
X142979846Y-94448233D01*
X142977523Y-94443251D01*
X142860202Y-94275700D01*
X142849357Y-94260211D01*
X142849355Y-94260208D01*
X142846198Y-94255700D01*
X142684300Y-94093802D01*
X142679792Y-94090645D01*
X142679789Y-94090643D01*
X142567495Y-94012014D01*
X142496749Y-93962477D01*
X142491767Y-93960154D01*
X142491762Y-93960151D01*
X142294225Y-93868039D01*
X142294224Y-93868039D01*
X142289243Y-93865716D01*
X142283935Y-93864294D01*
X142283933Y-93864293D01*
X142073402Y-93807881D01*
X142073400Y-93807881D01*
X142068087Y-93806457D01*
X141840000Y-93786502D01*
X141611913Y-93806457D01*
X141606600Y-93807881D01*
X141606598Y-93807881D01*
X141396067Y-93864293D01*
X141396065Y-93864294D01*
X141390757Y-93865716D01*
X141385776Y-93868039D01*
X141385775Y-93868039D01*
X141188238Y-93960151D01*
X141188233Y-93960154D01*
X141183251Y-93962477D01*
X141112505Y-94012014D01*
X141000211Y-94090643D01*
X141000208Y-94090645D01*
X140995700Y-94093802D01*
X140833802Y-94255700D01*
X140830645Y-94260208D01*
X140830643Y-94260211D01*
X140819798Y-94275700D01*
X140702477Y-94443251D01*
X140700154Y-94448233D01*
X140700151Y-94448238D01*
X140608039Y-94645775D01*
X140605716Y-94650757D01*
X140604294Y-94656065D01*
X140604293Y-94656067D01*
X140568159Y-94790919D01*
X140546457Y-94871913D01*
X140544228Y-94897393D01*
X140532586Y-95030465D01*
X140531500Y-95042873D01*
X140531500Y-95957127D01*
X139078178Y-95957127D01*
X139120589Y-95896558D01*
X139125244Y-95886577D01*
X139207633Y-95709892D01*
X139207634Y-95709891D01*
X139209956Y-95704910D01*
X139250773Y-95552581D01*
X139263262Y-95505970D01*
X139263262Y-95505968D01*
X139264686Y-95500655D01*
X139283116Y-95290000D01*
X139264686Y-95079345D01*
X139255648Y-95045613D01*
X139211379Y-94880400D01*
X139211378Y-94880398D01*
X139209956Y-94875090D01*
X139207633Y-94870108D01*
X139122912Y-94688423D01*
X139122910Y-94688420D01*
X139120589Y-94683442D01*
X138999301Y-94510224D01*
X138849776Y-94360699D01*
X138676558Y-94239411D01*
X138671580Y-94237090D01*
X138671577Y-94237088D01*
X138489892Y-94152367D01*
X138489891Y-94152366D01*
X138484910Y-94150044D01*
X138479602Y-94148622D01*
X138479600Y-94148621D01*
X138285970Y-94096738D01*
X138285968Y-94096738D01*
X138280655Y-94095314D01*
X138070000Y-94076884D01*
X137859345Y-94095314D01*
X137854032Y-94096738D01*
X137854030Y-94096738D01*
X137660400Y-94148621D01*
X137660398Y-94148622D01*
X137655090Y-94150044D01*
X137650109Y-94152366D01*
X137650108Y-94152367D01*
X137468423Y-94237088D01*
X137468420Y-94237090D01*
X137463442Y-94239411D01*
X137290224Y-94360699D01*
X137140699Y-94510224D01*
X137019411Y-94683442D01*
X137017090Y-94688420D01*
X137017088Y-94688423D01*
X136932367Y-94870108D01*
X136930044Y-94875090D01*
X136928622Y-94880398D01*
X136928621Y-94880400D01*
X136884352Y-95045613D01*
X136875314Y-95079345D01*
X136856884Y-95290000D01*
X134742679Y-95290000D01*
X134743116Y-95285000D01*
X134724686Y-95074345D01*
X134714011Y-95034506D01*
X134671379Y-94875400D01*
X134671378Y-94875398D01*
X134669956Y-94870090D01*
X134629835Y-94784050D01*
X134582912Y-94683423D01*
X134582910Y-94683420D01*
X134580589Y-94678442D01*
X134459301Y-94505224D01*
X134309776Y-94355699D01*
X134136558Y-94234411D01*
X134131580Y-94232090D01*
X134131577Y-94232088D01*
X133949892Y-94147367D01*
X133949891Y-94147366D01*
X133944910Y-94145044D01*
X133939602Y-94143622D01*
X133939600Y-94143621D01*
X133745970Y-94091738D01*
X133745968Y-94091738D01*
X133740655Y-94090314D01*
X133530000Y-94071884D01*
X133319345Y-94090314D01*
X133314032Y-94091738D01*
X133314030Y-94091738D01*
X133120400Y-94143621D01*
X133120398Y-94143622D01*
X133115090Y-94145044D01*
X133110109Y-94147366D01*
X133110108Y-94147367D01*
X132928423Y-94232088D01*
X132928420Y-94232090D01*
X132923442Y-94234411D01*
X132750224Y-94355699D01*
X132600699Y-94505224D01*
X132479411Y-94678442D01*
X132477090Y-94683420D01*
X132477088Y-94683423D01*
X132430165Y-94784050D01*
X132390044Y-94870090D01*
X132388622Y-94875398D01*
X132388621Y-94875400D01*
X132345989Y-95034506D01*
X132335314Y-95074345D01*
X132316884Y-95285000D01*
X130242679Y-95285000D01*
X130224686Y-95079345D01*
X130215648Y-95045613D01*
X130171379Y-94880400D01*
X130171378Y-94880398D01*
X130169956Y-94875090D01*
X130167633Y-94870108D01*
X130082912Y-94688423D01*
X130082910Y-94688420D01*
X130080589Y-94683442D01*
X129959301Y-94510224D01*
X129809776Y-94360699D01*
X129636558Y-94239411D01*
X129631580Y-94237090D01*
X129631577Y-94237088D01*
X129449892Y-94152367D01*
X129449891Y-94152366D01*
X129444910Y-94150044D01*
X129439602Y-94148622D01*
X129439600Y-94148621D01*
X129245970Y-94096738D01*
X129245968Y-94096738D01*
X129240655Y-94095314D01*
X129030000Y-94076884D01*
X128819345Y-94095314D01*
X128814032Y-94096738D01*
X128814030Y-94096738D01*
X128620400Y-94148621D01*
X128620398Y-94148622D01*
X128615090Y-94150044D01*
X128610109Y-94152366D01*
X128610108Y-94152367D01*
X128428423Y-94237088D01*
X128428420Y-94237090D01*
X128423442Y-94239411D01*
X128250224Y-94360699D01*
X128100699Y-94510224D01*
X127979411Y-94683442D01*
X127977090Y-94688420D01*
X127977088Y-94688423D01*
X127892367Y-94870108D01*
X127890044Y-94875090D01*
X127888622Y-94880398D01*
X127888621Y-94880400D01*
X127844352Y-95045613D01*
X127835314Y-95079345D01*
X127816884Y-95290000D01*
X124689319Y-95290000D01*
X124689032Y-95288612D01*
X124597617Y-95030465D01*
X124515782Y-94871913D01*
X124473978Y-94790919D01*
X124473978Y-94790918D01*
X124472013Y-94787112D01*
X124462040Y-94772921D01*
X124317008Y-94566562D01*
X124314545Y-94563057D01*
X124207849Y-94448238D01*
X124131046Y-94365588D01*
X124131043Y-94365585D01*
X124128125Y-94362445D01*
X124124810Y-94359731D01*
X124124806Y-94359728D01*
X123919523Y-94191706D01*
X123916205Y-94188990D01*
X123682704Y-94045901D01*
X123678768Y-94044173D01*
X123435873Y-93937549D01*
X123435869Y-93937548D01*
X123431945Y-93935825D01*
X123168566Y-93860800D01*
X123164324Y-93860196D01*
X123164318Y-93860195D01*
X122937268Y-93827881D01*
X122897443Y-93822213D01*
X122753589Y-93821460D01*
X122627877Y-93820802D01*
X122627871Y-93820802D01*
X122623591Y-93820780D01*
X122619347Y-93821339D01*
X122619343Y-93821339D01*
X122500302Y-93837011D01*
X122352078Y-93856525D01*
X122347938Y-93857658D01*
X122347936Y-93857658D01*
X122275008Y-93877609D01*
X122087928Y-93928788D01*
X122083980Y-93930472D01*
X121839982Y-94034546D01*
X121839978Y-94034548D01*
X121836030Y-94036232D01*
X121745665Y-94090314D01*
X121604725Y-94174664D01*
X121604721Y-94174667D01*
X121601043Y-94176868D01*
X121387318Y-94348094D01*
X121370717Y-94365588D01*
X121209247Y-94535742D01*
X121198808Y-94546742D01*
X121039002Y-94769136D01*
X120910857Y-95011161D01*
X120909385Y-95015184D01*
X120909383Y-95015188D01*
X120818214Y-95264317D01*
X120816743Y-95268337D01*
X120758404Y-95535907D01*
X120736917Y-95808918D01*
X118508500Y-95808918D01*
X118508500Y-92955000D01*
X135536884Y-92955000D01*
X135555314Y-93165655D01*
X135610044Y-93369910D01*
X135699411Y-93561558D01*
X135820699Y-93734776D01*
X135970224Y-93884301D01*
X136143442Y-94005589D01*
X136148420Y-94007910D01*
X136148423Y-94007912D01*
X136325849Y-94090647D01*
X136335090Y-94094956D01*
X136340398Y-94096378D01*
X136340400Y-94096379D01*
X136534030Y-94148262D01*
X136534032Y-94148262D01*
X136539345Y-94149686D01*
X136750000Y-94168116D01*
X136960655Y-94149686D01*
X136965968Y-94148262D01*
X136965970Y-94148262D01*
X137159600Y-94096379D01*
X137159602Y-94096378D01*
X137164910Y-94094956D01*
X137174151Y-94090647D01*
X137351577Y-94007912D01*
X137351580Y-94007910D01*
X137356558Y-94005589D01*
X137529776Y-93884301D01*
X137679301Y-93734776D01*
X137800589Y-93561558D01*
X137889956Y-93369910D01*
X137944686Y-93165655D01*
X137963116Y-92955000D01*
X137944686Y-92744345D01*
X137932969Y-92700615D01*
X137891379Y-92545400D01*
X137891378Y-92545398D01*
X137889956Y-92540090D01*
X137800589Y-92348442D01*
X137679301Y-92175224D01*
X137529776Y-92025699D01*
X137356558Y-91904411D01*
X137351580Y-91902090D01*
X137351577Y-91902088D01*
X137169892Y-91817367D01*
X137169891Y-91817366D01*
X137164910Y-91815044D01*
X137159602Y-91813622D01*
X137159600Y-91813621D01*
X136965970Y-91761738D01*
X136965968Y-91761738D01*
X136960655Y-91760314D01*
X136750000Y-91741884D01*
X136539345Y-91760314D01*
X136534032Y-91761738D01*
X136534030Y-91761738D01*
X136340400Y-91813621D01*
X136340398Y-91813622D01*
X136335090Y-91815044D01*
X136330109Y-91817366D01*
X136330108Y-91817367D01*
X136148423Y-91902088D01*
X136148420Y-91902090D01*
X136143442Y-91904411D01*
X135970224Y-92025699D01*
X135820699Y-92175224D01*
X135699411Y-92348442D01*
X135610044Y-92540090D01*
X135608622Y-92545398D01*
X135608621Y-92545400D01*
X135567031Y-92700615D01*
X135555314Y-92744345D01*
X135536884Y-92955000D01*
X118508500Y-92955000D01*
X118508500Y-92298134D01*
X120741500Y-92298134D01*
X120748255Y-92360316D01*
X120799385Y-92496705D01*
X120886739Y-92613261D01*
X121003295Y-92700615D01*
X121139684Y-92751745D01*
X121201866Y-92758500D01*
X124298134Y-92758500D01*
X124360316Y-92751745D01*
X124496705Y-92700615D01*
X124613261Y-92613261D01*
X124700615Y-92496705D01*
X124751745Y-92360316D01*
X124758500Y-92298134D01*
X124758500Y-89201866D01*
X124751745Y-89139684D01*
X124700615Y-89003295D01*
X124613261Y-88886739D01*
X124496705Y-88799385D01*
X124360316Y-88748255D01*
X124298134Y-88741500D01*
X121201866Y-88741500D01*
X121139684Y-88748255D01*
X121003295Y-88799385D01*
X120886739Y-88886739D01*
X120799385Y-89003295D01*
X120748255Y-89139684D01*
X120741500Y-89201866D01*
X120741500Y-92298134D01*
X118508500Y-92298134D01*
X118508500Y-87634500D01*
X118528502Y-87566379D01*
X118582158Y-87519886D01*
X118634500Y-87508500D01*
X163365500Y-87508500D01*
X163433621Y-87528502D01*
G37*
%TD.AperFunction*%
%TD*%
M02*
